<svg width="21" height="21" viewBox="0 0 21 21" fill="none" xmlns="http://www.w3.org/2000/svg">
<g id="Icon" clip-path="url(#clip0_120_2691)">
<path id="Vector" d="M17.8108 11.7529C17.8108 10.7633 17.6285 9.82585 17.2639 8.94043C16.8993 8.05501 16.398 7.28027 15.76 6.61621C15.122 5.95215 14.3733 5.43132 13.5139 5.05371C12.6676 4.66309 11.7561 4.46126 10.7795 4.44824V3.35449H11.385V2.53418H9.3147V3.35449H9.95923V4.4873C9.07381 4.57845 8.24048 4.83236 7.45923 5.24902C6.67798 5.66569 6.0009 6.19954 5.42798 6.85059C4.85506 7.50163 4.40584 8.25033 4.08032 9.09668C3.74178 9.93001 3.57251 10.8219 3.57251 11.7725C3.57251 12.3975 3.65063 13.0029 3.80688 13.5889C3.95011 14.1878 4.1617 14.7445 4.44165 15.2588C4.7216 15.7731 5.05688 16.2516 5.44751 16.6943C5.82511 17.137 6.2548 17.5212 6.73657 17.8467L4.58813 19.8779L5.15454 20.4639L7.45923 18.2764C7.941 18.5368 8.45532 18.7354 9.0022 18.8721C9.54907 19.0088 10.109 19.0771 10.6819 19.0771C11.2808 19.0771 11.8538 19.0055 12.4006 18.8623C12.9475 18.7191 13.4683 18.5173 13.9631 18.2568L16.2678 20.4639L16.8342 19.8584L14.6858 17.8271C15.1545 17.4886 15.5777 17.1045 15.9553 16.6748C16.3459 16.2321 16.678 15.7536 16.9514 15.2393C17.2249 14.7249 17.4332 14.1748 17.5764 13.5889C17.7327 13.0029 17.8108 12.391 17.8108 11.7529ZM10.7014 18.2568C9.82902 18.2568 9.01522 18.0876 8.26001 17.749C7.49178 17.4105 6.82121 16.945 6.24829 16.3525C5.67537 15.7601 5.22616 15.0732 4.90063 14.292C4.56209 13.4977 4.39282 12.6514 4.39282 11.7529C4.39282 10.8675 4.55558 10.0277 4.8811 9.2334C5.20662 8.43913 5.65584 7.74902 6.22876 7.16309C6.80168 6.57715 7.47225 6.11491 8.24048 5.77637C8.99569 5.4248 9.816 5.24902 10.7014 5.24902C11.5738 5.24902 12.3941 5.4248 13.1624 5.77637C13.9176 6.11491 14.5816 6.57715 15.1545 7.16309C15.7275 7.74902 16.1767 8.43913 16.5022 9.2334C16.8277 10.0277 16.9905 10.8675 16.9905 11.7529C16.9905 12.6514 16.8277 13.4977 16.5022 14.292C16.1637 15.0732 15.7079 15.7601 15.135 16.3525C14.5621 16.945 13.898 17.4105 13.1428 17.749C12.3746 18.0876 11.5608 18.2568 10.7014 18.2568ZM10.7795 6.24512H9.95923V12.0459L13.0842 13.4326L13.4163 12.6514L10.7795 11.5186V6.24512ZM7.18579 2.3584C6.50871 1.66829 5.68188 1.32324 4.70532 1.32324C3.72876 1.32324 2.90194 1.66829 2.22485 2.3584C1.53475 3.03548 1.1897 3.85905 1.1897 4.8291C1.1897 5.79915 1.53475 6.62923 2.22485 7.31934C2.26392 7.3584 2.30298 7.39746 2.34204 7.43652C2.3811 7.47559 2.42017 7.51465 2.45923 7.55371L7.40063 2.57324C7.36157 2.53418 7.32577 2.49512 7.29321 2.45605C7.26066 2.41699 7.22485 2.38444 7.18579 2.3584ZM2.49829 6.34277C2.10767 5.82194 1.93514 5.23275 1.98071 4.5752C2.02629 3.91764 2.28345 3.35449 2.7522 2.88574C3.22095 2.41699 3.7841 2.15983 4.44165 2.11426C5.0992 2.06869 5.6884 2.2347 6.20923 2.6123L2.49829 6.34277ZM19.2561 2.3584C18.579 1.66829 17.7555 1.32324 16.7854 1.32324C15.8153 1.32324 14.9853 1.66829 14.2952 2.3584C14.2561 2.38444 14.2203 2.41699 14.1877 2.45605C14.1552 2.49512 14.1194 2.53418 14.0803 2.57324L19.0217 7.55371C19.0608 7.51465 19.0999 7.47559 19.1389 7.43652C19.178 7.39746 19.217 7.3584 19.2561 7.31934C19.9462 6.62923 20.2913 5.79915 20.2913 4.8291C20.2913 3.85905 19.9462 3.03548 19.2561 2.3584ZM19.0022 6.34277L15.2717 2.6123C15.7926 2.2347 16.3818 2.06869 17.0393 2.11426C17.6969 2.15983 18.26 2.41699 18.7288 2.88574C19.1975 3.35449 19.4547 3.91764 19.5002 4.5752C19.5458 5.23275 19.3798 5.82194 19.0022 6.34277Z" fill="white"/>
</g>
<defs>
<clipPath id="clip0_120_2691">
<rect width="20" height="20" fill="white" transform="matrix(1 0 0 -1 0.76001 20.6396)"/>
</clipPath>
</defs>
</svg>
