<svg width="162" height="326" viewBox="0 0 162 326" fill="none" xmlns="http://www.w3.org/2000/svg">
<path d="M159.055 2.88336C157.792 4.18845 155.141 6.63025 153.164 8.27216C140.624 18.8393 138.015 21.4915 135.322 26.6699C133.639 29.8274 132.545 33.869 132.545 36.8581C132.545 37.9948 132.419 38.8788 132.25 38.8788C132.124 38.8788 131.114 38.3315 130.062 37.6158C127.201 35.8055 122.698 33.869 119.416 33.0269C116.639 32.3112 116.555 32.2692 117.354 31.5535C118.028 30.9641 118.07 30.6693 117.649 29.8274C117.06 28.5222 115.292 28.3539 115.292 29.5748C115.292 30.0378 115.503 30.5431 115.713 30.6693C116.344 31.0482 115.377 32.1429 114.409 32.1429C113.946 32.1429 113.609 31.7639 113.525 31.1746C113.441 30.5851 113.104 30.2484 112.557 30.2484C111.926 30.2484 111.674 30.5851 111.589 31.5956C111.463 32.9007 111.547 32.9849 112.726 32.9849C113.441 32.9849 114.03 33.0691 114.03 33.1533C114.03 33.2375 113.273 34.5425 112.389 36.0582C110.453 39.2157 108.938 42.6678 107.928 46.2464C107.508 47.6357 107.129 48.8145 107.087 48.8987C107.003 48.9828 105.951 48.0566 104.73 46.8779C102.248 44.4781 97.8716 42.1627 94.0424 41.1944C90.0028 40.1418 84.9532 39.9734 74.2231 40.5208C66.3542 40.9417 63.1983 40.9417 59.7478 40.5629C52.5943 39.7209 53.2676 39.5103 53.478 42.4574C53.8146 47.0883 53.4359 53.7401 52.3839 61.9918C50.3221 78.1582 51.4582 85.9467 56.8443 92.0933C57.8122 93.1879 58.5275 94.1562 58.4433 94.2404C58.3592 94.3246 56.5919 94.7877 54.5721 95.2508C49.5646 96.4296 45.2305 98.282 41.6958 100.808C38.7503 102.871 38.7082 102.913 38.7082 104.807C38.7082 109.228 41.275 117.564 43.9681 121.816C44.5572 122.742 45.0201 123.626 45.0201 123.795C45.0201 124.005 43.7156 124.173 42.0745 124.216C33.9533 124.384 27.7676 128.299 17.8369 139.456C11.9458 146.023 6.728 151.244 3.6983 153.475C2.09929 154.654 0.836914 155.748 0.836914 155.917C0.836914 156.085 1.29979 156.548 1.84681 156.885C4.49781 158.653 8.74781 163.2 15.3963 171.536C19.3938 176.546 23.9805 181.808 25.5374 183.24C30.124 187.408 36.0151 190.018 40.6859 190.018C41.9062 190.018 42.9161 190.144 42.9161 190.313C42.9161 190.523 42.5374 191.197 42.0325 191.912C39.0448 196.291 36.0993 203.7 35.5523 208.247C35.2577 210.647 35.2577 210.647 36.8567 212.162C40.3914 215.404 46.2404 218.435 52.2998 220.119L54.7404 220.835L52.5943 223.151C51.4161 224.456 49.9013 226.561 49.2701 227.866C46.1983 233.97 45.6513 239.022 46.4929 253.294C46.9978 261.419 47.0399 264.83 46.6612 268.282C45.9879 275.228 45.9458 274.849 46.9136 274.723C49.9433 274.26 60.8419 274.639 67.5325 275.439C83.8592 277.46 90.676 276.449 97.7032 271.018C100.354 268.913 100.565 268.871 100.565 269.924C100.565 273.628 104.815 283.648 107.802 287.058L109.528 288.995L111.884 288.742C117.186 288.111 123.372 286.048 127.579 283.48C128.674 282.764 129.683 282.217 129.81 282.217C129.936 282.217 130.02 283.017 130.02 284.027C130.02 288.532 131.787 293.794 134.691 298.089C136.711 301.036 140.414 304.825 147.062 310.634C153.584 316.36 157.75 320.528 160.065 323.601L161.579 325.664V319.307C161.579 313.16 161.537 312.95 160.738 312.95C158.508 312.95 155.226 309.792 154.636 307.014C154.426 306.088 154.131 305.793 153.332 305.793C151.985 305.793 150.218 304.025 150.218 302.72C150.218 301.835 149.924 301.625 148.325 301.204C146.305 300.699 144.748 298.931 144.748 297.162C144.748 296.573 144.117 296.026 142.56 295.268C139.909 294.005 138.815 292.152 138.688 288.742C138.604 287.016 138.31 286.132 137.636 285.416C136.206 283.901 135.785 281.712 136.332 278.975C136.753 277.123 137.258 276.154 138.983 274.218C140.203 272.871 141.297 271.734 141.466 271.734C141.592 271.692 142.77 273.25 144.032 275.144C148.367 281.67 154.089 287.479 158.844 290.258C161.201 291.605 161.579 291.731 161.537 290.932C161.537 290.679 160.191 289.584 158.55 288.532C153.5 285.29 147.862 279.228 143.948 272.702L142.518 270.387L143.527 269.04C145.716 266.093 148.956 260.956 150.639 257.757C151.565 255.946 152.406 254.431 152.49 254.431C152.575 254.431 153.164 255.904 153.795 257.673C155.141 261.588 158.087 267.44 160.107 270.26C161.369 272.029 161.579 272.155 161.579 271.313C161.579 270.766 160.78 269.04 159.812 267.524C155.31 260.367 151.817 249.505 150.26 237.801C149.377 231.065 149.334 231.192 151.943 228.455C153.206 227.108 154.889 225.087 155.688 223.993L157.119 221.972L159.349 224.203L161.579 226.392V220.54V214.646L158.718 211.657C157.161 210.015 154.973 207.068 153.837 205.174L151.733 201.722L152.701 201.006L153.627 200.29L152.575 198.017C151.438 195.575 151.228 194.649 151.859 194.649C152.07 194.649 153.29 193.681 154.594 192.502L156.909 190.397L157.961 192.628C159.307 195.407 161.537 198.185 161.579 197.049C161.579 196.585 161.201 195.701 160.738 195.07C158.718 192.207 157.666 189.176 157.456 185.303C157.329 182.735 157.077 181.472 156.698 181.303C156.404 181.177 155.057 182.019 153.711 183.113C149.797 186.313 147.399 187.239 142.391 187.408L138.141 187.576L137.847 186.103C137.468 183.998 138.268 179.324 139.53 176.672C140.119 175.409 141.634 173.304 142.896 171.957C145.716 168.884 145.631 168.126 142.433 168.126C137.805 168.126 132.671 165.81 129.431 162.19C127.874 160.464 127.579 159.916 127.916 159.285C128.674 157.896 131.872 155.412 134.649 154.107C136.921 153.012 138.015 152.759 141.255 152.633C145.968 152.423 146.263 152.002 143.99 149.223C140.624 145.139 139.277 141.645 139.277 136.93C139.277 132.93 139.404 132.762 141.971 132.762C146.852 132.762 151.901 134.909 155.099 138.319C156.109 139.414 157.161 140.34 157.372 140.34C157.624 140.34 157.792 139.203 157.792 137.814C157.792 134.193 158.508 131.457 160.149 128.762C160.948 127.415 161.579 125.942 161.579 125.436C161.579 124.594 161.537 124.594 160.696 125.605C160.233 126.194 159.391 127.584 158.76 128.762C158.171 129.899 157.624 130.952 157.54 131.036C157.456 131.12 156.488 130.362 155.394 129.352C153.122 127.247 153.079 127.036 154.721 123.374L155.857 120.848L154.51 119.753L153.206 118.616L155.057 115.838C156.067 114.322 157.961 111.922 159.223 110.533L161.579 108.007V102.197V96.3875L159.896 98.0294C158.971 98.9135 158.171 99.5871 158.087 99.4608C158.003 99.3766 157.329 98.4082 156.614 97.3558C155.899 96.2612 154.3 94.3246 153.122 92.9774L150.933 90.5777L151.396 86.3256C152.617 75.8848 156.32 63.7599 160.359 56.9398C161.032 55.8031 161.579 54.3296 161.579 53.6981C161.537 51.551 158.55 57.1503 154.805 66.2439C154.384 67.17 154.216 66.9596 152.07 62.8759C150.807 60.4341 148.619 56.7714 147.23 54.7085L144.706 51.0037L145.968 49.025C149.587 43.4257 155.268 37.1949 159.349 34.3741C161.327 33.0269 162.253 31.7219 161.201 31.7219C160.443 31.7219 155.268 36.0161 152.07 39.3841C149.082 42.4995 144.748 48.0988 144.201 49.5302C144.075 49.8249 142.938 48.8987 141.676 47.5094C138.015 43.5519 137.468 39.2157 140.119 35.8477C141.129 34.6267 141.381 33.869 141.381 32.2692C141.381 29.1537 142.77 27.0909 145.505 26.0384C147.399 25.3227 147.693 25.028 147.693 24.0597C147.693 22.3756 149.334 20.7338 151.27 20.3969C152.743 20.1865 152.953 19.976 153.206 18.6709C153.542 17.071 154.468 16.2291 156.193 15.8502C157.035 15.6818 157.456 15.2187 157.834 14.1662C158.087 13.3662 159.055 11.9348 159.938 10.9666L161.622 9.24045L161.495 4.90414L161.369 0.525757L159.055 2.88336ZM119.711 34.0374C131.451 37.0685 143.57 48.8145 151.901 65.2335C153.921 69.1487 153.963 69.2751 153.374 70.8749C152.617 73.0641 151.144 79.8843 150.428 84.7258C150.092 86.915 149.713 88.7673 149.629 88.8937C149.503 88.9779 148.409 88.2201 147.23 87.1255C144.706 84.8521 139.109 81.063 136.248 79.6738L134.312 78.7476L135.406 76.5163C136.5 74.285 136.458 73.2746 135.364 74.2008C135.027 74.4534 134.438 75.4217 134.018 76.3479C133.176 78.2424 133.176 78.2424 131.156 77.4004C130.315 77.0636 129.221 76.7689 128.758 76.7689C127.243 76.7689 127.874 77.5267 130.02 78.2424C131.156 78.6213 132.208 79.0844 132.334 79.2949C132.419 79.4633 132.04 81.021 131.493 82.705C130.188 86.494 128.758 93.3142 128.758 95.6718C128.758 96.6401 128.631 97.3979 128.463 97.3979C128.253 97.3979 126.612 96.177 124.76 94.6614C122.909 93.1879 119.248 90.5777 116.681 88.8937L111.926 85.8204L110.874 82.4524C105.235 64.3073 106.498 45.4044 114.03 35.174C115.545 33.1953 115.966 33.0691 119.711 34.0374ZM71.4879 48.1409C73.1711 48.8987 73.4235 48.9408 74.0547 48.3513C74.9805 47.5094 76.7899 47.5515 78.3047 48.4355C79.4409 49.1092 79.525 49.1092 80.2825 48.3935C81.7132 47.1305 83.7329 47.0883 85.5003 48.2672C86.8047 49.1512 87.1414 49.2354 87.8146 48.8145C90.129 47.2147 93.2008 47.7198 96.0622 50.2458C97.3666 51.3826 98.3344 51.9298 99.2181 51.9298C100.901 51.9298 103.047 53.4875 104.688 55.8873C105.951 57.7818 106.035 58.1606 106.035 61.4865C106.035 64.7282 105.951 65.0229 105.32 64.7704C104.899 64.644 102.753 64.0967 100.565 63.6337C94.5894 62.2865 84.4062 62.3286 79.6513 63.6758L76.2008 64.644L75.1488 67.8437C74.5597 69.654 73.8864 72.2221 73.676 73.5693C73.0448 77.0215 73.129 86.7887 73.8023 90.8724C74.1389 92.7248 74.3493 94.2825 74.3072 94.3246C74.2651 94.3667 72.7924 94.2825 70.9829 94.1562C68.2899 93.9457 67.3641 93.6931 65.8493 92.6827C63.577 91.1671 62.1463 88.9358 62.0201 86.8307C61.978 85.9046 61.5151 84.7258 60.8839 83.8417C58.275 80.4737 57.8542 78.0319 59.3691 75.548L60.2528 74.1166L59.327 72.4747C58.3171 70.6223 58.4013 69.3593 59.7899 67.4227C60.5894 66.3281 60.5894 66.1597 60.0003 65.3177C59.0745 64.0125 59.1587 62.3707 60.1686 61.3181C60.926 60.4762 60.926 60.3078 60.379 58.9185C60.0424 58.1186 59.7478 56.3083 59.7478 54.8769C59.7478 52.5613 59.874 52.2245 61.3468 50.5826C62.1884 49.6565 63.4929 48.5197 64.1661 48.0566C65.8493 47.0463 69.1315 47.0883 71.4879 48.1409ZM100.144 64.7282C101.869 65.1071 103.973 65.6124 104.773 65.8228L106.287 66.2439L106.792 69.9908C107.213 73.3167 109.275 81.9893 110.075 84.0522C110.327 84.7258 110.075 84.6837 108.139 83.7154C102.795 81.021 95.9359 78.7897 91.1389 78.2003L88.6562 77.9056L88.9087 81.6525C89.2032 85.9046 90.7602 92.4301 92.5696 96.7243C93.2429 98.3241 93.7899 99.7134 93.7057 99.7555C93.6636 99.7976 90.9285 98.9556 87.6884 97.861C84.4062 96.7664 80.3666 95.6297 78.7255 95.2929L75.78 94.7456L75.3171 92.5984C73.6339 84.389 73.9706 75.4217 76.2429 68.433C77.1686 65.444 77.379 65.3177 82.0498 64.3073C85.6265 63.5495 95.8518 63.8021 100.144 64.7282ZM97.6191 80.8526C104.941 82.9155 115.755 89.02 124.381 95.9244L128.211 98.9977L128.463 103.166C128.631 105.481 128.884 108.175 129.01 109.228L129.263 111.08L124.592 111.122L119.921 111.165L119.879 106.702C119.795 100.808 119.374 96.7243 118.869 96.8927C118.617 96.9348 118.49 99.4608 118.617 103.797L118.785 110.575L116.723 110.323C106.456 109.017 104.31 108.975 105.446 109.986C105.656 110.196 108.896 110.701 112.683 111.08C119.248 111.838 119.542 111.88 119.332 112.722C119.248 113.227 118.995 115.29 118.869 117.311L118.575 121.016L117.228 120.721C116.513 120.553 113.862 120.132 111.295 119.753L106.666 119.079L103.005 113.606C95.3889 102.366 90.0448 88.8937 90.0448 81.1894V79.2528L92.0646 79.5475C93.1587 79.6738 95.6414 80.2632 97.6191 80.8526ZM141.424 84.2206C146.978 87.9254 152.154 92.9774 155.983 98.5346L157.498 100.724L155.604 102.955C153.037 106.028 151.438 108.428 149.587 112.133C148.745 113.859 147.988 115.332 147.904 115.417C147.862 115.459 145.8 114.869 143.359 114.027C140.919 113.227 137.047 112.217 134.733 111.838L130.525 111.165L130.02 106.912C129.389 102.071 129.683 95.1245 130.693 90.283C131.282 87.3781 133.218 80.8105 133.681 80.0106C133.891 79.6317 137.342 81.4841 141.424 84.2206ZM74.3493 95.9665C79.6092 96.7243 85.2057 98.1978 90.5919 100.176L94.6735 101.734L96.6513 105.523C97.7453 107.628 100.102 111.543 101.869 114.196L105.151 119.079L101.28 119.374C96.2305 119.753 92.9483 120.342 88.5721 121.605C84.4062 122.826 84.1537 122.868 84.1537 122.068C84.1537 121.395 83.1438 120.469 82.7651 120.805C82.6389 120.932 82.681 121.563 82.8914 122.237C83.1859 123.247 83.0597 123.458 82.2181 123.879C80.7874 124.51 80.9557 125.226 82.4706 125.1C83.6909 124.973 83.8171 125.142 84.9532 127.752C86.5523 131.541 89.624 136.635 92.3592 140.003L94.6315 142.824L92.8641 143.034C86.0894 143.918 81.3344 144.676 78.1785 145.434L74.5597 146.276L71.9087 144.929C62.5671 140.214 52.7627 132.299 47.4607 125.184C42.6636 118.7 40.4755 113.48 40.0968 107.291L39.8443 103.46L42.1166 101.734C49.9854 95.756 60.2107 93.9035 74.3493 95.9665ZM142.854 120.89C144.495 121.311 145.758 121.858 145.716 122.068C145.295 124.51 145.421 124.973 146.389 125.394C146.978 125.605 148.409 126.278 149.545 126.868L151.691 127.92L151.565 130.657C151.48 132.172 151.354 133.435 151.27 133.52C151.228 133.604 149.966 133.225 148.493 132.72C145.421 131.667 139.656 131.373 138.815 132.215C137.973 133.057 137.847 138.572 138.604 141.561C138.983 142.992 139.277 144.339 139.277 144.466C139.277 144.634 137.763 144.76 135.869 144.76C132.124 144.76 132.04 144.718 131.072 141.392C130.609 139.919 130.399 139.708 129.473 139.835C128.505 139.919 128.337 139.708 127.958 138.361C126.528 132.93 126.317 125.731 127.495 121.732C127.874 120.427 128.169 120.132 129.305 120.006C132.166 119.585 139.951 120.09 142.854 120.89ZM111.716 120.974C113.357 121.226 115.545 121.605 116.639 121.858L118.575 122.321L118.869 125.731C119.248 130.194 120.131 134.783 121.394 138.361L122.404 141.266L120.847 141.898C116.933 143.455 112.178 146.108 109.149 148.381C107.297 149.728 105.698 150.823 105.53 150.739C105.362 150.696 103.721 149.433 101.827 147.918C97.9136 144.845 94.0424 140.592 90.8864 135.919C88.7404 132.72 84.9953 125.479 84.9953 124.51C84.9953 123.837 90.4235 122.068 94.6735 121.395C96.3988 121.142 98.124 120.848 98.4607 120.763C100.018 120.469 109.065 120.595 111.716 120.974ZM152.07 124.173C152.827 124.468 152.911 125.1 152.364 125.984C151.817 126.868 150.218 125.857 150.513 124.763C150.765 123.879 151.018 123.752 152.07 124.173ZM155.226 130.825L157.035 132.678L156.74 135.035C156.572 136.34 156.32 137.393 156.151 137.393C156.025 137.393 155.183 136.719 154.342 135.919C152.827 134.488 152.743 134.32 152.743 131.709C152.743 130.194 152.911 128.973 153.079 128.973C153.248 128.973 154.216 129.815 155.226 130.825ZM49.5226 130.783C50.7008 131.246 55.8344 135.583 55.4978 135.835C55.4136 135.919 53.3938 137.224 51.0374 138.824C45.9458 142.15 40.0968 147.749 37.3196 151.959C34.2899 156.59 34.2478 156.675 36.1414 160.295C37.025 161.979 38.582 164.505 39.6339 165.852C42.2429 169.22 47.9656 174.693 51.4582 177.177C53.0572 178.272 54.1933 179.324 53.983 179.493C48.5127 184.082 48.8914 183.871 45.8617 184.04C42.7478 184.208 40.3072 183.408 39.5077 181.977C39.2132 181.387 38.624 181.177 37.1933 181.177C33.7429 181.177 30.7132 179.072 30.082 176.167C29.8716 175.114 29.5349 174.82 28.3567 174.609C26.4632 174.272 24.8221 172.294 24.8221 170.399C24.8221 169.136 24.6958 168.968 23.7701 168.968C22.3815 168.968 20.6141 167.2 20.6141 165.81C20.6141 165.01 20.3196 164.632 19.478 164.295C15.9013 162.948 13.8815 160.169 13.8815 156.633C13.8815 152.507 15.733 149.981 19.6042 148.634C20.9508 148.17 21.2874 147.792 21.4978 146.655C21.8344 144.971 22.8443 144.129 24.4433 144.129C25.4112 144.129 25.5795 143.918 25.832 142.487C26.1265 140.508 28.1042 138.656 29.8716 138.656C30.8394 138.656 31.1339 138.445 31.3443 137.393C31.9755 134.446 34.5844 132.762 38.4136 132.762C40.181 132.762 40.8542 132.551 41.4854 131.878C41.9062 131.373 42.6636 130.825 43.1265 130.615C44.3889 130.11 47.9656 130.194 49.5226 130.783ZM61.0523 139.835C62.7775 141.098 66.0176 143.118 68.2899 144.381C70.5201 145.644 72.3716 146.781 72.3716 146.823C72.3716 146.907 70.8988 147.497 69.1315 148.128C62.0201 150.612 52.7206 156.296 53.2676 157.769C53.983 159.706 64.082 166.105 69.5102 168.168L72.0349 169.094L66.228 172.083C62.9879 173.725 59.2849 175.788 57.9384 176.63C56.6339 177.514 55.4136 178.23 55.2874 178.23C54.6141 178.23 48.9334 173.767 45.6933 170.652C41.6958 166.779 38.9607 163.284 37.025 159.453L35.8047 157.011L37.0671 154.654C39.8443 149.391 46.6191 142.824 53.6463 138.445C56.0028 137.014 56.7181 136.719 57.2651 137.14C57.6438 137.393 59.3691 138.614 61.0523 139.835ZM98.629 146.781C100.27 148.255 102.332 149.981 103.174 150.612L104.73 151.791L101.532 155.075L98.2924 158.359L93.0325 153.559C90.129 150.907 87.6042 148.76 87.4359 148.76C86.3419 148.76 87.6463 150.36 91.9384 154.191C94.5894 156.59 96.7775 158.653 96.7775 158.822C96.7775 158.948 94.4211 160.969 91.5176 163.242C86.9731 166.821 85.7948 168.126 87.0151 168.126C87.1834 168.126 89.7924 166.147 92.78 163.705L98.2503 159.327L99.5127 160.885C100.186 161.727 101.575 163.326 102.584 164.379L104.352 166.358L102.164 167.747C100.943 168.547 98.8394 170.105 97.4508 171.241L95.0102 173.304L92.4854 173.009C85.6265 172.294 73.3394 168.757 66.8171 165.642C61.1364 162.948 54.3196 158.148 54.8666 157.222C55.3716 156.464 59.7478 153.601 63.0721 151.959C69.3839 148.76 80.8295 145.644 89.8344 144.634C95.6834 143.96 95.3047 143.876 98.629 146.781ZM131.072 144.971C131.198 145.181 131.114 145.392 130.904 145.392C130.651 145.392 130.441 145.181 130.441 144.971C130.441 144.718 130.525 144.55 130.609 144.55C130.735 144.55 130.946 144.718 131.072 144.971ZM140.624 146.823C140.877 147.244 141.718 148.339 142.56 149.265C143.359 150.149 143.948 150.949 143.864 151.033C143.78 151.117 142.307 151.286 140.666 151.37L137.594 151.581L135.953 149.812C135.07 148.844 134.102 147.665 133.849 147.16C133.26 146.065 133.891 145.813 137.552 145.981C139.614 146.065 140.287 146.234 140.624 146.823ZM128.674 147.581C131.409 146.402 131.872 146.402 132.755 147.749C133.134 148.339 134.102 149.56 134.859 150.402L136.29 152.002L133.723 153.222C131.03 154.485 126.233 158.695 126.233 159.79C126.233 160.969 130.735 165.431 133.26 166.779L135.743 168.084L133.302 170.652C130.651 173.473 130.483 173.515 127.411 171.789L125.854 170.947L125.097 171.873L124.339 172.799L121.183 170.652C117.27 167.957 114.03 164.842 111.842 161.685L110.159 159.243L111.884 157.011C114.282 153.77 118.49 150.36 122.993 147.876L125.097 146.739L125.812 147.623L126.528 148.507L128.674 147.581ZM108.013 169.641C111.337 172.504 115.713 175.367 118.911 176.841C120.721 177.64 121.183 178.061 120.973 178.609C118.617 184.334 117.228 189.428 116.723 194.102L116.471 196.67L112.347 197.217C107.171 197.848 99.1339 197.512 94.0424 196.375C89.6661 195.407 82.8914 193.049 82.8914 192.502C82.8914 191.744 85.5424 186.86 87.6463 183.703C90.2973 179.745 98.1661 171.831 102.037 169.263C103.678 168.21 105.025 167.284 105.109 167.284C105.151 167.284 106.456 168.336 108.013 169.641ZM141.339 169.347L143.401 169.599L141.255 171.915L139.151 174.23L136.164 174.146C134.565 174.062 133.05 173.851 132.839 173.641C132.587 173.388 133.302 172.336 134.775 170.862C136.753 168.884 137.3 168.547 138.226 168.799C138.815 168.926 140.203 169.178 141.339 169.347ZM78.4731 171.241C80.577 171.873 84.7429 172.883 87.7305 173.473C90.7602 174.062 93.2849 174.609 93.3691 174.693C93.4532 174.778 92.3592 176.125 90.9285 177.683C88.025 180.84 85.5003 184.461 83.0176 189.007C81.5448 191.786 81.3344 191.954 80.4508 191.576C79.1042 190.986 78.7255 191.618 79.8617 192.586C80.6612 193.217 80.7874 193.596 80.577 194.649C80.2404 196.291 81.4186 196.459 81.7973 194.817C82.0077 193.975 82.2602 193.807 82.8072 194.059C87.4359 196.038 94.7577 197.933 100.691 198.69C102.584 198.901 102.669 198.985 102.164 199.701C101.869 200.122 100.144 202.395 98.3344 204.795C96.4829 207.195 94.1265 210.647 93.0745 212.415C91.181 215.615 91.1389 215.657 88.4037 216.499C83.7329 217.972 79.1042 219.025 74.2651 219.74C67.8691 220.709 56.7602 220.372 51.9632 219.109C47.5869 217.972 42.5374 215.446 39.2552 212.752C36.7305 210.731 36.6042 210.521 36.6042 208.794C36.6042 207.826 36.983 205.553 37.4037 203.827C40.4334 191.997 51.2478 180.966 68.1636 172.42C71.0671 170.989 73.7181 169.852 74.0547 169.978C74.3914 170.062 76.4112 170.652 78.4731 171.241ZM130.188 174.904C130.062 175.114 129.768 175.199 129.557 175.03C129.347 174.904 129.263 174.609 129.431 174.399C129.557 174.188 129.852 174.104 130.062 174.272C130.273 174.399 130.357 174.693 130.188 174.904ZM137.089 175.535C138.352 175.746 138.478 175.872 138.226 176.672C137.089 180.251 136.753 182.145 136.753 184.84C136.753 187.408 136.879 187.955 137.552 188.334C138.899 189.05 145.127 188.839 147.567 187.955L149.755 187.239L149.881 190.607C149.966 192.502 149.881 194.186 149.713 194.396C149.587 194.607 148.409 195.112 147.188 195.533C145.211 196.207 144.958 196.417 144.958 197.427C144.916 198.48 144.706 198.648 142.854 199.196C139.867 199.996 130.777 200.332 127.832 199.743L125.433 199.238L125.139 197.301C124.676 194.27 125.265 185.892 126.107 182.861C126.822 180.251 126.948 180.124 128.253 179.998C128.968 179.914 129.599 179.661 129.599 179.451C129.599 179.198 130.02 178.061 130.483 176.925L131.409 174.862L133.555 175.072C134.733 175.199 136.332 175.409 137.089 175.535ZM154.216 191.155C152.911 192.375 151.691 193.386 151.48 193.386C151.228 193.386 151.06 191.786 151.06 189.807C151.06 187.829 151.228 186.229 151.438 186.229C151.649 186.229 152.743 185.471 153.837 184.587L155.899 182.945L156.235 185.934L156.572 188.965L154.216 191.155ZM150.639 196.08C150.639 196.207 150.471 196.417 150.218 196.543C150.008 196.67 149.797 196.585 149.797 196.375C149.797 196.122 150.008 195.912 150.218 195.912C150.471 195.912 150.639 195.996 150.639 196.08ZM116.428 202.606L116.471 207.153L109.359 207.531C100.06 208.037 99.8914 208.794 109.107 208.584C115.334 208.458 115.713 208.5 115.713 209.215C115.713 209.679 115.419 212.457 115.082 215.488C114.325 222.224 114.325 222.014 115.04 222.014C115.671 222.014 115.755 221.34 116.597 212.836L117.144 207.658L118.827 207.868C119.795 207.995 121.815 208.205 123.414 208.331C124.971 208.5 126.233 208.626 126.233 208.668C126.233 208.71 125.938 210.226 125.602 212.036C125.265 213.846 124.971 216.288 124.971 217.467C124.971 220.077 124.339 220.751 117.186 225.466C106.75 232.413 93.5795 237.591 86.3839 237.591H84.9112L85.2057 235.36C86.3839 226.645 91.7701 215.488 100.144 204.374L104.141 199.069L108.56 198.775C111 198.606 113.273 198.354 113.609 198.269C113.946 198.185 114.703 198.101 115.292 198.059L116.344 198.017L116.428 202.606ZM147.609 207.237C148.829 210.394 152.238 216.12 154.468 218.772C155.436 219.867 156.109 221.003 155.983 221.298C155.52 222.477 151.733 227.108 148.872 229.887C144.117 234.644 138.268 238.643 132.208 241.38C129.557 242.559 129.599 242.601 128.379 238.433C126.696 232.791 126.065 228.329 126.107 221.803C126.107 215.236 126.99 209.131 128 208.458C128.295 208.289 129.431 208.121 130.483 208.121C133.344 208.121 139.109 207.026 142.433 205.847C144.075 205.3 145.674 204.837 146.01 204.795C146.431 204.753 147.02 205.679 147.609 207.237ZM90.0448 217.551C90.0448 217.635 89.3295 219.277 88.4037 221.214C86.3839 225.677 85.1636 229.339 84.3641 233.549C83.3542 238.812 83.3542 238.854 85.7948 238.854C89.0349 238.854 94.379 237.675 99.4706 235.865C102.037 234.939 104.436 234.054 104.815 233.928C105.362 233.76 105.109 234.854 103.678 239.106C102.711 242.053 101.575 246.137 101.196 248.158L100.48 251.821L97.9136 252.326C91.0968 253.673 81.7552 253.547 76.0745 252.115C71.6562 250.937 71.3196 250.642 70.4359 247.19C69.2156 242.517 69.3839 231.318 70.7305 225.592L71.7404 221.424L75.5275 220.877C77.6315 220.582 81.5869 219.698 84.3641 218.898C89.9186 217.341 90.0448 217.299 90.0448 217.551ZM70.2676 221.888C70.2676 222.098 69.8889 224.035 69.426 226.224C67.7849 234.181 67.9112 243.527 69.7627 249.126C70.3518 250.894 70.7726 251.4 72.0349 252.031C76.6216 254.262 88.4458 255.147 96.1463 253.799C98.1661 253.42 99.9334 253.21 100.018 253.336C100.144 253.42 100.06 255.02 99.9334 256.831C99.681 259.693 99.4285 260.451 98.2082 262.135C96.5671 264.366 94.8419 265.419 92.5275 265.545C91.4334 265.587 90.5077 266.008 89.7503 266.724C87.0572 269.208 84.28 269.797 81.4607 268.366C79.9037 267.566 79.8617 267.566 78.431 268.408C76.7057 269.418 74.8122 269.208 73.3394 267.819C72.4557 266.977 72.3295 266.977 71.6141 267.608C70.6042 268.534 68.2478 268.534 67.28 267.65C66.5646 267.019 66.3542 267.019 64.5448 267.65C60.4632 269.04 58.1909 268.45 55.2453 265.251C52.7627 262.556 52.4681 260.367 54.1513 256.452C54.7404 255.02 54.7404 254.81 54.1092 253.841C53.2255 252.452 53.2676 250.979 54.2354 249.758C55.0349 248.789 55.0349 248.747 54.1513 247.526C53.0151 245.927 53.0151 243.822 54.1513 242.264L55.077 241.043L54.2354 239.443C53.8146 238.559 53.4359 237.422 53.4359 236.959C53.4359 235.612 55.4978 231.739 56.6339 230.981C57.3914 230.476 57.6438 229.971 57.6438 228.75C57.6438 226.729 59.0325 224.708 61.5993 222.94C63.4508 221.719 63.9136 221.593 66.9433 221.593C68.7948 221.593 70.2676 221.719 70.2676 221.888ZM124.928 226.94C125.349 230.939 125.896 233.507 128.169 242.053C128.379 242.769 128.169 243.022 127.327 243.232C125.686 243.653 125.938 244.495 127.664 244.201C128.842 243.99 129.136 244.116 129.557 245C130.188 246.432 130.988 246.306 130.651 244.79C130.399 243.569 130.483 243.527 133.933 241.885C138.057 239.948 142.223 237.338 145.716 234.475C147.062 233.381 148.24 232.539 148.282 232.623C148.367 232.707 148.703 235.107 149.124 238.012C149.503 240.917 150.302 245.337 150.933 247.863L152.027 252.452L150.891 254.726C150.302 255.989 148.745 258.725 147.441 260.83C137.721 276.828 125.391 286.385 113.104 287.521L109.99 287.774L108.181 285.753C105.951 283.227 103.342 277.965 102.164 273.586C100.817 268.619 100.817 256.578 102.164 250.01C103.174 244.874 104.646 239.738 106.287 235.444C107.297 232.749 107.466 232.581 109.948 231.234C113.567 229.339 119.29 225.761 121.983 223.74C123.245 222.772 124.339 222.056 124.381 222.14C124.424 222.182 124.676 224.371 124.928 226.94Z" fill="#8F2C5A"/>
</svg>
