<svg width="100" height="16" viewBox="0 0 100 16" fill="none" xmlns="http://www.w3.org/2000/svg">
<path id="Vector" d="M13.104 2.29162C14.7295 3.57691 15.8953 4.91454 16.9998 6.66662C17.2198 6.99662 17.4398 7.32662 17.6665 7.66662C17.8521 7.35724 18.0378 7.04787 18.229 6.72912C19.1304 5.48671 19.7819 4.84462 21.3071 4.53771C22.7257 4.41772 23.2038 4.5588 24.3332 5.49995C25.2338 6.77968 25.1722 7.80658 24.9998 9.33329C24.6665 10.1666 24.6665 10.1666 24.3332 10.6666C24.1132 10.6666 23.8932 10.6666 23.6665 10.6666C23.6523 11.222 23.653 11.7779 23.6665 12.3333C24.0471 12.7861 24.0471 12.7861 25.0623 12.75C26.4085 12.6617 27.1804 12.3414 28.3332 11.6666C28.065 11.426 27.7969 11.1854 27.5207 10.9375C26.6482 9.97981 26.3332 9.61085 26.3332 8.33329C26.8062 7.20327 27.1211 6.77019 28.229 6.22912C28.6106 6.11568 28.6106 6.11568 28.9998 5.99995C28.907 6.56714 28.907 6.56714 28.8123 7.14579C28.7642 7.53766 28.7161 7.92954 28.6665 8.33329C29.0143 8.74607 29.0143 8.74607 29.7707 8.79162C30.7515 8.75114 30.7515 8.75114 31.4373 7.83329C31.623 7.55829 31.8086 7.28329 31.9998 6.99995C31.7248 6.74558 31.4498 6.4912 31.1665 6.22912C30.3332 5.33329 30.3332 5.33329 30.3332 4.33329C30.7594 4.36079 31.1857 4.38829 31.6248 4.41662C32.9057 4.42461 33.7773 4.20058 34.9373 3.66662C37.1401 2.71378 39.3473 2.51487 41.6261 3.35282C42.8146 3.93582 43.8988 4.59929 44.9998 5.33329C45.1236 4.97235 45.1236 4.97235 45.2498 4.60412C45.9939 2.92994 46.9761 1.74688 48.6665 0.999953C50.0606 0.822523 50.7896 0.890622 52.0415 1.54162C53.3925 2.65764 54.3586 3.8714 55.3332 5.33329C55.6288 5.07204 55.9244 4.81079 56.229 4.54162C57.9705 3.00262 59.7101 2.86044 61.9595 2.88797C63.2866 3.03082 64.3082 3.48221 65.5103 4.03641C66.8802 4.53062 68.2314 4.44321 69.6665 4.33329C69.1248 6.24995 69.1248 6.24995 67.9998 6.99995C68.1622 7.68796 68.1622 7.68796 68.6665 8.33329C69.8539 8.60619 69.8539 8.60619 70.9998 8.66662C71.4024 7.45886 71.1809 7.11946 70.6665 5.99995C72.7121 6.71868 72.7121 6.71868 73.3332 7.66662C73.4998 8.81245 73.4998 8.81245 73.3332 9.99995C72.5207 10.7708 72.5207 10.7708 71.6665 11.3333C71.5565 11.5533 71.4465 11.7733 71.3332 12C72.8335 12.5854 74.0578 12.7594 75.6665 12.6666C75.8865 12.5566 76.1065 12.4466 76.3332 12.3333C76.1705 11.3165 75.8642 10.7884 75.2915 9.89579C74.7351 8.94402 74.6658 8.62587 74.6457 7.45829C75.0817 6.07339 75.4763 5.50229 76.6665 4.66662C77.9701 4.3901 79.0154 4.54384 80.2498 5.02079C81.2665 5.8962 81.7251 6.80638 82.3332 7.99995C82.4225 7.7864 82.5119 7.57284 82.604 7.35282C83.9978 4.27641 85.8506 2.49298 88.9907 1.23693C91.7467 0.270466 94.3307 0.569902 96.9998 1.66662C98.6481 2.60797 99.4842 3.84682 99.9998 5.66662C100.092 7.29199 99.8795 8.35336 98.9582 9.70829C97.9998 10.3333 97.9998 10.3333 96.7915 10.375C95.6665 9.99995 95.6665 9.99995 94.9998 9.24995C94.612 8.18339 94.5487 7.70992 94.9998 6.66662C95.8123 6.20829 95.8123 6.20829 96.6665 5.99995C96.8865 6.10995 97.1065 6.21995 97.3332 6.33329C97.3332 6.55329 97.3332 6.77329 97.3332 6.99995C97.5532 6.99995 97.7732 6.99995 97.9998 6.99995C97.2727 4.99384 97.2727 4.99384 95.6665 3.66662C94.6615 3.33163 93.9859 3.29884 92.9373 3.31245C92.637 3.31546 92.3366 3.31847 92.0272 3.32157C91.6836 3.32737 91.6836 3.32737 91.3332 3.33329C91.4432 3.66329 91.5532 3.99329 91.6665 4.33329C91.7172 4.54684 91.7679 4.7604 91.8202 4.98042C92.0039 5.68211 92.2588 6.31189 92.5415 6.97912C92.978 8.1072 93.0709 8.82344 92.6665 9.99995C92.5221 9.80058 92.3778 9.6012 92.229 9.39579C91.558 8.52595 90.9881 7.82742 89.9998 7.33329C88.4522 7.20431 87.6478 7.17598 86.2498 7.87495C84.7653 9.15703 84.0144 10.6283 83.1873 12.375C82.3428 14.0898 81.5061 14.9135 79.7915 15.7708C75.8336 16.577 72.4741 14.7859 69.0623 13.0208C68.8508 12.9129 68.6393 12.805 68.4214 12.6939C66.8237 11.8425 65.6599 10.7975 64.4998 9.39579C63.785 8.82983 63.2165 8.92833 62.3332 8.99995C62.5188 8.53589 62.5188 8.53589 62.7082 8.06245C62.8044 7.71183 62.9007 7.3612 62.9998 6.99995C62.6698 6.50495 62.6698 6.50495 62.3332 5.99995C60.8377 5.76987 60.1781 5.88557 58.8957 6.70829C57.8518 7.82499 57.3332 8.78675 57.3332 10.3333C57.7594 10.3883 58.1857 10.4433 58.6248 10.5C58.9845 10.5464 58.9845 10.5464 59.3514 10.5937C60.0015 10.679 60.0015 10.679 60.6665 10.6666C60.7765 10.2266 60.8865 9.78662 60.9998 9.33329C61.2198 9.44329 61.4398 9.55329 61.6665 9.66662C61.8279 11.7641 61.8279 11.7641 61.1248 12.7916C60.187 13.4333 59.4554 13.5646 58.3332 13.6666C58.4432 13.8866 58.5532 14.1066 58.6665 14.3333C58.364 14.2783 58.0615 14.2233 57.7498 14.1666C56.6295 13.9662 56.6295 13.9662 55.3332 14C54.5554 14 53.7776 14 52.9998 14C52.8898 13.78 52.7798 13.56 52.6665 13.3333C52.9965 13.1133 53.3265 12.8933 53.6665 12.6666C53.5565 12.0066 53.4465 11.3466 53.3332 10.6666C53.1561 10.9794 52.9791 11.2922 52.7967 11.6145C52.5591 12.0209 52.3213 12.4272 52.0832 12.8333C51.9672 13.04 51.8511 13.2466 51.7316 13.4596C51.38 14.052 51.38 14.052 50.6665 15C50.2265 15 49.7865 15 49.3332 15C48.7772 14.3906 48.7772 14.3906 48.2707 13.5833C48.0161 13.1888 48.0161 13.1888 47.7563 12.7864C47.3688 12.0661 47.1519 11.4655 46.9998 10.6666C46.7798 10.6666 46.5598 10.6666 46.3332 10.6666C46.1973 12.0857 46.1973 12.0857 46.8332 13.2916C47.0807 13.4772 47.0807 13.4772 47.3332 13.6666C46.9998 14 46.9998 14 45.854 14.0625C44.6665 14 44.6665 14 43.9998 13.3333C43.6183 13.5911 43.6183 13.5911 43.229 13.8541C42.9334 14.0122 42.6378 14.1704 42.3332 14.3333C41.8382 14.1683 41.8382 14.1683 41.3332 14C41.3332 13.89 41.3332 13.78 41.3332 13.6666C41.0307 13.591 40.7282 13.5154 40.4165 13.4375C39.1563 12.9285 38.6798 12.5028 37.9998 11.3333C38.0415 10.4166 38.0415 10.4166 38.3332 9.66662C38.6632 9.50162 38.6632 9.50162 38.9998 9.33329C39.1648 9.99329 39.1648 9.99329 39.3332 10.6666C40.8087 10.7683 40.8087 10.7683 42.1248 10.1666C42.3036 10.0016 42.4823 9.83662 42.6665 9.66662C42.1547 8.17385 41.4637 6.73186 39.9998 5.99995C39.542 5.97697 39.0832 5.97173 38.6248 5.97912C37.9855 5.98943 37.9855 5.98943 37.3332 5.99995C37.0517 7.12601 36.9637 7.8915 37.3332 8.99995C37.0827 8.97116 36.8322 8.94237 36.5741 8.91271C35.6335 8.90677 35.6335 8.90677 35.061 9.59761C34.869 9.86101 34.6769 10.1244 34.479 10.3958C33.1619 11.9808 31.9229 12.5954 30.009 13.2929C29.035 13.6536 28.1476 14.0801 27.229 14.5625C24.754 15.8098 22.7306 16.277 19.9998 15.6666C17.8543 14.6546 16.9662 12.9103 15.9295 10.8737C15.0793 9.23006 14.4293 8.113 12.6665 7.33329C11.6207 7.14078 10.7084 7.10604 9.6665 7.33329C8.68699 8.06263 8.68699 8.06263 7.99984 8.99995C7.6665 9.33329 7.33317 9.66662 6.99984 9.99995C6.89382 8.23303 7.12819 7.20072 7.99984 5.66662C8.40344 4.63148 8.40344 4.63148 8.33317 3.33329C6.36632 3.21527 5.07936 3.31113 3.33317 4.33329C3.11317 4.33329 2.89317 4.33329 2.6665 4.33329C2.5565 5.10329 2.4465 5.87329 2.33317 6.66662C2.58755 6.54287 2.84192 6.41912 3.104 6.29162C3.39963 6.19537 3.69525 6.09912 3.99984 5.99995C4.32984 6.21995 4.65984 6.43995 4.99984 6.66662C5.25824 8.9922 5.25824 8.9922 4.479 10.0208C3.27541 10.4837 2.56092 10.3727 1.33317 9.99995C0.338508 8.95428 -0.0804605 8.08929 -0.145996 6.66662C-0.0397285 4.86693 0.614357 3.73757 1.854 2.43745C5.21186 -0.151938 9.59873 0.307499 13.104 2.29162ZM1.62484 3.58329C0.827766 4.96488 0.666504 5.73646 0.666504 7.33329C1.1039 8.39226 1.41557 8.84939 2.39567 9.43745C2.59505 9.51308 2.79442 9.5887 2.99984 9.66662C3.71506 9.09043 3.71506 9.09043 4.33317 8.33329C4.2877 7.59376 4.2877 7.59376 3.99984 6.99995C2.97499 7.25875 2.97499 7.25875 2.33317 7.99995C1.6665 6.99995 1.6665 6.99995 1.68734 5.85412C2.06372 4.42387 2.41406 4.08475 3.6665 3.33329C5.38027 2.57604 7.15223 2.47204 8.99984 2.33329C8.88984 2.00329 8.77984 1.67329 8.6665 1.33329C6.20592 1.11457 3.37343 1.72286 1.62484 3.58329ZM91.3332 1.33329C91.2232 1.66329 91.1132 1.99329 90.9998 2.33329C91.4285 2.38227 91.4285 2.38227 91.8657 2.43224C94.0975 2.72411 95.8312 2.99852 97.6665 4.33329C98.0353 5.07094 98.0651 5.51553 98.0832 6.33329C98.0918 6.56704 98.1004 6.80079 98.1092 7.04162C98.0731 7.24787 98.037 7.45412 97.9998 7.66662C97.6698 7.88662 97.3398 8.10662 96.9998 8.33329C96.8898 7.89329 96.7798 7.45329 96.6665 6.99995C96.3365 7.10995 96.0065 7.21995 95.6665 7.33329C95.7293 8.14822 95.7293 8.14822 95.9998 8.99995C96.6557 9.45335 96.6557 9.45335 97.3332 9.66662C98.5358 8.58838 98.5358 8.58838 99.3332 7.20829C99.3332 5.5555 98.6148 4.36444 97.6248 3.08329C95.7296 1.60005 93.6999 1.18222 91.3332 1.33329ZM8.99984 2.33329C9.21984 2.55329 9.43984 2.77329 9.6665 2.99995C9.4465 3.43995 9.2265 3.87995 8.99984 4.33329C9.43984 4.55329 9.87984 4.77329 10.3332 4.99995C9.8588 5.27839 9.8588 5.27839 9.37484 5.56245C8.30357 6.35519 8.01462 6.74673 7.6665 7.99995C8.03775 7.7937 8.409 7.58745 8.7915 7.37495C9.00033 7.25894 9.20916 7.14292 9.42432 7.02339C10.0536 6.66363 10.0536 6.66363 10.6665 5.99995C11.341 5.98433 11.341 5.98433 12.1248 6.08329C12.3818 6.1125 12.6387 6.14172 12.9035 6.17183C13.6927 6.33884 14.2977 6.60879 14.9998 6.99995C14.5341 5.24058 13.42 4.36288 11.9998 3.33329C10.5847 2.51189 10.5847 2.51189 8.99984 2.33329ZM86.3332 4.66662C85.7281 5.30932 85.2026 5.96304 84.6665 6.66662C85.6748 6.72669 85.6748 6.72669 86.5832 6.31245C87.8911 5.93517 88.6842 5.99839 89.9998 6.33329C90.979 7.02079 90.979 7.02079 91.6665 7.66662C91.7765 7.44662 91.8865 7.22662 91.9998 6.99995C90.9414 5.85802 90.9414 5.85802 89.6665 4.99995C90.1065 4.77995 90.5465 4.55995 90.9998 4.33329C90.741 3.30844 90.741 3.30844 89.9998 2.66662C88.4249 2.66662 87.4927 3.665 86.3332 4.66662ZM36.9998 3.99995C38.2098 3.99995 39.4198 3.99995 40.6665 3.99995C38.9502 3.14181 38.7161 3.14181 36.9998 3.99995ZM49.6665 3.66662C49.6665 3.88662 49.6665 4.10662 49.6665 4.33329C49.8865 4.22329 50.1065 4.11329 50.3332 3.99995C50.1132 3.88995 49.8932 3.77995 49.6665 3.66662ZM59.3332 3.99995C60.5432 3.99995 61.7532 3.99995 62.9998 3.99995C62.9998 3.88995 62.9998 3.77995 62.9998 3.66662C61.1182 3.30104 61.1182 3.30104 59.3332 3.99995ZM33.3332 4.99995C32.67 5.13022 32.0038 5.24946 31.3332 5.33329C31.4432 5.66329 31.5532 5.99329 31.6665 6.33329C32.3894 6.16461 32.9997 6.00001 33.6665 5.66662C33.5565 6.10662 33.4465 6.54662 33.3332 6.99995C34.1032 6.66995 34.8732 6.33995 35.6665 5.99995C35.5531 6.29902 35.5531 6.29902 35.4373 6.60412C35.3858 6.96506 35.3858 6.96506 35.3332 7.33329C35.7847 7.92392 35.7847 7.92392 36.3332 8.33329C36.3736 8.14465 36.414 7.95602 36.4556 7.76167C36.5114 7.51718 36.5673 7.27269 36.6248 7.02079C36.679 6.77715 36.7331 6.53352 36.7889 6.2825C36.9998 5.66662 36.9998 5.66662 37.6665 5.33329C38.4361 5.32324 39.1996 5.35546 39.9686 5.38667C40.7407 5.40379 40.7407 5.40379 41.3332 4.66662C38.5497 3.7388 35.9724 3.79611 33.3332 4.99995ZM61.1457 4.12495C60.6603 4.15976 60.6603 4.15976 60.1652 4.19527C59.2776 4.25961 59.2776 4.2596 58.6665 4.99995C59.6715 5.33494 60.3471 5.36774 61.3957 5.35412C61.696 5.35111 61.9964 5.3481 62.3058 5.34501C62.6494 5.3392 62.6494 5.3392 62.9998 5.33329C63.1098 6.32329 63.2198 7.31329 63.3332 8.33329C63.7732 7.89329 64.2132 7.45329 64.6665 6.99995C64.5565 6.66995 64.4465 6.33995 64.3332 5.99995C64.9932 6.21995 65.6532 6.43995 66.3332 6.66662C66.4432 6.44662 66.5532 6.22662 66.6665 5.99995C67.1065 6.10995 67.5465 6.21995 67.9998 6.33329C68.2198 6.00329 68.4398 5.67329 68.6665 5.33329C68.4414 5.2929 68.2162 5.2525 67.9842 5.21089C67.5382 5.1271 67.5382 5.1271 67.0832 5.04162C66.7893 4.98748 66.4954 4.93334 66.1926 4.87756C65.374 4.67663 64.7484 4.37425 63.9998 3.99995C63.0397 3.99995 62.1028 4.05103 61.1457 4.12495ZM51.6665 4.99995C51.9998 5.66662 51.9998 5.66662 51.9998 5.66662L51.6665 4.99995ZM18.7498 7.04162C17.9654 8.84582 17.8167 10.3792 18.3748 12.2708C19.2292 13.7231 20.0696 14.4676 21.6665 15C22.4442 15.0131 23.2222 15.0146 23.9998 15C23.732 14.2743 23.732 14.2743 23.0246 14.0963C22.762 14.0233 22.4995 13.9502 22.229 13.875C20.9501 13.4744 20.1739 13.0858 19.3332 12C18.8632 11.0599 18.918 10.3766 18.9998 9.33329C19.4202 8.40852 19.7701 7.83889 20.5832 7.22912C21.6227 6.91149 22.5873 6.95844 23.6665 6.99995C23.7765 7.65995 23.8865 8.31995 23.9998 8.99995C24.1098 8.99995 24.2198 8.99995 24.3332 8.99995C24.473 7.33131 24.473 7.33131 23.7915 5.85412C21.8841 4.59924 20.1013 5.40053 18.7498 7.04162ZM47.6665 5.33329C47.9998 5.99995 47.9998 5.99995 47.9998 5.99995L47.6665 5.33329ZM76.229 5.87495C75.5624 6.81315 75.4364 7.53102 75.3332 8.66662C75.5601 8.38474 75.7869 8.10287 76.0207 7.81245C76.9998 6.99995 76.9998 6.99995 78.1873 6.95829C79.5667 7.4097 79.9864 7.72131 80.6665 8.99995C80.9339 10.3647 80.8191 11.3544 80.2082 12.6041C79.1098 13.5194 78.0909 13.7796 76.7147 14.108C76.4788 14.1824 76.2429 14.2567 75.9998 14.3333C75.8898 14.5533 75.7798 14.7733 75.6665 15C77.8113 15.1505 78.913 14.9387 80.6665 13.6666C81.8834 12.3713 81.833 10.9184 81.785 9.22001C81.5756 7.65299 80.7893 6.78943 79.7082 5.70829C78.4221 5.02744 77.4212 5.03722 76.229 5.87495ZM51.9998 5.99995C52.3332 7.33329 52.3332 7.33329 52.3332 7.33329L51.9998 5.99995ZM49.3332 6.33329C48.445 7.44344 48.2125 8.2591 48.3332 9.66662C48.5532 9.66662 48.7732 9.66662 48.9998 9.66662C49.2198 10.1066 49.4398 10.5466 49.6665 11C50.7483 10.7576 50.7483 10.7576 51.2498 9.72912C51.7273 8.74258 51.7273 8.74258 51.604 7.93745C51.3124 7.24232 51.3124 7.24232 50.6665 6.33329C50.2265 6.33329 49.7865 6.33329 49.3332 6.33329ZM47.3332 6.99995C47.3332 7.65995 47.3332 8.31995 47.3332 8.99995C47.4432 8.99995 47.5532 8.99995 47.6665 8.99995C47.6665 8.33995 47.6665 7.67995 47.6665 6.99995C47.5565 6.99995 47.4465 6.99995 47.3332 6.99995ZM19.9998 8.33329C19.3014 9.33111 19.2665 10.1334 19.3332 11.3333C19.5532 11.0033 19.7732 10.6733 19.9998 10.3333C20.3298 10.6633 20.6598 10.9933 20.9998 11.3333C21.5498 11.1133 22.0998 10.8933 22.6665 10.6666C22.4465 10.3366 22.2265 10.0066 21.9998 9.66662C21.9165 8.81245 21.9165 8.81245 21.9998 7.99995C22.2198 7.77995 22.4398 7.55995 22.6665 7.33329C21.4487 7.33329 20.9797 7.62976 19.9998 8.33329ZM27.6665 7.33329C26.916 8.25152 26.916 8.25152 27.0207 9.18745C27.2626 10.0738 27.2626 10.0738 28.1457 10.4583C28.9895 10.7616 28.9895 10.7616 29.6665 10.3333C29.3365 10.9933 29.0065 11.6533 28.6665 12.3333C29.4365 12.3333 30.2065 12.3333 30.9998 12.3333C30.8898 12.1133 30.7798 11.8933 30.6665 11.6666C31.4365 11.1166 32.2065 10.5666 32.9998 9.99995C32.8898 9.77995 32.7798 9.55995 32.6665 9.33329C32.0065 9.66329 32.0065 9.66329 31.3332 9.99995C31.8832 9.44995 32.4332 8.89995 32.9998 8.33329C32.8898 8.11329 32.7798 7.89329 32.6665 7.66662C32.3846 7.94849 32.1028 8.23037 31.8123 8.52079C30.8583 9.33138 30.728 9.33626 29.3748 9.27079C28.8592 9.13672 28.8592 9.13672 28.3332 8.99995C28.2232 8.44995 28.1132 7.89995 27.9998 7.33329C27.8898 7.33329 27.7798 7.33329 27.6665 7.33329ZM44.6665 7.33329C44.9998 7.99995 44.9998 7.99995 44.9998 7.99995L44.6665 7.33329ZM71.9998 7.33329C71.8967 7.60141 71.7936 7.86954 71.6873 8.14579C71.3332 8.99995 71.3332 8.99995 70.9998 9.33329C69.6422 9.20521 68.5113 9.04014 67.3332 8.33329C67.5532 8.77329 67.7732 9.21329 67.9998 9.66662C67.4498 9.33662 66.8998 9.00662 66.3332 8.66662C66.7096 9.68293 67.2113 10.2151 68.0415 10.875C68.3578 11.1362 68.674 11.3975 68.9998 11.6666C68.9998 11.8866 68.9998 12.1066 68.9998 12.3333C69.6598 12.3333 70.3198 12.3333 70.9998 12.3333C70.7798 11.7833 70.5598 11.2333 70.3332 10.6666C70.6494 10.5841 70.9657 10.5016 71.2915 10.4166C72.3402 10.0964 72.3402 10.0964 72.8332 9.37495C73.0745 8.6491 73.0745 8.6491 72.7082 7.91662C72.5844 7.72412 72.4607 7.53162 72.3332 7.33329C72.2232 7.33329 72.1132 7.33329 71.9998 7.33329ZM54.9998 7.66662C55.3332 8.33329 55.3332 8.33329 55.3332 8.33329L54.9998 7.66662ZM77.9998 7.66662C78.0136 7.97599 78.0273 8.28537 78.0415 8.60412C77.9998 9.66662 77.9998 9.66662 77.3332 10.6666C77.9932 10.9966 77.9932 10.9966 78.6665 11.3333C78.9965 11.1133 79.3265 10.8933 79.6665 10.6666C79.9965 11.1616 79.9965 11.1616 80.3332 11.6666C80.4802 10.1666 80.5094 9.55125 79.5415 8.35412C78.7646 7.59797 78.7646 7.59797 77.9998 7.66662ZM22.6665 7.99995C22.5565 8.54995 22.4465 9.09995 22.3332 9.66662C22.8832 9.55662 23.4332 9.44662 23.9998 9.33329C23.7798 9.22329 23.5598 9.11329 23.3332 8.99995C23.2232 8.66995 23.1132 8.33995 22.9998 7.99995C22.8898 7.99995 22.7798 7.99995 22.6665 7.99995ZM51.9998 7.99995C51.9998 8.65995 51.9998 9.31995 51.9998 9.99995C52.1098 9.99995 52.2198 9.99995 52.3332 9.99995C52.3332 9.33995 52.3332 8.67995 52.3332 7.99995C52.2232 7.99995 52.1132 7.99995 51.9998 7.99995ZM53.6665 6.66662C53.5819 8.6978 53.7931 10.3755 54.3332 12.3333C54.3332 12.6633 54.3332 12.9933 54.3332 13.3333C54.7732 13.1133 55.2132 12.8933 55.6665 12.6666C55.6665 12.3366 55.6665 12.0066 55.6665 11.6666C55.8865 11.6666 56.1065 11.6666 56.3332 11.6666C56.5532 12.1066 56.7732 12.5466 56.9998 13C56.8898 12.45 56.7798 11.9 56.6665 11.3333C56.9553 11.622 57.244 11.9108 57.5415 12.2083C58.0717 12.6822 58.0717 12.6822 58.6665 13C59.8834 12.7893 60.4616 12.5382 61.3332 11.6666C61.2232 11.3366 61.1132 11.0066 60.9998 10.6666C60.9998 10.8866 60.9998 11.1066 60.9998 11.3333C58.0699 11.431 58.0699 11.431 56.9998 10.6666C56.5413 10.2367 56.0973 9.79099 55.6665 9.33329C55.4259 9.11329 55.1853 8.89329 54.9373 8.66662C54.3118 7.97633 54.1297 7.57543 53.9998 6.66662C53.8898 6.66662 53.7798 6.66662 53.6665 6.66662ZM75.6665 8.66662C75.7765 8.99662 75.8865 9.32662 75.9998 9.66662C76.5498 9.55662 77.0998 9.44662 77.6665 9.33329C77.5565 8.89329 77.4465 8.45329 77.3332 7.99995C76.7197 7.99995 76.2011 8.39071 75.6665 8.66662ZM45.9998 6.33329C45.8898 7.10329 45.7798 7.87329 45.6665 8.66662C45.2265 8.55662 44.7865 8.44662 44.3332 8.33329C44.2507 8.64954 44.1682 8.96579 44.0832 9.29162C43.6665 10.3333 43.6665 10.3333 42.9582 10.7916C42.7519 10.8604 42.5457 10.9291 42.3332 11C42.6632 11.165 42.6632 11.165 42.9998 11.3333C42.8898 11.9933 42.7798 12.6533 42.6665 13.3333C43.4434 13.0137 43.4434 13.0137 43.9998 12C44.2198 12.44 44.4398 12.88 44.6665 13.3333C44.9965 13.3333 45.3265 13.3333 45.6665 13.3333C45.6459 12.797 45.6459 12.797 45.6248 12.25C45.6665 11 45.6665 11 45.9998 10.3645C46.413 9.49949 46.3999 8.86982 46.3748 7.91662C46.3658 7.4706 46.3658 7.4706 46.3566 7.01558C46.3489 6.79042 46.3411 6.56527 46.3332 6.33329C46.2232 6.33329 46.1132 6.33329 45.9998 6.33329ZM47.6665 9.66662C47.9998 10.6666 47.9998 10.6666 47.9998 10.6666L47.6665 9.66662ZM51.6665 10.6666C51.9998 11.3333 51.9998 11.3333 51.9998 11.3333L51.6665 10.6666ZM38.6665 11C39.0166 11.9549 39.2336 12.2797 40.1457 12.7708C41.0297 13.0921 41.0297 13.0921 41.9998 12.6666C42.2443 11.9949 42.2443 11.9949 42.3332 11.3333C41.3403 11.3496 41.3403 11.3496 40.3475 11.3658C39.6665 11.3333 39.6665 11.3333 38.6665 11ZM47.9998 11C48.3332 11.6666 48.3332 11.6666 48.3332 11.6666L47.9998 11ZM76.9998 11C76.9998 11.55 76.9998 12.1 76.9998 12.6666C77.2198 12.3366 77.4398 12.0066 77.6665 11.6666C77.4465 11.4466 77.2265 11.2266 76.9998 11ZM22.3332 11.3333C22.2232 11.6633 22.1132 11.9933 21.9998 12.3333C21.7798 12.1133 21.5598 11.8933 21.3332 11.6666C21.0032 11.7766 20.6732 11.8866 20.3332 12C21.4968 13.3347 22.2163 13.8755 23.9998 14C23.773 13.7112 23.773 13.7112 23.5415 13.4166C23.0528 12.7399 22.6836 12.0882 22.3332 11.3333ZM78.3332 11.6666C78.2232 11.9966 78.1132 12.3266 77.9998 12.6666C77.3748 13.0208 77.3748 13.0208 76.6665 13.3333C76.3365 13.5533 76.0065 13.7733 75.6665 14C77.2804 13.8498 78.1654 13.4667 79.3332 12.3333C79.3332 12.1133 79.3332 11.8933 79.3332 11.6666C79.0032 11.6666 78.6732 11.6666 78.3332 11.6666ZM48.6665 12.3333C48.9998 13 48.9998 13 48.9998 13L48.6665 12.3333ZM50.6665 12.6666C50.9998 13.3333 50.9998 13.3333 50.9998 13.3333L50.6665 12.6666ZM48.9998 13C49.2198 13.55 49.4398 14.1 49.6665 14.6666C49.9965 14.4466 50.3265 14.2266 50.6665 14C50.5565 13.78 50.4465 13.56 50.3332 13.3333C49.6583 13.1159 49.6583 13.1159 48.9998 13Z" fill="#FFC764"/>
</svg>
