<svg width="231" height="180" viewBox="0 0 231 180" fill="none" xmlns="http://www.w3.org/2000/svg">
<path id="Vector" d="M18.2624 0.336914C18.3886 0.547424 17.8416 1.34732 17.0421 2.10512C15.8218 3.28392 15.5693 3.83122 15.5693 5.34682V7.15712H13.7599C12.2451 7.15712 11.698 7.40971 10.5198 8.63062L9.08914 10.1041L7.57428 8.63062C6.26983 7.36761 5.76488 7.15712 4.08171 7.15712H2.10399V5.13632C2.10399 3.49442 1.89359 2.90501 1.05201 2.10512L2.69492e-05 1.13683V3.28392C2.69492e-05 5.05212 0.126265 5.38892 0.631215 5.22052C1.13617 5.01003 1.2624 5.30472 1.2624 6.65192C1.2624 8.37802 1.2624 8.37802 2.98765 8.50432L4.67082 8.63062L2.35646 11.746C2.69106e-05 14.9035 -0.547003 16.5454 0.504977 17.5979C0.92577 18.0189 0.92577 18.3136 0.504977 18.9451C-0.336607 20.3344 -0.0841315 21.0501 2.31438 24.2497C3.57676 25.9337 4.62874 27.4072 4.62874 27.5335C4.62874 27.6598 3.91339 27.7861 3.02973 27.8703C1.55696 27.9966 1.4728 28.0808 1.34656 29.5964C1.2624 30.7752 1.05201 31.1541 0.631215 30.9857C0.168344 30.8173 0.0421062 31.2804 0.0421062 33.0907L0.0841854 35.4483L1.30448 34.2695C2.31438 33.3012 2.52478 32.7539 2.52478 31.0699V29.0491H4.5025C6.14359 29.0491 6.69062 28.8386 7.86884 27.7019L9.25745 26.3547L10.6461 27.7019C11.8243 28.8386 12.3713 29.0491 14.0124 29.0491H15.9901V31.0278C15.9901 32.6697 16.2005 33.217 17.3367 34.3958L18.6832 35.7851L17.3367 37.1744C16.2005 38.3532 15.9901 38.9005 15.9901 40.5424V42.5211H14.0966C12.6238 42.5211 11.9505 42.7737 10.7302 43.8262L9.21537 45.1734L7.86884 43.8262C6.69062 42.7316 6.14359 42.5211 4.5025 42.5211H2.52478V40.5003C2.52478 38.8163 2.31438 38.269 1.30448 37.3007L0.126265 36.164L0.0841854 38.5216C0.0841854 40.374 0.210423 40.8371 0.631215 40.6687C1.05201 40.5424 1.2624 40.9213 1.34656 42.0159C1.4728 43.5315 1.51488 43.5736 3.28221 43.6999L5.04953 43.8262L2.52478 47.1521C1.13617 48.9624 2.69492e-05 50.8148 2.69492e-05 51.2358C0.0421062 52.4567 1.51488 53.8881 2.6931 53.8881C3.45052 53.8881 4.37626 54.4775 5.63864 55.8247L7.49013 57.7613L5.84904 59.2348C4.96537 60.0347 4.20795 61.003 4.20795 61.3398C4.20795 61.845 3.87131 61.9292 2.77725 61.7187C1.55696 61.4661 1.22032 61.5924 0.673294 62.3923C-0.504924 64.0763 -0.16829 65.3814 2.31438 68.581C3.57676 70.2229 4.62874 71.6543 4.62874 71.7806C4.62874 71.9069 3.87131 71.9911 2.94557 71.9911H1.2624V73.7172C1.2624 75.0644 1.13617 75.4012 0.631215 75.1907C0.126265 75.0223 2.69492e-05 75.3591 2.69492e-05 77.1273V79.2744L1.05201 78.3061C1.89359 77.5062 2.10399 76.9168 2.10399 75.2749V73.2541H3.99755C5.59656 73.2541 6.18567 73.0015 7.44805 71.8227L9.04706 70.3913L10.604 71.8227C11.8664 72.9594 12.5817 73.2541 13.8862 73.2541H15.5693V75.0644C15.5693 76.58 15.8218 77.1273 17.0421 78.3061L18.4728 79.6954L17.0421 81.3373C15.8218 82.6424 15.5693 83.2739 15.5693 84.8316V86.7261H13.5495C11.8243 86.7261 11.3193 86.9366 10.3094 87.9891L9.08914 89.2521L7.82676 88.0312C6.81686 87.0208 6.05943 86.7682 4.41834 86.6419L2.31438 86.5156L2.18815 84.3685C2.10399 82.7266 1.80943 81.9688 1.05201 81.2531L2.69492e-05 80.2848V82.4319C2.69492e-05 84.2001 0.126265 84.5369 0.631215 84.3685C1.13617 84.158 1.2624 84.4948 1.2624 85.842V87.5681H2.94557C3.87131 87.5681 4.62874 87.6523 4.62874 87.7786C4.62874 87.9049 3.57676 89.4205 2.31438 91.1045C2.69106e-05 94.1778 -0.504924 95.7355 0.504977 96.7459C0.92577 97.1669 0.92577 97.4616 0.504977 98.0931C-0.378686 99.4824 -0.0841315 100.282 2.52478 103.65L5.04953 106.892L3.24013 107.018C1.51488 107.145 1.4728 107.187 1.34656 108.744C1.2624 109.923 1.05201 110.302 0.631215 110.134C0.168344 109.965 0.0421062 110.428 0.0421062 112.239L0.0841854 114.596L1.30448 113.418C2.31438 112.449 2.52478 111.902 2.52478 110.218V108.197H4.5025C6.14359 108.197 6.69062 107.987 7.86884 106.85L9.25745 105.503L10.6461 106.85C11.8243 107.987 12.3713 108.197 14.0124 108.197H15.9901V110.176C15.9901 111.818 16.2005 112.365 17.3367 113.544L18.6832 114.933L17.3367 116.322C16.2005 117.501 15.9901 118.049 15.9901 119.69V121.669H14.0124C12.3713 121.669 11.8243 121.88 10.6461 123.016L9.25745 124.364L7.86884 123.016C6.69062 121.88 6.14359 121.669 4.5025 121.669H2.52478V119.648C2.52478 117.964 2.31438 117.417 1.30448 116.449L0.126265 115.312L0.0841854 117.67C0.0841854 119.522 0.210423 119.985 0.631215 119.817C1.05201 119.69 1.2624 120.069 1.34656 121.164C1.4728 122.637 1.55696 122.722 3.07181 122.848C3.91339 122.932 4.62874 123.101 4.62874 123.227C4.62874 123.395 3.57676 124.869 2.31438 126.553C1.05201 128.237 2.69492e-05 129.963 2.69492e-05 130.384C0.0421062 131.605 1.51488 133.036 2.6931 133.036C3.45052 133.036 4.37626 133.626 5.63864 134.973L7.49013 136.909L5.84904 138.383C4.96537 139.183 4.20795 140.151 4.20795 140.488C4.20795 140.909 3.87131 140.993 2.77725 140.825C1.59904 140.572 1.2624 140.698 0.673294 141.498C-0.462844 143.14 -0.126211 144.361 2.31438 147.603C3.57676 149.287 4.62874 150.802 4.62874 150.929C4.62874 151.055 3.87131 151.139 2.94557 151.139H1.2624V152.865C1.2624 154.212 1.13617 154.549 0.631215 154.339C0.126265 154.17 2.69492e-05 154.507 2.69492e-05 156.275V158.422L1.05201 157.454C1.80943 156.738 2.10399 155.981 2.18815 154.339L2.31438 152.192L4.41834 152.065C5.84904 151.981 6.81686 151.644 7.49013 151.013C8.24755 150.297 8.07924 150.844 6.60646 154.128C5.59656 156.275 4.20795 159.601 3.53468 161.454L2.31438 164.822L2.18815 163.096C2.10399 161.917 1.72527 161.033 1.05201 160.401L0.0841854 159.475V161.622C0.0421062 163.222 0.168344 163.685 0.631215 163.517C1.51488 163.138 1.64112 166.969 0.757453 170.295C0.336661 171.894 0.0421062 174.673 0.0421062 176.399V179.557L1.72527 173.452C9.84656 143.772 28.656 121.038 61.9406 100.493C77.4678 90.9361 90.4703 84.8316 139.072 64.2868C169.832 51.2779 185.233 43.4894 199.582 33.7222C212.542 24.8812 223.23 13.9773 229.079 3.62073C230.72 0.71582 230.931 0.168518 230.3 0.0422211C229.5 -0.126175 229.29 0.126419 226.681 4.21011C225.082 6.69402 224.787 6.94662 223.356 7.07292L221.757 7.19922V5.38892C221.757 3.83122 221.505 3.32602 220.285 2.10512C219.485 1.34732 218.938 0.547424 219.064 0.336914C219.191 0.168518 218.896 0.00012207 218.433 0.00012207C217.255 0.00012207 217.339 0.757919 218.602 2.10512L219.696 3.24182L216.203 3.70493C210.27 4.54692 209.765 4.46272 208.292 2.48402C207.619 1.51572 207.156 0.589523 207.282 0.379013C207.408 0.168518 206.988 0.00012207 206.399 0.00012207C205.809 0.00012207 205.389 0.168518 205.515 0.336914C205.894 0.968414 203.663 3.78912 202.527 4.04172C201.938 4.21011 199.54 4.08382 197.267 3.78912L193.102 3.28392L194.153 2.14722C195.458 0.757919 195.542 0.00012207 194.364 0.00012207C193.901 0.00012207 193.606 0.168518 193.733 0.336914C193.859 0.547424 193.312 1.34732 192.512 2.10512C191.292 3.28392 191.04 3.83122 191.04 5.34682V7.15712H189.23C187.715 7.15712 187.168 7.40971 185.99 8.63062L184.602 10.062L182.96 8.63062C181.656 7.40971 181.025 7.15712 179.468 7.15712H177.574V5.13632C177.574 3.45232 177.322 2.90501 176.102 1.55782C175.26 0.71582 174.334 0.00012207 173.998 0.00012207C173.072 0.00012207 173.24 0.547424 174.418 1.68411C175.007 2.23141 175.47 2.82082 175.47 2.98923C175.47 3.32602 169.79 4.21011 167.475 4.21011C166.129 4.21011 165.666 3.95752 164.572 2.65242C163.856 1.76833 163.267 0.842117 163.267 0.547424C163.267 -0.673477 161.753 0.126419 160.911 1.81042C159.733 4.21011 158.807 4.46272 153.589 3.78912L149.339 3.28392L150.391 2.14722C151.696 0.800018 151.78 0.00012207 150.644 0.00012207C150.181 0.00012207 149.802 0.252716 149.802 0.547424C149.802 0.842117 149.255 1.64201 148.54 2.31561C147.53 3.28392 147.277 3.87332 147.277 5.34682V7.15712H145.51C144.037 7.15712 143.448 7.40971 142.144 8.71483L140.545 10.2725L138.946 8.71483C137.641 7.40971 137.052 7.15712 135.579 7.15712H133.812V5.34682C133.812 3.87332 133.559 3.28392 132.55 2.31561C131.876 1.64201 131.287 0.842117 131.287 0.547424C131.287 0.252716 130.908 0.00012207 130.446 0.00012207C129.309 0.00012207 129.394 0.800018 130.656 2.10512L131.75 3.24182L128.257 3.70493C123.04 4.46272 122.24 4.37852 120.978 3.03133C120.389 2.39983 119.8 1.47362 119.673 0.926315C119.337 -0.294586 117.99 -0.294586 117.653 0.968414C117.527 1.47362 116.854 2.48402 116.139 3.15762L114.876 4.37852L110.374 3.87332C107.933 3.62073 105.829 3.28392 105.703 3.15762C105.577 3.03133 105.998 2.39983 106.587 1.76833C107.891 0.421127 108.017 0.00012207 107.092 0.00012207C106.755 0.00012207 105.829 0.71582 104.988 1.55782C103.767 2.90501 103.515 3.45232 103.515 5.13632V7.15712H101.621C100.064 7.15712 99.4332 7.40971 98.1287 8.63062L96.4876 10.062L95.099 8.63062C93.9208 7.40971 93.3738 7.15712 91.8589 7.15712H90.0495V5.34682C90.0495 3.87332 89.7971 3.28392 88.7872 2.31561C88.1139 1.64201 87.5248 0.842117 87.5248 0.547424C87.5248 0.252716 87.1461 0.00012207 86.6832 0.00012207C85.5471 0.00012207 85.6312 0.800018 86.9357 2.14722L87.9876 3.28392L83.7376 3.78912C78.5198 4.46272 77.5941 4.21011 76.4159 1.81042C75.5743 0.126419 74.0594 -0.673477 74.0594 0.547424C74.0594 0.842117 73.4703 1.76833 72.755 2.65242C71.6609 3.95752 71.198 4.21011 69.8515 4.21011C67.5372 4.21011 61.8565 3.32602 61.8565 2.98923C61.8565 2.82082 62.3193 2.23141 62.9084 1.68411C64.0446 0.631622 63.9604 0.00012207 62.656 0.00012207C62.1931 0.00012207 61.8985 0.168518 62.0248 0.336914C62.151 0.547424 61.6881 1.26312 61.0149 1.89462C59.9629 2.90501 59.7525 3.45232 59.7525 5.13632V7.15712H57.8589C56.302 7.15712 55.6708 7.40971 54.3664 8.63062L52.7253 10.062L51.3367 8.63062C50.1584 7.40971 49.6114 7.15712 48.0966 7.15712H46.2872V5.34682C46.2872 3.83122 46.0347 3.28392 44.8144 2.10512C44.0149 1.34732 43.4678 0.547424 43.5941 0.336914C43.7203 0.168518 43.4258 0.00012207 42.9629 0.00012207C41.7847 0.00012207 41.8688 0.757919 43.1312 2.10512L44.2253 3.24182L40.7327 3.70493C34.7995 4.54692 34.2946 4.46272 32.8218 2.48402C32.1485 1.51572 31.6857 0.589523 31.8119 0.379013C31.9381 0.168518 31.5174 0.00012207 30.9282 0.00012207C30.3391 0.00012207 29.9183 0.168518 30.0446 0.379013C30.1708 0.589523 29.7079 1.51572 29.0347 2.48402C27.8985 3.99962 27.5619 4.21011 26.0891 4.21011C23.7748 4.21011 18.0941 3.32602 18.0941 2.98923C18.0941 2.82082 18.557 2.23141 19.1461 1.68411C20.2822 0.631622 20.198 0.00012207 18.8936 0.00012207C18.4307 0.00012207 18.1362 0.168518 18.2624 0.336914ZM34.1263 5.26262C34.8416 5.51521 34.9678 5.80992 34.8416 6.82033C34.6733 7.70442 34.8837 8.25172 35.5149 8.75693C36.2723 9.34631 36.3985 9.85152 36.2723 11.9986C36.0619 15.8297 36.5248 16.6717 39.2599 17.2611C40.8589 17.5979 41.8688 17.5979 42.7104 17.2611C43.6782 16.8822 43.9728 16.9664 44.3936 17.5558C45.2773 18.7346 44.3936 19.3661 42.3317 19.1135C41.406 18.9872 39.807 19.0714 38.8391 19.324C37.156 19.7871 37.0718 19.9134 36.5669 22.0605C36.2302 23.6182 36.1881 24.7128 36.4827 25.5548C36.8614 26.6073 36.7773 26.8599 35.8936 27.5335C35.052 28.165 34.8837 28.5439 35.0941 29.5122C35.2624 30.4805 35.1362 30.8173 34.3787 31.1962C33.8738 31.4488 32.9901 32.2066 32.401 32.9223L31.349 34.1432L29.3292 32.2487C27.8985 30.8594 27.3515 30.0174 27.3515 29.1754C27.3515 28.4597 27.0149 27.7861 26.552 27.4914C25.8787 27.0704 25.7525 26.6494 25.9629 25.5127C26.0891 24.7128 26.0471 23.1551 25.8787 22.1026C25.6263 20.3344 25.4579 20.0818 24.0693 19.4924C23.0174 19.0714 21.7971 18.903 20.3243 19.0714C18.7253 19.2398 18.0099 19.1556 17.6312 18.6925C16.7896 17.6821 17.8416 16.8401 19.4827 17.3032C20.3664 17.5558 21.5446 17.4716 22.9332 17.1348C24.9951 16.6296 25.0372 16.5875 25.5421 14.5246C25.9208 13.0932 25.9629 11.9565 25.6683 10.9882C25.3317 9.72522 25.4159 9.47263 26.3416 8.71483C27.1832 8.08333 27.3515 7.66232 27.1411 6.77821C26.9307 5.85202 27.099 5.55733 27.9406 5.13632C28.4876 4.88373 29.4134 4.08382 29.9183 3.41022L30.8862 2.10512L32.0644 3.53651C32.7376 4.33643 33.6634 5.13632 34.1263 5.26262ZM78.1832 5.47311C78.4777 5.47311 78.6881 6.10461 78.6881 6.94662C78.6881 7.91492 78.9406 8.58852 79.4876 8.92532C80.1609 9.34631 80.2451 9.76732 80.0768 11.5776C79.9505 12.7985 80.0768 14.4404 80.3292 15.2824C80.7921 16.6717 81.0446 16.8401 83.0644 17.2611C84.6213 17.5979 85.6312 17.5979 86.4728 17.2611C87.4406 16.8822 87.7352 16.9664 88.156 17.5558C89.0817 18.8188 88.4505 19.1556 85.2104 19.1556C82.854 19.1556 81.9282 19.324 81.3812 19.8292C80.4976 20.7554 79.9084 23.9971 80.3713 25.639C80.6659 26.7336 80.5817 26.9862 79.656 27.5756C78.8565 28.1229 78.6881 28.5018 78.8565 29.3017C79.0669 30.1016 78.7302 30.691 77.1312 32.2908L75.1114 34.3116L73.1337 32.2908C71.6188 30.8173 71.1139 29.9753 71.1139 29.0491C71.1139 28.3755 70.8193 27.6598 70.4406 27.4493C69.8936 27.1546 69.7253 26.3547 69.6832 23.8708C69.6411 19.5766 69.2203 19.1556 64.9282 19.1135C61.6881 19.1135 61.057 18.8188 61.604 17.4716C61.7723 17.0085 62.1089 16.9664 63.1609 17.2611C64.8441 17.7663 68.4629 17.0085 68.9678 16.0823C69.6411 14.7772 69.8936 11.9986 69.4728 10.8198C69.0941 9.85152 69.1782 9.59892 70.1461 8.84113C70.9876 8.16753 71.156 7.74652 70.9876 6.77821C70.7773 5.80992 70.9035 5.51521 71.703 5.13632C72.25 4.92583 73.1337 4.16801 73.6807 3.45232L74.6906 2.23141L76.2055 3.83122C77.0471 4.75742 77.9307 5.47311 78.1832 5.47311ZM119.715 3.36812C120.178 4.04172 120.978 4.84161 121.483 5.09422C122.198 5.47311 122.451 5.97832 122.451 6.98872C122.451 7.83072 122.745 8.58852 123.208 8.92532C123.755 9.34631 123.923 10.1041 123.923 12.5038C123.923 14.7772 124.092 15.7455 124.597 16.2507C125.564 17.1769 128.889 17.7663 130.319 17.219C131.245 16.8822 131.582 16.9243 132.003 17.4716C132.928 18.7767 132.255 19.324 129.899 19.0714C126.701 18.7346 124.681 19.6608 124.302 21.6816C124.176 22.5236 124.134 24.0392 124.218 25.0496C124.428 26.6073 124.302 27.0283 123.46 27.744C122.871 28.2913 122.577 28.8807 122.745 29.428C122.913 30.0174 122.408 30.7752 120.936 32.2066L118.874 34.1432L117.822 32.9223C117.233 32.2066 116.349 31.4488 115.802 31.1541C115.002 30.7752 114.876 30.4384 115.087 29.4701C115.297 28.5018 115.171 28.1229 114.329 27.5756C113.403 26.9862 113.319 26.7336 113.656 25.5548C113.908 24.6707 113.866 23.4077 113.572 22.0184C113.151 19.9134 113.067 19.7871 111.384 19.324C110.416 19.0714 108.775 18.9872 107.681 19.1135C106.124 19.324 105.661 19.2398 105.451 18.7346C104.988 17.4716 105.577 16.8822 106.965 17.3032C107.681 17.5137 108.733 17.5558 109.28 17.4716C109.785 17.3453 110.752 17.1769 111.342 17.0506C112.899 16.7138 113.782 14.3562 113.446 11.4934C113.235 9.55682 113.277 9.22002 114.035 8.84113C114.582 8.54642 114.876 7.95702 114.876 7.19922C114.876 6.35722 115.423 5.43102 116.686 4.12592C117.653 3.07343 118.537 2.18932 118.663 2.14722C118.79 2.14722 119.252 2.65242 119.715 3.36812ZM166.045 5.47311C166.423 5.47311 166.507 5.89412 166.339 6.86243C166.171 8.04121 166.297 8.37802 167.223 9.00952C168.191 9.59892 168.275 9.85152 167.854 10.6093C167.349 11.5776 167.602 14.6509 168.317 15.9981C168.864 17.0085 172.356 17.7663 174.124 17.2611C175.554 16.8822 176.606 17.5979 176.144 18.7346C175.975 19.1977 175.512 19.2819 174.124 19.1135C173.114 18.9872 171.515 19.0714 170.547 19.324C169.074 19.745 168.738 20.0397 168.317 21.3027C168.022 22.1447 167.896 23.7445 167.98 24.8812C168.149 26.5231 168.022 27.0704 167.433 27.6177C166.97 28.0387 166.634 28.7965 166.634 29.3438C166.634 29.9753 165.918 31.0278 164.656 32.2487L162.636 34.1432L161.879 33.0486C161.416 32.4592 160.532 31.7014 159.859 31.3646C158.849 30.8173 158.681 30.5226 158.891 29.5122C159.102 28.586 158.933 28.165 158.092 27.4914C157.25 26.8599 157.124 26.5231 157.46 25.9337C158.007 24.9233 157.503 20.7975 156.703 20.0397C155.946 19.2819 152.832 18.7767 151.191 19.1135C149.76 19.4503 148.792 18.6504 149.213 17.5137C149.423 17.0085 149.718 16.8822 150.391 17.1348C151.443 17.5137 152.832 17.5137 154.936 17.0927C156.366 16.8401 156.577 16.6296 156.998 15.0298C157.25 14.0615 157.376 12.4196 157.25 11.325C157.04 9.76732 157.166 9.34631 157.839 8.92532C158.344 8.58852 158.639 7.95702 158.639 7.03082C158.639 5.97832 158.891 5.47311 159.649 5.09422C160.196 4.79951 161.037 3.99962 161.542 3.32602L162.426 2.10512L163.941 3.78912C164.782 4.71532 165.708 5.47311 166.045 5.47311ZM209.597 5.26262C210.312 5.51521 210.438 5.80992 210.312 6.82033C210.144 7.74652 210.354 8.25172 211.111 8.84113C211.701 9.30421 212.037 9.85152 211.869 10.1041C211.448 10.8198 211.532 14.3983 212.037 15.6613C212.332 16.5033 212.879 16.8822 213.973 17.0927C215.74 17.4295 215.824 17.7663 214.309 18.9451C213.636 19.4082 212.29 20.6291 211.238 21.5974C210.186 22.5657 207.829 24.5023 206.062 25.8495C202.906 28.2492 202.78 28.2913 201.98 27.5756C201.349 26.9862 201.223 26.481 201.391 25.0917C201.559 24.1234 201.433 22.5657 201.181 21.5974C200.76 19.9976 200.507 19.745 198.908 19.324C197.941 19.0714 196.342 18.9872 195.416 19.1135C193.354 19.3661 192.218 18.5662 193.102 17.5137C193.48 17.0506 193.901 17.0085 194.827 17.3032C195.626 17.5979 196.678 17.5558 198.235 17.1769C200.255 16.6717 200.507 16.5033 200.844 15.1561C201.054 14.3562 201.139 12.7564 201.054 11.5776C200.928 9.85152 201.054 9.34631 201.812 8.75693C202.443 8.25172 202.653 7.70442 202.485 6.82033C202.359 5.80992 202.485 5.51521 203.201 5.26262C203.705 5.13632 204.589 4.33643 205.22 3.53651L206.314 2.06302L207.535 3.53651C208.208 4.33643 209.134 5.13632 209.597 5.26262ZM23.6485 5.30472C25.9629 5.59943 26.6782 6.86243 25.2055 8.08333C24.3639 8.79903 24.2376 8.79903 22.4703 7.49393C21.4604 6.77821 20.2822 5.80992 19.9035 5.34682C19.1461 4.54692 19.1881 4.54692 20.4084 4.75742C21.1238 4.92583 22.5545 5.13632 23.6485 5.30472ZM42.0792 5.47311C38.1238 8.54642 37.6188 8.84113 36.7352 8.20963C36.1461 7.78862 35.9357 7.28342 36.0619 6.56772C36.2723 5.64153 36.5669 5.47311 38.6708 5.26262C39.9753 5.09422 41.2376 4.92583 41.448 4.84161C42.7104 4.42062 43.0471 4.71532 42.0792 5.47311ZM67.4109 5.30472C69.8515 5.64153 70.5248 6.86243 69.0099 8.08333C68.0842 8.79903 68.0421 8.79903 65.6015 6.90453C64.255 5.85202 63.1188 4.88373 63.1188 4.79951C63.1188 4.67322 63.6238 4.67322 64.2971 4.79951C64.9282 4.92583 66.3169 5.13632 67.4109 5.30472ZM86.599 4.84161C86.4728 4.96793 85.2946 5.89412 83.948 6.90453C81.8862 8.42012 81.3391 8.67271 80.7079 8.25172C80.2872 7.99911 79.9505 7.28342 79.9505 6.69402C79.9505 5.64153 80.1188 5.55733 82.8119 5.17842C86.5149 4.63112 86.8515 4.58902 86.599 4.84161ZM111.931 5.43102C113.067 5.64153 113.446 5.93622 113.53 6.73611C113.614 7.40971 113.361 7.95702 112.814 8.29382C112.141 8.71483 111.678 8.50432 109.448 6.86243C108.017 5.80992 106.881 4.88373 106.881 4.79951C106.881 4.63112 109.238 4.92583 111.931 5.43102ZM130.446 4.79951C130.446 4.88373 129.309 5.80992 127.879 6.86243C125.649 8.50432 125.186 8.71483 124.512 8.29382C123.965 7.95702 123.713 7.40971 123.797 6.73611C123.923 5.80992 124.218 5.64153 126.658 5.22052C129.899 4.63112 130.446 4.58902 130.446 4.79951ZM154.978 5.26262C157.208 5.55733 157.376 5.64153 157.376 6.69402C157.376 7.32552 157.04 7.99911 156.577 8.29382C155.903 8.71483 155.399 8.50432 153.21 6.86243C150.433 4.79951 150.139 4.42062 151.611 4.75742C152.116 4.88373 153.631 5.13632 154.978 5.26262ZM174.208 4.79951C174.208 4.92583 173.072 5.85202 171.725 6.90453C169.285 8.79903 169.243 8.79903 168.317 8.08333C167.644 7.53603 167.433 7.07292 167.644 6.44142C167.854 5.72572 168.443 5.47311 170.547 5.13632C173.913 4.63112 174.208 4.58902 174.208 4.79951ZM198.698 5.26262C200.76 5.51521 201.097 5.68362 201.265 6.56772C201.391 7.28342 201.181 7.78862 200.592 8.20963C199.834 8.75693 199.582 8.67271 198.025 7.53603C197.057 6.86243 195.837 5.89412 195.248 5.43102L194.196 4.54692L195.248 4.75742C195.837 4.88373 197.352 5.13632 198.698 5.26262ZM217.55 5.47311C213.594 8.54642 213.089 8.84113 212.205 8.20963C211.616 7.78862 211.406 7.28342 211.532 6.56772C211.743 5.64153 212.037 5.47311 214.141 5.26262C215.446 5.09422 216.708 4.92583 216.918 4.84161C218.181 4.42062 218.517 4.71532 217.55 5.47311ZM20.6188 7.57812C22.4703 8.96742 24.1535 10.483 24.406 10.9461C24.9109 11.8723 24.5322 14.9456 23.8169 15.535C23.0174 16.1665 20.2401 16.4612 19.3565 15.9981C18.599 15.6192 13.4654 9.17792 13.4654 8.67271C13.4654 8.54642 14.2228 8.42012 15.1485 8.42012H16.8317V6.73611C16.8317 5.80992 16.9579 5.05212 17.0842 5.05212C17.2104 5.05212 18.8094 6.18883 20.6188 7.57812ZM45.0248 6.73611V8.42012H46.7079C47.6337 8.42012 48.3911 8.54642 48.3911 8.67271C48.3911 9.17792 43.2575 15.5771 42.5 15.9981C41.5743 16.5033 38.5025 16.1244 37.9134 15.4087C37.703 15.1561 37.4084 14.1878 37.2822 13.2195C37.0297 11.9144 37.156 11.325 37.7451 10.6093C38.6287 9.55682 44.2253 5.09422 44.7302 5.05212C44.8985 5.05212 45.0248 5.80992 45.0248 6.73611ZM68.4208 11.0724C68.5471 11.5355 68.5471 12.7143 68.3787 13.7247C68.1263 15.4508 68 15.5771 66.401 16.0402C63.7079 16.7559 62.9505 16.2928 59.9208 12.2933L57.1436 8.63062L58.9951 8.42012C60.7203 8.20963 60.8045 8.16753 60.9307 6.65192L61.057 5.09422L64.5916 7.70442C66.5273 9.13582 68.2525 10.6514 68.4208 11.0724ZM90.5124 8.42012C91.3961 8.42012 92.1535 8.54642 92.1535 8.67271C92.1535 8.84113 90.9753 10.5251 89.5446 12.4617C86.8515 16.0823 86.052 16.5875 83.6535 16.1665C81.802 15.7876 81.2129 14.9456 81.2129 12.5459V10.5672L84.9159 7.74652L88.5768 4.96793L88.703 6.69402C88.8292 8.42012 88.8713 8.42012 90.5124 8.42012ZM108.564 7.78862C111.973 10.3146 112.352 10.7777 112.352 12.4617C112.352 15.0298 111.762 15.8718 109.701 16.1665C108.691 16.3349 107.554 16.3349 107.176 16.2086C106.502 15.9139 102 10.2304 101.579 9.05162C101.369 8.54642 101.705 8.42012 103.052 8.42012H104.777V6.69402C104.777 5.34682 104.903 5.05212 105.324 5.34682C105.577 5.55733 107.05 6.65192 108.564 7.78862ZM134.317 8.42012C135.621 8.42012 135.958 8.54642 135.748 9.05162C135.327 10.2304 130.824 15.9139 130.151 16.2086C129.772 16.3349 128.636 16.3349 127.626 16.1665C125.522 15.8718 124.975 15.0298 124.975 12.2091C124.975 10.6935 125.144 10.483 128.678 7.87282L132.339 5.09422L132.465 6.77821C132.592 8.37802 132.634 8.42012 134.317 8.42012ZM152.874 8.08333L156.114 10.5672V12.588C156.114 14.9456 155.525 15.7876 153.673 16.1665C151.275 16.5875 150.475 16.0823 147.782 12.4617C146.352 10.5251 145.173 8.84113 145.173 8.67271C145.173 8.54642 145.931 8.42012 146.856 8.42012H148.54V6.69402C148.54 4.71532 148.287 4.67322 152.874 8.08333ZM178.121 8.33592C178.963 8.42012 179.678 8.67271 179.678 8.88322C179.678 9.80942 174.545 15.9981 173.619 16.2507C173.072 16.377 171.852 16.2928 170.926 16.0402C169.285 15.5771 169.201 15.4508 168.906 13.6405C168.78 12.588 168.78 11.3671 168.99 10.9461C169.201 10.483 170.884 9.00952 172.735 7.62022L176.102 5.09422L176.312 6.65192C176.522 8.08333 176.649 8.20963 178.121 8.33592ZM196.636 8.08333C199.834 10.5251 199.876 10.5672 199.876 12.4617C199.876 13.5142 199.708 14.693 199.455 15.114C198.993 16.0402 195.963 16.6296 194.827 15.9981C194.069 15.5771 188.936 9.17792 188.936 8.67271C188.936 8.54642 189.693 8.42012 190.619 8.42012H192.302V6.69402C192.302 4.71532 192.05 4.67322 196.636 8.08333ZM220.495 6.73611C220.495 8.37802 220.537 8.42012 221.968 8.42012C222.767 8.42012 223.441 8.54642 223.441 8.75693C223.441 8.92532 222.01 10.7356 220.243 12.7564C217.129 16.377 217.045 16.4612 215.53 16.1665C214.688 15.9981 213.762 15.7034 213.51 15.535C212.795 14.9456 212.416 11.8723 212.921 10.9461C213.342 10.1462 219.569 5.13632 220.201 5.09422C220.369 5.05212 220.495 5.80992 220.495 6.73611ZM10.2253 10.6514C10.8144 10.0199 11.4456 9.59892 11.5297 9.72522C11.656 9.85152 11.8664 11.0303 12.0347 12.3775L12.3292 14.8193L11.0248 14.1457C9.25745 13.2616 8.79458 13.3037 6.98518 14.5246L5.38617 15.6192L5.63864 14.4404C5.76488 13.8089 5.97527 12.3354 6.14359 11.2408L6.39607 9.17792L7.7426 10.483L9.08914 11.7881L10.2253 10.6514ZM99.854 12.7143C100.149 14.8614 99.9802 15.0719 98.7178 14.1036C97.5396 13.2195 96.2352 13.3037 94.9307 14.3562C94.2995 14.8614 93.7104 15.1561 93.5842 15.0298C93.2476 14.7351 93.8787 9.68312 94.2574 9.68312C94.4258 9.68312 94.8886 10.062 95.3094 10.5251C96.3193 11.6197 96.8664 11.5776 98.0446 10.3146C98.9703 9.34631 99.0966 9.30421 99.349 9.97781C99.4753 10.3988 99.7277 11.6197 99.854 12.7143ZM185.696 10.6514C186.285 10.0199 186.874 9.59892 187 9.72522C187.084 9.80942 187.295 10.9882 187.463 12.3354L187.8 14.8193L186.495 14.1457C184.728 13.2616 184.265 13.3037 182.413 14.5667L180.856 15.6192L181.067 14.2299C181.193 13.4721 181.446 11.9986 181.572 11.0303L181.866 9.17792L183.213 10.483L184.559 11.7881L185.696 10.6514ZM51.7575 10.7356L52.7674 11.7881L53.9456 10.6514C54.5768 10.062 55.2079 9.64102 55.3342 9.76732C55.6287 10.062 56.3441 14.4825 56.1337 14.693C56.0495 14.7772 55.5025 14.5246 54.9555 14.1457C53.5669 13.2616 52.7674 13.3037 51.0421 14.3562C50.2426 14.8614 49.5693 15.1982 49.4852 15.114C49.2748 14.7772 50.1584 9.68312 50.453 9.68312C50.6213 9.68312 51.2104 10.1462 51.7575 10.7356ZM140.545 11.3671C140.881 11.3671 141.554 10.9461 142.102 10.4409C142.649 9.93571 143.153 9.59892 143.238 9.72522C143.532 10.1041 143.911 14.7351 143.616 14.7351C143.406 14.7351 142.901 14.4404 142.48 14.1036C141.26 13.1774 140.166 13.3458 138.525 14.5667L137.094 15.7034L137.389 13.009C137.767 9.59892 137.894 9.43053 139.03 10.483C139.535 10.9882 140.208 11.3671 140.545 11.3671ZM4.54458 13.6826C4.33419 15.2824 4.03963 16.7559 3.87131 16.9243C3.19805 17.5558 1.97775 17.4295 1.4728 16.6296C0.967849 15.8718 1.09409 15.4929 2.86141 13.1774C3.91339 11.7039 4.83914 10.5672 4.88122 10.6514C4.92329 10.6935 4.75498 12.0407 4.54458 13.6826ZM15.3169 13.3037C17.3367 15.9981 17.3367 16.0823 16.5792 16.8822C16.0743 17.3874 15.4431 17.5558 14.8961 17.4295C14.1386 17.219 13.9282 16.7559 13.6758 14.8193C13.5495 13.4721 13.2971 11.9986 13.1708 11.4513C13.0446 10.9461 13.0446 10.5251 13.1287 10.5251C13.2129 10.5251 14.2228 11.7881 15.3169 13.3037ZM190.745 13.3458C192.639 15.8297 192.681 15.956 191.965 16.798C190.913 18.061 189.483 17.5558 189.188 15.8718C188.725 13.0932 188.431 10.3146 188.599 10.5251C188.683 10.6514 189.651 11.9144 190.745 13.3458ZM48.307 14.1878C47.9282 16.8822 47.7599 17.219 46.8763 17.3874C46.1609 17.5137 45.656 17.3032 45.2352 16.7138C44.6881 15.956 44.8144 15.6613 46.5817 13.3879C47.6337 11.9986 48.5594 10.9461 48.6436 11.0303C48.6857 11.1145 48.5594 12.5459 48.307 14.1878ZM59.2896 13.5142C61.0149 15.9139 61.099 16.0823 60.3837 16.8401C59.8787 17.3874 59.4159 17.5137 58.7847 17.3032C58.0273 17.0085 57.7748 16.4191 57.3961 13.9352C57.1436 12.2933 57.0594 10.9461 57.1857 10.9461C57.3119 10.9461 58.2797 12.1249 59.2896 13.5142ZM92.448 12.2933C92.3218 13.0511 92.0693 14.4825 91.9431 15.4087C91.7327 16.8401 91.4802 17.219 90.6386 17.3874C89.7971 17.5137 89.4604 17.3453 89.1238 16.6296C88.7451 15.7876 88.9555 15.3245 90.4703 13.3037C91.4381 11.9986 92.3639 10.9461 92.448 10.9461C92.5743 10.9461 92.5743 11.5776 92.448 12.2933ZM103.767 14.3983C104.651 15.6613 104.777 16.0823 104.356 16.8401C104.02 17.4716 103.641 17.64 102.968 17.4295C101.579 17.0085 101.495 16.8822 101.201 13.6826L100.948 10.7356L101.79 11.7881C102.295 12.3775 103.136 13.5563 103.767 14.3983ZM136.084 13.8089C135.79 16.6717 135.621 17.0506 134.401 17.4295C133.77 17.64 133.391 17.4295 133.012 16.6717C132.507 15.7455 132.592 15.4508 134.233 13.3037C135.243 11.9986 136.126 10.9882 136.21 11.1145C136.295 11.1987 136.253 12.4196 136.084 13.8089ZM146.814 13.2616C148.624 15.6613 148.876 16.4612 147.993 17.1769C147.109 17.9347 145.678 17.3032 145.426 16.0402C144.963 13.7668 144.668 10.9461 144.879 10.9461C144.963 10.9461 145.847 11.9986 146.814 13.2616ZM179.889 14.1036C179.636 16.4191 179.426 16.9664 178.668 17.2611C177.658 17.64 176.144 16.5875 176.48 15.7034C176.817 14.8614 179.804 10.9461 180.015 11.1145C180.099 11.2408 180.057 12.5459 179.889 14.1036ZM11.5297 16.1665C12.6238 17.1769 12.9604 17.8084 12.7921 18.3557C12.3713 19.5345 11.3193 20.6291 9.93072 21.3448C8.79458 21.9342 8.66834 21.8921 7.19557 20.7133C5.09161 19.0293 5.04953 17.9768 6.9431 16.1665C7.78468 15.3666 8.83666 14.7351 9.25745 14.7351C9.67824 14.7351 10.7302 15.3666 11.5297 16.1665ZM55.4183 16.1665C56.849 17.4716 56.9332 17.6821 56.5124 18.6504C56.2599 19.2398 55.3342 20.2081 54.5347 20.8396L53.0619 21.9763L51.5891 21.0922C49.6114 19.8292 49.1065 19.1135 49.401 17.8926C49.6535 16.8822 52.3045 14.7351 53.3144 14.7351C53.651 14.7351 54.5768 15.3666 55.4183 16.1665ZM98.7178 15.6192C101.285 17.1769 101.032 18.903 97.9183 21.1343C96.7822 21.9342 96.7822 21.9342 95.3094 21.0501C92.5743 19.3661 92.5322 17.5979 95.2253 15.6613C96.8664 14.5246 96.9505 14.5246 98.7178 15.6192ZM142.775 15.7876C145.089 17.3874 144.795 19.324 142.017 21.0501C140.629 21.8921 140.46 21.9342 139.535 21.3448C136.715 19.4924 136.463 17.9768 138.651 16.0402C140.46 14.4404 140.755 14.4404 142.775 15.7876ZM186.705 15.8297C188.767 17.3874 188.557 19.0714 186.116 20.7975L184.307 22.0605L182.75 20.7554C180.52 18.9872 180.478 17.7242 182.498 16.0402C184.433 14.4404 184.896 14.4404 186.705 15.8297ZM4.12379 19.4503C4.33419 19.745 4.67082 21.3027 4.83914 22.9446L5.13369 25.8916L3.19805 23.3656C2.14607 21.9763 1.2624 20.6291 1.2624 20.3765C1.2624 19.1556 3.28221 18.482 4.12379 19.4503ZM16.9579 19.8713C17.4208 20.5449 16.6634 21.9342 14.2649 24.8391L13.4233 25.8916L13.6758 23.7866C14.2649 19.0714 14.307 18.903 15.4852 19.0293C16.0743 19.1135 16.7476 19.4924 16.9579 19.8713ZM48.6436 22.3973C48.854 24.2076 49.0223 25.6811 48.9802 25.6811C48.8961 25.6811 47.9703 24.5444 46.9183 23.1551C45.2773 21.008 45.0669 20.5028 45.4456 19.7871C45.7822 19.1556 46.2451 18.9451 47.0446 19.0293C48.1386 19.1556 48.1807 19.324 48.6436 22.3973ZM60.8886 19.745C61.3094 20.4186 61.099 20.9238 59.4579 23.113C58.406 24.5444 57.4802 25.639 57.3961 25.5548C57.2698 25.4706 57.4381 23.955 57.6906 22.1868C58.1535 19.0714 58.2376 18.9451 59.2896 18.9451C59.9208 18.9451 60.5941 19.2819 60.8886 19.745ZM92.448 22.271C92.7426 23.9971 92.9109 25.4706 92.8268 25.5548C92.7426 25.639 91.8169 24.5444 90.7649 23.113C89.1659 20.9659 88.9134 20.3765 89.25 19.7029C89.5446 19.1556 90.0495 18.9451 90.807 19.0293C91.8589 19.1556 91.9852 19.3661 92.448 22.271ZM104.693 19.7871C105.156 20.5449 104.988 20.9238 103.262 23.1972C102.21 24.5865 101.285 25.6811 101.201 25.5969C101.074 25.4706 101.79 20.2923 102.042 19.4503C102.337 18.6504 104.104 18.8609 104.693 19.7871ZM135.663 19.2819C135.958 19.745 136.842 25.3443 136.631 25.5127C136.547 25.5969 135.621 24.5023 134.527 23.113C132.844 20.9238 132.676 20.4607 133.097 19.745C133.602 18.9451 135.243 18.6504 135.663 19.2819ZM148.54 19.7871C148.918 20.5028 148.708 21.0501 147.067 23.1551C146.015 24.5444 145.089 25.6811 145.005 25.6811C144.879 25.6811 145.594 20.2081 145.804 19.4503C146.099 18.6083 148.035 18.8609 148.54 19.7871ZM179.636 19.6608C180.057 20.5449 180.73 26.0179 180.352 25.639C179.51 24.8391 176.733 20.8396 176.733 20.4186C176.733 19.0293 178.963 18.4399 179.636 19.6608ZM192.428 19.8292C192.765 20.3765 192.428 21.0922 190.871 23.1972L188.852 25.8916L189.146 23.3656C189.609 19.1977 189.735 18.903 190.955 19.0293C191.545 19.1135 192.218 19.4503 192.428 19.8292ZM24.2797 20.7554C24.7005 21.2185 24.9109 25.4285 24.5322 25.9337C24.1114 26.481 17.8837 31.1541 17.5471 31.1541C17.4208 31.1541 17.2525 30.4384 17.1683 29.5543C17.0421 28.0808 16.9579 27.9966 15.4431 27.7861L13.802 27.5756L16.6213 23.8287L19.4406 20.1239L21.7129 20.2923C22.9753 20.4186 24.1114 20.6291 24.2797 20.7554ZM43.1733 20.5449C43.3837 20.7133 44.7723 22.3973 46.203 24.2918L48.8119 27.744L47.0446 27.8703C45.2773 27.9966 45.2352 28.0387 45.1089 29.5543C45.0248 30.4384 44.8985 31.1541 44.7723 31.1541C44.1411 31.1541 37.8713 25.9758 37.6609 25.2601C37.156 23.7024 37.8713 21.008 38.8391 20.6291C39.9753 20.166 42.5421 20.1239 43.1733 20.5449ZM68 20.7554C68.4629 21.2185 68.9678 24.2076 68.7574 25.1338C68.5471 25.9758 63.1609 30.4384 61.6461 30.9857C61.1411 31.1962 61.0149 30.8594 61.0149 29.5543C61.0149 27.8282 61.0149 27.8282 59.2896 27.7019L57.5644 27.5756L60.3837 23.8287L63.203 20.1239L65.4753 20.2923C66.7376 20.4186 67.8738 20.587 68 20.7554ZM86.9777 20.5449C87.2723 20.7133 88.6188 22.3973 90.0074 24.2076L92.5322 27.5756L90.849 27.7019C89.25 27.8282 89.2079 27.8703 89.2079 29.5543C89.2079 30.8594 89.0817 31.1962 88.5768 30.9857C87.3985 30.5647 81.7178 26.06 81.4233 25.3864C81.2971 25.0075 81.2971 23.8708 81.4654 22.8183C81.6758 21.5132 81.9703 20.8817 82.6436 20.6291C83.7797 20.166 86.3045 20.1239 86.9777 20.5449ZM111.215 20.587C112.015 20.9238 112.309 21.3869 112.52 22.8604C112.688 23.8708 112.688 25.0075 112.562 25.3864C112.267 26.06 106.587 30.5647 105.408 30.9857C104.903 31.1962 104.777 30.8594 104.777 29.5543C104.777 27.8703 104.735 27.8282 103.136 27.7019L101.453 27.5756L103.978 24.2076C105.366 22.3973 106.713 20.7133 107.007 20.5449C107.723 20.0818 109.995 20.1239 111.215 20.587ZM133.644 23.8708L136.421 27.5756L134.78 27.7861C133.265 27.9966 133.181 28.0808 132.97 29.7648L132.76 31.4909L129.099 28.7123L125.396 25.8916V23.7866C125.396 20.7133 125.859 20.2923 129.057 20.2502C130.824 20.2081 130.866 20.2502 133.644 23.8708ZM155.819 21.008C156.072 21.2606 156.282 22.4394 156.324 23.6603V25.8495L152.958 28.4597C151.106 29.9332 149.465 31.112 149.297 31.1541C149.129 31.1541 148.96 30.4384 148.876 29.5543C148.75 28.0387 148.708 27.9966 146.941 27.8703L145.173 27.744L147.782 24.2918C149.213 22.3973 150.602 20.6712 150.812 20.5028C151.443 20.0397 155.23 20.4186 155.819 21.008ZM177.448 23.7866C178.879 25.639 180.057 27.2809 180.099 27.4493C180.099 27.6177 179.384 27.7861 178.542 27.8703C176.985 27.9966 176.943 28.0387 176.817 29.8069L176.691 31.5751L173.24 28.9649C169.158 25.8916 169.158 25.8916 169.158 23.9971C169.158 20.7133 169.621 20.2502 172.946 20.3344C174.755 20.4186 174.881 20.5028 177.448 23.7866ZM199.75 20.7554C199.876 20.9238 200.087 22.0605 200.213 23.3235L200.381 25.5969L196.678 28.5439L192.933 31.4909L192.723 29.7648C192.512 28.0808 192.428 27.9966 190.955 27.8703C190.072 27.7861 189.356 27.6177 189.356 27.5335C189.356 27.2388 192.933 22.5236 194.153 21.1343C194.911 20.2502 195.332 20.166 197.225 20.2923C198.446 20.4186 199.582 20.6291 199.75 20.7554ZM12.4134 23.8708C12.2451 25.4706 12.0347 26.8178 11.9505 26.902C11.8664 27.0283 11.1931 26.5652 10.5198 25.8916L9.25745 24.6707L8.03716 25.8495C6.64854 27.1967 6.60646 27.1125 6.10151 23.4919L5.84904 21.5132L7.49013 22.4394L9.17329 23.3235L10.7723 22.2289C11.698 21.5974 12.4555 21.0922 12.5396 21.0922C12.6238 21.0501 12.5396 22.3131 12.4134 23.8708ZM56.2599 23.8708C56.0495 25.4706 55.7971 26.8178 55.7129 26.902C55.6287 27.0283 54.9555 26.5652 54.2822 25.8916L53.0198 24.6707L51.7995 25.8495L50.5792 27.0283L50.2847 25.0075C50.1164 23.8708 49.906 22.5657 49.7797 22.1447C49.5693 21.3869 49.6535 21.429 51.0842 22.3131C52.4307 23.113 52.7674 23.1972 53.8614 22.7341C54.5347 22.4394 55.3342 21.9763 55.5867 21.6395C56.5124 20.5449 56.6386 21.0501 56.2599 23.8708ZM100.401 21.7658C100.317 22.1868 100.064 23.534 99.9381 24.7549L99.6436 27.0283L98.5074 25.9337C97.0768 24.5865 96.9084 24.5865 95.4357 25.9758C94.3837 26.9862 94.2574 27.0283 94.2154 26.2705C94.2154 25.8495 94.0471 24.5865 93.8787 23.4919L93.5421 21.5132L95.099 22.3552C96.5718 23.1972 96.7401 23.1972 97.9604 22.5657C98.6758 22.1868 99.3911 21.7237 99.5173 21.4711C99.9381 20.7554 100.653 21.008 100.401 21.7658ZM144.121 22.8183C143.995 23.8287 143.743 25.1759 143.616 25.8074L143.406 27.0283L142.186 25.8495L140.965 24.6707L139.703 25.8916C139.03 26.5652 138.356 27.0283 138.272 26.902C138.188 26.8178 137.978 25.5548 137.809 24.0813L137.515 21.429L139.03 22.3552L140.545 23.2393L142.354 22.1447C143.322 21.5553 144.205 21.0922 144.248 21.0501C144.332 21.0501 144.29 21.85 144.121 22.8183ZM187.884 23.2393C187.421 27.1125 187.337 27.1967 185.948 25.8495L184.728 24.6707L183.507 25.8495C182.834 26.481 182.203 26.8599 182.077 26.6494C181.993 26.481 181.74 25.218 181.614 23.9129L181.319 21.5132L182.96 22.4394L184.644 23.3235L186.243 22.2289C187.168 21.5974 187.968 21.0922 188.01 21.0922C188.094 21.0501 188.052 22.0605 187.884 23.2393ZM54.4926 27.7861C55.5025 28.8386 56.0075 29.0491 57.7327 29.0491H59.7525V30.9436C59.7525 32.5013 60.005 33.1328 61.2253 34.4379L62.656 36.0798L61.2253 37.4691C60.005 38.6479 59.7525 39.1952 59.7525 40.7108V42.5211H57.9431C56.4703 42.5211 55.8812 42.7737 54.9134 43.7841C54.2401 44.4577 53.4827 45.0471 53.2302 45.0471C52.9777 45.0471 52.2203 44.4577 51.5471 43.7841C50.5372 42.7316 50.0322 42.5211 48.307 42.5211H46.2872V40.5424C46.2872 38.9005 46.0768 38.3532 44.9406 37.1744L43.5941 35.7851L44.9406 34.3958C46.0768 33.217 46.2872 32.6697 46.2872 31.0278V29.0491H48.307C50.0322 29.0491 50.5372 28.8386 51.5471 27.7861C52.2203 27.0704 52.8936 26.5231 53.0198 26.5231C53.1461 26.5231 53.8193 27.0704 54.4926 27.7861ZM98.6758 27.7861C99.6857 28.8386 100.191 29.0491 101.916 29.0491H103.936V31.0278C103.936 32.6697 104.146 33.217 105.282 34.3958L106.629 35.7851L105.282 37.1744C104.146 38.3532 103.936 38.9005 103.936 40.5424V42.5211H101.958C100.275 42.5211 99.7698 42.7316 98.4654 43.9946L96.9505 45.4681L95.5198 43.9946C94.3416 42.7737 93.7946 42.5211 92.2797 42.5211H90.4703V40.7529C90.4703 39.2794 90.2178 38.69 88.9134 37.3849L87.3565 35.7851L88.9134 34.1853C90.2178 32.8802 90.4703 32.2908 90.4703 30.8173V29.0491H92.2797C93.7525 29.0491 94.3416 28.7965 95.3094 27.7861C95.9827 27.0704 96.7401 26.5231 96.9926 26.5231C97.2451 26.5231 98.0025 27.0704 98.6758 27.7861ZM142.438 27.7861C143.448 28.8386 143.953 29.0491 145.678 29.0491H147.698V31.0278C147.698 32.6697 147.908 33.217 149.045 34.3958L150.391 35.7851L149.045 37.1744C147.908 38.3532 147.698 38.9005 147.698 40.5424V42.5211H145.678C143.953 42.5211 143.448 42.7316 142.438 43.7841C141.765 44.4577 141.007 45.0471 140.755 45.0471C140.503 45.0471 139.745 44.4577 139.072 43.7841C138.104 42.7737 137.515 42.5211 136.042 42.5211H134.233V40.7529C134.233 39.2794 133.98 38.69 132.76 37.4691L131.287 35.9535L132.76 34.5221C134.022 33.2591 134.233 32.8381 134.233 31.0699V29.0491H136.253C137.978 29.0491 138.483 28.8386 139.493 27.7861C140.166 27.0704 140.839 26.5231 140.965 26.5231C141.092 26.5231 141.765 27.0704 142.438 27.7861ZM186.201 27.7861C187.21 28.8386 187.715 29.0491 189.441 29.0491H191.46V31.112C191.46 32.4171 191.671 33.3433 192.092 33.6801C192.428 33.9748 192.723 34.3537 192.723 34.5221C192.723 35.0273 179.342 42.5211 178.416 42.5211C178.205 42.5211 177.995 41.637 177.995 40.5424C177.995 38.9005 177.785 38.3532 176.649 37.1744L175.302 35.7851L176.649 34.3958C177.785 33.217 177.995 32.6697 177.995 31.0278V29.0491H180.015C181.74 29.0491 182.245 28.8386 183.255 27.7861C183.928 27.0704 184.602 26.5231 184.728 26.5231C184.854 26.5231 185.527 27.0704 186.201 27.7861ZM25.5842 28.2913C26.3416 29.0491 26.2154 30.6489 25.3738 30.9015C24.953 31.0278 23.4802 31.2383 22.0916 31.4067C19.3144 31.7014 19.3144 31.6593 22.302 29.3017C24.3639 27.7019 24.8268 27.5335 25.5842 28.2913ZM40.354 29.4701C41.6164 30.3542 42.7104 31.2383 42.8787 31.4067C43.2995 31.8698 37.2822 31.112 36.7352 30.6489C35.9357 30.0174 36.0619 28.7544 36.9456 28.2492C37.9555 27.6177 37.9134 27.6177 40.354 29.4701ZM69.3466 28.2913C70.104 29.0491 69.9777 30.6489 69.1362 30.9015C68.7154 31.0278 67.2426 31.2383 65.854 31.4067C63.0768 31.7014 63.0768 31.6593 66.0644 29.3017C68.1263 27.7019 68.5891 27.5335 69.3466 28.2913ZM84.1164 29.4701C85.3787 30.3542 86.4728 31.2383 86.6411 31.4067C86.8936 31.7014 82.4332 31.2804 81.1287 30.9015C80.0347 30.5647 79.7401 29.0912 80.6659 28.4176C81.7178 27.6177 81.6337 27.5756 84.1164 29.4701ZM113.403 28.3755C114.077 28.8807 114.119 29.1333 113.74 29.9753C113.319 30.9015 112.899 31.0699 110.458 31.3225C108.901 31.4909 107.554 31.533 107.47 31.4488C107.302 31.2804 111.973 27.7861 112.352 27.7861C112.478 27.7861 112.983 28.0387 113.403 28.3755ZM128.131 29.5122C129.394 30.4805 130.446 31.3646 130.446 31.4488C130.446 31.7014 126.069 31.2383 124.891 30.9015C123.629 30.5226 124.176 27.7861 125.48 27.7861C125.691 27.7861 126.869 28.586 128.131 29.5122ZM156.998 28.2071C157.923 28.7123 158.05 29.9753 157.292 30.6489C156.998 30.8594 155.441 31.1962 153.8 31.3646L150.854 31.7014L153.337 29.7227C156.156 27.5335 155.903 27.6598 156.998 28.2071ZM171.978 29.4701C173.198 30.4384 174.208 31.2804 174.208 31.4067C174.208 31.6593 169.958 31.2804 168.653 30.9015C167.349 30.5226 167.938 27.7861 169.327 27.7861C169.537 27.7861 170.715 28.5439 171.978 29.4701ZM201.139 28.4176C201.602 28.9649 201.559 29.1754 200.886 29.6806C199.413 30.8173 197.436 31.5751 196.047 31.5751H194.701L197.183 29.6806C199.918 27.6177 200.381 27.4914 201.139 28.4176ZM28.9926 33.5538C30.6337 35.5746 30.6337 36.2903 28.9084 38.1848L27.4777 39.7004L22.807 39.1531C20.198 38.8584 18.0941 38.5216 18.0941 38.3953C18.0941 38.269 18.599 37.5954 19.2302 36.9639L20.3664 35.7851L19.1461 34.5221C18.4728 33.8064 18.0099 33.2591 18.1362 33.217C26.8045 31.7435 27.5198 31.7435 28.9926 33.5538ZM39.2599 32.4171C40.9431 32.6697 42.7525 32.9644 43.2995 33.0907L44.3094 33.3012L43.0891 34.5642L41.9109 35.7851L43.1312 37.0481C43.8045 37.7217 44.2674 38.3953 44.1411 38.4795C44.057 38.5637 41.953 38.9005 39.4703 39.1952C35.1782 39.7004 34.9258 39.7004 34.0421 38.9005C33.5792 38.4795 32.8639 37.5533 32.5273 36.9218C31.9802 35.8272 32.0223 35.6167 32.8218 34.3116C34.3367 31.8698 34.6733 31.7856 39.2599 32.4171ZM72.4183 33.1328C74.6906 35.6588 74.6906 35.6588 73.4282 37.4691C72.7971 38.3953 71.9134 39.2373 71.4505 39.4057C70.4827 39.7004 62.2773 38.7321 62.2773 38.3111C62.2773 38.1427 62.656 37.6796 63.1188 37.2586C64.2129 36.2482 64.1708 35.8693 62.8664 34.48L61.7723 33.3012L63.1609 33.0907C70.651 31.7856 71.156 31.7856 72.4183 33.1328ZM83.0223 32.4171C84.7055 32.6697 86.4728 32.9644 87.0198 33.0907L87.9876 33.3012L86.8936 34.6063L85.7995 35.9114L86.8515 37.006C87.4827 37.6375 87.9456 38.269 87.9456 38.3953C87.9456 38.5216 86.0099 38.8584 83.6114 39.1531C78.6461 39.7425 78.0149 39.5741 76.5842 37.2586C75.5743 35.6167 75.5743 35.6167 77.8045 33.1328C78.9827 31.8277 78.9406 31.8277 83.0223 32.4171ZM116.054 32.8381C116.559 33.3433 117.275 34.1853 117.653 34.7326C118.285 35.7009 118.285 35.8693 117.401 37.2586C115.97 39.5741 115.339 39.7425 110.374 39.1531C107.975 38.8584 106.04 38.5216 106.04 38.3953C106.04 38.269 106.502 37.6375 107.134 37.006L108.186 35.9114L107.092 34.5642C106.46 33.8485 106.04 33.2591 106.124 33.217C107.218 32.9644 113.235 32.0803 114.077 32.0382C114.666 32.0382 115.55 32.375 116.054 32.8381ZM126.658 32.4171C128.173 32.6697 130.025 32.9644 130.824 33.0907L132.213 33.3012L131.119 34.48C129.814 35.8693 129.772 36.2482 130.866 37.2586C131.329 37.6796 131.708 38.1427 131.708 38.3111C131.708 38.7321 123.502 39.7004 122.535 39.4057C122.072 39.2373 121.23 38.3953 120.641 37.5533C119.463 35.7851 119.589 35.2378 121.525 33.1328C122.745 31.8698 122.871 31.8277 126.658 32.4171ZM160.322 33.3012C162.131 35.1957 162.257 36.0377 160.953 37.7217C160.322 38.5637 159.522 39.3215 159.186 39.4478C158.47 39.7425 149.802 38.7321 149.802 38.3953C149.802 38.269 150.307 37.5954 150.938 36.9639L152.074 35.7851L150.854 34.5221C150.181 33.8064 149.718 33.2591 149.844 33.217C158.554 31.7435 158.891 31.7435 160.322 33.3012ZM170.715 32.4171C172.525 32.6697 174.46 32.9644 175.007 33.0907L176.017 33.3012L174.797 34.5642L173.619 35.7851L174.839 37.0481C175.512 37.7217 175.975 38.3953 175.849 38.4795C175.765 38.5637 173.619 38.9005 171.094 39.1952L166.55 39.7425L165.119 38.1848C163.309 36.2482 163.309 35.4062 165.119 33.5117C166.718 31.7856 166.339 31.8698 170.715 32.4171ZM195.037 33.4275C194.574 33.7643 194.027 33.9327 193.859 33.8064C193.396 33.5117 194.364 32.8381 195.205 32.8381C195.668 32.8381 195.584 33.0065 195.037 33.4275ZM32.3589 38.7742C32.8639 39.4478 33.7476 40.2477 34.2946 40.5003C35.0941 40.8792 35.2624 41.1739 35.052 42.1001C34.8837 42.9842 35.0941 43.4473 35.8936 44.0367C36.7773 44.7103 36.8614 45.005 36.4827 46.0154C36.2302 46.7732 36.2302 47.9099 36.4827 49.2992L36.9035 51.3621H35.4307C34.2946 51.3621 33.5792 51.0253 32.5273 50.0149L31.1386 48.6677L29.75 50.0149C28.8243 50.899 27.9406 51.3621 27.1411 51.3621H25.8787L25.9208 47.952C25.9208 45.2155 26.0891 44.4577 26.6362 44.1209C27.057 43.9104 27.3515 43.2368 27.3515 42.479C27.3515 41.5528 27.8565 40.7529 29.1609 39.4057C30.1287 38.3953 31.0545 37.5533 31.1807 37.5533C31.307 37.5112 31.8119 38.0585 32.3589 38.7742ZM78.6881 40.8371C79.0669 40.8371 79.151 41.216 78.9827 42.1001C78.7723 43.0684 78.9406 43.4894 79.7401 44.163C80.6659 44.8787 80.75 45.1313 80.3713 46.1417C79.9505 47.1942 80.0347 48.4993 80.6238 50.6043C80.8342 51.2358 80.5817 51.3621 79.2352 51.3621C77.9307 51.3621 77.2995 51.0674 76.3738 50.0991L75.1535 48.8361L73.849 50.0991C72.9233 51.0253 72.1238 51.3621 71.0718 51.3621H69.6411V48.0783C69.6411 45.2576 69.7673 44.7524 70.5669 44.0788C71.2822 43.5315 71.4505 43.0263 71.2822 42.1843C71.0718 41.216 71.2401 40.9213 72.1659 40.4161C72.7971 40.0793 73.6807 39.2794 74.1436 38.6058L74.9852 37.427L76.5842 39.111C77.4258 40.0793 78.3936 40.8371 78.6881 40.8371ZM122.451 40.8371C122.703 40.8371 122.871 41.5107 122.871 42.3106C122.871 43.1947 123.124 43.8683 123.545 44.1209C124.092 44.4156 124.26 45.2576 124.302 47.952L124.344 51.3621H123.082C122.282 51.3621 121.399 50.899 120.473 50.0149L119.084 48.6677L117.696 50.0149C116.644 51.0674 115.928 51.3621 114.708 51.3621C113.403 51.3621 113.193 51.2358 113.361 50.6043C113.951 48.4993 114.035 47.1942 113.614 46.1417C113.235 45.0892 113.319 44.8787 114.287 44.1209C115.129 43.4473 115.339 42.9842 115.129 42.1001C114.96 41.1739 115.129 40.8792 115.928 40.5003C116.475 40.2477 117.359 39.4478 117.864 38.7321L118.832 37.4691L120.431 39.1531C121.314 40.0793 122.24 40.8371 122.451 40.8371ZM164.656 39.3636C166.129 40.7529 166.634 41.5528 166.634 42.479C166.634 43.2368 166.97 43.9104 167.475 44.2472C168.191 44.7103 168.275 45.0892 168.064 46.2259C167.854 47.3626 167.391 47.8257 165.792 48.6256C164.361 49.3413 163.688 49.5097 163.352 49.1729C163.015 48.8361 162.468 49.0887 161.374 50.057C160.322 50.9832 159.438 51.3621 158.428 51.3621H157.04L157.46 49.8044C157.671 48.9624 157.755 47.4889 157.629 46.6048C157.376 45.2155 157.503 44.7524 158.26 43.9525C158.849 43.321 159.102 42.6474 158.975 41.9317C158.807 41.1739 159.017 40.795 159.733 40.4582C160.238 40.2477 161.121 39.4478 161.626 38.7742C162.173 38.0585 162.594 37.4691 162.636 37.4691C162.678 37.4691 163.562 38.3111 164.656 39.3636ZM24.7426 40.7108C25.7946 40.8792 26.0891 41.1318 26.0891 41.8475C26.0891 42.8579 25.3738 43.7841 24.5743 43.7841C24.3218 43.7841 22.9753 42.9 21.6287 41.8475L19.1461 39.9109L21.25 40.1635C22.4282 40.3319 23.9852 40.5845 24.7426 40.7108ZM42.9208 40.1635C42.9208 40.5424 38.2921 43.7841 37.7451 43.7841C36.8193 43.7841 36.104 42.6474 36.3985 41.7212C36.5669 41.1318 37.156 40.795 38.2079 40.6266C39.0495 40.4582 40.0594 40.2898 40.3961 40.2056C41.3639 40.0372 42.9208 39.9951 42.9208 40.1635ZM66.906 40.4582C68.3787 40.6687 69.6411 40.9213 69.6832 40.9634C69.7253 41.0055 69.8936 41.4686 70.0198 41.9738C70.2723 42.7316 70.104 43.0263 69.2624 43.4052C68.3367 43.8683 67.9579 43.6999 65.6015 41.9317C62.7401 39.8267 62.7822 39.7846 66.906 40.4582ZM86.6832 40.1635C86.6832 40.2477 85.6312 41.1318 84.3688 42.1001C82.2649 43.742 81.9282 43.8683 80.9604 43.4052C80.1188 43.0263 79.9505 42.7316 80.203 41.9738C80.3292 41.4686 80.4976 41.0055 80.5396 40.9634C80.7921 40.6687 86.6832 39.8688 86.6832 40.1635ZM110.668 40.4582C112.141 40.6687 113.53 41.1318 113.698 41.3844C114.287 42.2685 114.035 42.9421 113.025 43.4052C112.141 43.8262 111.72 43.6578 109.658 42.1001C108.354 41.1318 107.302 40.2477 107.302 40.1635C107.302 39.9109 107.639 39.953 110.668 40.4582ZM128.426 41.9317C125.48 44.1209 124.134 44.163 124.134 42.1001C124.134 40.9634 124.26 40.8792 126.153 40.6266C127.248 40.4582 128.342 40.2898 128.552 40.2056C128.804 40.1214 129.436 40.0372 129.983 40.0372C130.824 39.9951 130.572 40.3319 128.426 41.9317ZM156.871 40.8792C158.344 41.4265 157.839 43.7841 156.24 43.7841C155.693 43.7841 151.064 40.5003 151.064 40.1214C151.064 39.8688 155.735 40.4582 156.871 40.8792ZM173.787 40.8371C170.589 43.3631 169.495 43.9525 168.822 43.4894C168.443 43.2789 168.064 42.5632 167.98 41.9738C167.854 40.9634 167.98 40.8792 169.874 40.6266C170.968 40.4582 172.104 40.2898 172.314 40.2056C172.567 40.1214 173.198 40.0372 173.787 40.0372L174.839 39.9951L173.787 40.8371ZM21.25 43.0684C24.6164 45.7207 24.6164 45.7207 24.7426 47.8678C24.9109 50.7306 24.1956 51.4463 21.3342 51.2779C19.1881 51.1516 19.1881 51.1516 16.5372 47.7836C15.1065 45.9312 13.9282 44.2893 13.8862 44.0788C13.8862 43.9104 14.6436 43.7841 15.5693 43.7841H17.2525V42.1001C17.2525 41.1739 17.3787 40.4161 17.5891 40.4161C17.7575 40.4582 19.3985 41.637 21.25 43.0684ZM47.0025 43.7841L48.7698 43.9946L45.9926 47.6573L43.2575 51.3621H41.2797C40.1857 51.3621 38.9654 51.1095 38.5446 50.8148C37.703 50.2254 37.156 47.1521 37.703 46.1838C37.9134 45.847 39.5966 44.3735 41.448 42.9421L44.8144 40.3319L45.0248 41.9738C45.2352 43.4894 45.3193 43.5736 47.0025 43.7841ZM65.0545 43.1105C66.948 44.584 68.5891 46.1838 68.7154 46.689C69.0099 47.8678 68.3787 50.5622 67.6634 50.9832C67.3688 51.1937 66.2327 51.3621 65.1386 51.3621H63.1609L60.3416 47.6573L57.5644 43.9946L59.2896 43.8683C61.0149 43.742 61.0149 43.6999 61.0149 42.058C61.0149 41.1739 61.1411 40.4161 61.3515 40.4161C61.5198 40.4161 63.1609 41.637 65.0545 43.1105ZM89.2079 42.058C89.2079 43.6999 89.2079 43.742 90.9332 43.8683L92.6584 43.9946L89.8812 47.6573C87.104 51.3621 87.0619 51.3621 85.1683 51.3621C84.1164 51.3621 82.9381 51.1937 82.5173 50.9411C81.6337 50.478 81.0446 47.6994 81.5495 46.3522C81.802 45.5944 88.198 40.4582 88.9134 40.4161C89.0817 40.4161 89.2079 41.1739 89.2079 42.058ZM108.817 43.0263C110.752 44.4577 112.478 45.9733 112.604 46.3943C113.025 47.6994 112.352 50.478 111.51 50.9411C111.089 51.1937 109.869 51.3621 108.817 51.3621C106.923 51.3621 106.881 51.3621 104.104 47.6573L101.327 43.9946L103.052 43.8683C104.777 43.742 104.777 43.6999 104.777 42.058C104.777 41.1739 104.903 40.4161 105.03 40.4161C105.198 40.4161 106.881 41.5949 108.817 43.0263ZM132.97 42.1001V43.7841H134.653C135.579 43.7841 136.337 43.9104 136.337 44.0788C136.295 44.2893 135.116 45.9312 133.686 47.7836C131.035 51.1516 131.035 51.1516 128.889 51.2779C126.027 51.4463 125.312 50.7306 125.48 47.8678C125.606 45.7207 125.606 45.7207 128.973 43.0684C130.824 41.637 132.465 40.4582 132.676 40.4161C132.844 40.4161 132.97 41.1739 132.97 42.1001ZM153.084 43.2789C156.324 45.7207 156.829 46.6048 156.324 49.1729C155.946 51.1095 155.609 51.3621 152.916 51.3621H150.728L147.993 47.6573L145.215 43.9946L146.983 43.7841C148.666 43.5736 148.75 43.4894 148.876 41.9738C149.045 40.1635 148.792 40.0793 153.084 43.2789ZM176.733 41.9738C176.691 43.5736 176.691 43.5736 172.903 45.3418C169.874 46.7732 169.116 46.9837 169.243 46.4364C169.369 45.7628 175.723 40.4582 176.438 40.4161C176.606 40.4161 176.733 41.1318 176.733 41.9738ZM10.4777 45.7207C11.151 45.0892 11.7822 44.7103 11.9084 44.9208C11.9926 45.0892 12.3292 47.2363 12.6659 49.636L13.2129 54.0144L11.4035 55.6142C9.67824 57.1298 9.55201 57.214 8.50003 56.6667C7.86884 56.3299 6.90102 55.6142 6.35399 55.0248C5.38617 53.9723 5.38617 53.8881 5.84904 50.2254C6.14359 48.2046 6.43815 46.0575 6.56438 45.5102L6.77478 44.4998L8.03716 45.7207L9.25745 46.8995L10.4777 45.7207ZM53.2302 46.7311C53.4406 46.7311 54.1139 46.2259 54.7451 45.6365L55.8812 44.584L56.3862 48.7519C56.6807 51.0253 56.807 53.3829 56.6807 53.9723C56.5124 54.5196 55.7129 55.4879 54.8292 56.1194L53.2723 57.214L52.0099 56.4141C49.2748 54.7301 49.1065 54.1828 49.8639 49.3413C50.2005 46.9837 50.4951 44.9208 50.4951 44.7524C50.4951 44.584 51.0421 44.9629 51.6733 45.5944C52.3045 46.2259 53.0198 46.7311 53.2302 46.7311ZM96.9926 46.7311C97.203 46.7311 97.8763 46.2259 98.5074 45.6365L99.6436 44.584L100.106 48.0783C100.359 50.0149 100.696 52.0778 100.822 52.6672C101.074 53.9302 100.022 55.4037 98.1287 56.4983C96.9084 57.214 96.8664 57.214 95.1411 55.9931C93.0372 54.4775 93.0372 54.4354 93.8787 48.2888L94.3416 44.5419L95.4777 45.6365C96.1089 46.2259 96.7822 46.7311 96.9926 46.7311ZM140.755 46.7311C140.965 46.7311 141.639 46.2259 142.27 45.6365L143.448 44.5419L143.658 45.9312C144.963 54.1407 144.963 54.4354 142.354 56.1615L140.839 57.214L139.24 56.1194C138.314 55.53 137.473 54.5617 137.347 54.0144C137.178 53.4671 137.347 51.1516 137.641 48.8361L138.146 44.584L139.282 45.6786C139.871 46.268 140.545 46.7311 140.755 46.7311ZM17.0842 51.8673C16.8317 52.2883 16.1164 52.6251 15.5273 52.6251C14.307 52.6251 14.307 52.5409 13.6337 47.7836L13.3812 45.6786L15.4431 48.4151C17.1683 50.6464 17.4629 51.2779 17.0842 51.8673ZM48.7277 48.7098C48.5174 50.3096 48.2649 51.8252 48.1807 52.0778C47.8862 52.9198 45.9505 52.7093 45.4876 51.8252C45.151 51.1937 45.4456 50.5622 46.9604 48.4572C48.0124 47.0679 48.9381 45.8891 48.9802 45.8891C49.0644 45.8891 48.9381 47.1521 48.7277 48.7098ZM59.5 48.6677C61.604 51.4463 61.5619 52.6251 59.3738 52.6251C58.2376 52.6251 58.1535 52.4988 57.901 50.6043C57.7327 49.5097 57.4802 47.952 57.354 47.1521C57.0594 45.426 57.1015 45.4681 59.5 48.6677ZM92.448 49.2992C91.9852 52.2041 91.8589 52.4146 90.807 52.5409C90.0495 52.6251 89.5446 52.4146 89.2921 51.9094C88.9555 51.32 89.25 50.6043 90.807 48.5414C91.8589 47.0679 92.7847 45.9733 92.8688 46.0154C92.9109 46.0996 92.7426 47.5731 92.448 49.2992ZM104.188 49.7623C105.114 51.1095 105.24 51.4463 104.777 51.9936C104.441 52.3725 103.725 52.6251 103.136 52.5409C102 52.4146 101.79 51.8252 101.285 47.5731L101.032 45.6786L102.084 46.9416C102.631 47.6152 103.599 48.9203 104.188 49.7623ZM136.337 49.0466C136.084 50.6464 135.79 52.0778 135.663 52.2883C135.285 52.9198 133.602 52.6251 133.139 51.8673C132.718 51.2358 132.97 50.6885 134.569 48.4993C135.621 47.0679 136.547 45.9733 136.631 46.0575C136.715 46.1417 136.589 47.4889 136.337 49.0466ZM147.109 48.4572C149.297 51.32 149.297 52.4146 147.025 52.4146C145.847 52.4146 145.804 52.3725 145.342 49.1308C145.131 47.3626 144.963 45.8891 145.005 45.8891C145.089 45.8891 146.015 47.0679 147.109 48.4572ZM4.88122 48.7098C4.41834 52.3725 4.29211 52.7093 3.07181 52.5409C1.00993 52.2883 0.967849 51.2779 2.94557 48.7098C3.91339 47.3626 4.83914 46.3101 4.92329 46.3101C5.04953 46.3101 5.00745 47.4047 4.88122 48.7098ZM32.401 51.5726C33.1164 52.3304 33.8317 52.6251 35.0099 52.6251C36.5669 52.6251 36.6089 52.6672 36.6089 54.2249C36.6089 55.4037 36.9035 56.1194 37.6609 56.8351L38.7129 57.8455L37.6609 58.9401C36.9456 59.6979 36.6089 60.4978 36.6089 61.5924C36.6089 63.108 36.5669 63.1501 35.0099 63.1501C33.8317 63.1501 33.1164 63.4448 32.401 64.2026L31.3911 65.2551L30.2971 64.2026C29.5396 63.4869 28.7401 63.1501 27.6461 63.1501C26.1312 63.1501 26.0891 63.108 26.0891 61.5924C26.0891 60.4978 25.7525 59.6979 24.953 58.8559L23.8169 57.6771L24.953 56.4983C25.7104 55.6984 26.0891 54.8564 26.0891 53.9723C26.0891 52.7093 26.2154 52.6251 27.4777 52.6251C28.4456 52.6251 29.203 52.2883 29.8763 51.5726C30.4233 50.9832 30.9703 50.5201 31.1386 50.5201C31.307 50.5201 31.854 50.9832 32.401 51.5726ZM78.8144 52.6251C80.3292 52.6251 80.3713 52.6672 80.3713 54.2249C80.3713 55.4037 80.6659 56.1194 81.4233 56.8351L82.4753 57.8455L81.4233 58.9401C80.7079 59.6979 80.3713 60.4978 80.3713 61.5924C80.3713 63.108 80.3292 63.1501 78.7723 63.1501C77.5941 63.1501 76.8787 63.4448 76.1634 64.2026L75.1535 65.2551L74.0594 64.2026C73.302 63.4869 72.5025 63.1501 71.4084 63.1501C69.8936 63.1501 69.8515 63.108 69.8515 61.5924C69.8515 60.4978 69.5149 59.6979 68.7995 58.9401L67.7476 57.8455L68.7995 56.8351C69.557 56.1194 69.8515 55.4037 69.8515 54.2249C69.8515 52.6672 69.8936 52.6251 71.4505 52.6251C72.6287 52.6251 73.3441 52.3304 74.0594 51.5726L75.0693 50.5201L76.1634 51.5726C76.9208 52.2883 77.7203 52.6251 78.8144 52.6251ZM120.347 51.5726C121.02 52.2883 121.777 52.6251 122.745 52.6251C124.05 52.6251 124.134 52.7093 124.134 54.0565C124.134 54.9827 124.512 55.951 125.186 56.7509L126.196 57.9718L125.186 58.9401C124.428 59.6558 124.134 60.3715 124.134 61.5503C124.134 63.108 124.092 63.1501 122.535 63.1501C121.356 63.1501 120.641 63.4448 119.926 64.2026L118.916 65.2551L117.822 64.2026C117.064 63.4869 116.265 63.1501 115.171 63.1501C113.656 63.1501 113.614 63.108 113.614 61.5924C113.614 60.4978 113.277 59.6979 112.562 58.9401L111.51 57.8455L112.562 56.8351C113.319 56.1194 113.614 55.4037 113.614 54.2249C113.614 52.6672 113.656 52.6251 115.213 52.6251C116.391 52.6251 117.106 52.3304 117.822 51.5726C118.369 50.9832 118.916 50.5201 119.084 50.5201C119.252 50.5201 119.8 50.9832 120.347 51.5726ZM24.8268 53.6776C24.8268 54.4775 24.3639 55.3616 23.4802 56.2878L22.1337 57.6771L23.4802 59.0664C24.4901 60.1189 24.8268 60.8346 24.8268 62.0134C24.8268 62.8554 24.7005 63.5711 24.5743 63.5711C24.448 63.5711 23.5223 63.3606 22.5124 63.108C21.2079 62.7712 20.2822 62.7712 19.3985 63.0659C18.3466 63.4448 18.052 63.3606 17.2104 62.4765C16.453 61.6766 15.948 61.5082 15.1065 61.6766C14.1807 61.8871 13.8862 61.7608 13.6758 61.0872C13.5495 60.6241 12.7921 59.6979 11.9926 59.0664L10.604 57.8876L11.9926 56.8351C12.7921 56.2457 13.5916 55.3616 13.8441 54.8143C14.1807 54.0986 14.6436 53.8881 15.7797 53.8881C16.7055 53.8881 17.4208 53.6355 17.7154 53.1303C18.0941 52.5409 18.7674 52.4146 21.5025 52.4146H24.8268V53.6776ZM44.9827 53.2145C45.4035 53.5934 46.3292 53.8881 47.0446 53.8881C47.9282 53.8881 48.3911 54.0986 48.3911 54.4775C48.3911 54.8143 49.0644 55.6563 49.906 56.4141L51.4629 57.7613L49.948 58.9822C49.1065 59.6558 48.307 60.6241 48.1807 61.0872C47.9703 61.7608 47.6758 61.8871 46.75 61.6766C45.9084 61.5082 45.4035 61.6766 44.6461 62.4765C43.8466 63.3185 43.5099 63.4448 42.5421 63.108C41.7847 62.8554 40.7327 62.8554 39.6386 63.108L37.8713 63.4869V61.9292C37.8713 60.7925 38.1659 60.0768 38.9233 59.3611C39.5124 58.8138 39.9753 58.1402 39.9753 57.8876C39.9753 57.635 39.5124 56.9614 38.9233 56.4141C38.1659 55.6984 37.8713 54.9827 37.8713 53.9302V52.4146L41.0273 52.4567C43.2995 52.4988 44.4357 52.7093 44.9827 53.2145ZM68.5891 53.8881C68.5891 55.0248 68.2525 55.7405 67.3268 56.6246L66.0644 57.8455L67.3268 59.1506C68.2946 60.1189 68.5891 60.8346 68.5891 62.0555C68.5891 63.3606 68.4629 63.5711 67.8738 63.4027C65.854 62.8133 64.0446 62.7291 62.9926 63.108C61.9827 63.4869 61.7723 63.4027 61.1832 62.4765C60.6782 61.7187 60.1733 61.4661 59.3738 61.5503C58.5322 61.6345 57.8589 61.2135 56.4703 59.74L54.703 57.8034L56.1337 56.6667C56.9332 56.0773 57.7327 55.1932 57.8589 54.7301C58.0693 54.0986 58.4901 53.8881 59.5 53.8881C60.2995 53.8881 61.1832 53.5513 61.5619 53.1303C62.0669 52.583 62.9084 52.4146 65.3911 52.4146H68.5891V53.8881ZM88.703 53.1303C89.0396 53.5934 89.7971 53.8881 90.7228 53.8881C91.5223 53.8881 92.1535 54.0986 92.1535 54.3512C92.1535 54.6459 92.8268 55.4879 93.6683 56.2878L95.2253 57.7192L93.7104 58.9822C92.8688 59.6558 92.0693 60.6241 91.9431 61.0872C91.7327 61.7608 91.4381 61.8871 90.5124 61.6766C89.6708 61.5082 89.1659 61.6766 88.4084 62.4765C87.6089 63.3185 87.2723 63.4448 86.3045 63.108C85.5471 62.8554 84.4951 62.8554 83.401 63.108L81.6337 63.4869V61.9713C81.6337 60.8346 81.9703 60.1189 82.8961 59.1506L84.1584 57.8455L82.8961 56.6246C81.9703 55.7405 81.6337 55.0248 81.6337 53.9302V52.4146H84.8738C87.5248 52.4146 88.2822 52.5409 88.703 53.1303ZM112.352 53.9302C112.352 54.9827 112.057 55.6984 111.3 56.4141C110.71 56.9614 110.248 57.635 110.248 57.8876C110.248 58.1402 110.71 58.8138 111.3 59.3611C112.604 60.582 112.856 63.7816 111.636 63.4027C109.658 62.8133 107.807 62.7291 106.797 63.108C105.829 63.4869 105.577 63.4027 104.988 62.4344C104.399 61.5924 104.062 61.424 103.052 61.6345C102.042 61.845 101.748 61.6766 101.243 60.6662C100.906 60.0347 100.106 59.1506 99.4753 58.7717L98.3812 58.0139L99.854 56.793C100.696 56.1194 101.495 55.1932 101.621 54.7301C101.832 54.0986 102.252 53.8881 103.262 53.8881C104.062 53.8881 104.946 53.5513 105.324 53.1303C105.829 52.583 106.671 52.4146 109.153 52.4146H112.352V53.9302ZM132.465 53.1303C132.802 53.5934 133.559 53.8881 134.485 53.8881C135.285 53.8881 135.916 54.0986 135.916 54.3091C135.916 54.5617 136.673 55.4458 137.599 56.372L139.24 57.9718L138.188 58.5191C137.641 58.8559 136.673 59.74 136.084 60.4978C135.285 61.5503 134.78 61.845 134.149 61.6345C133.602 61.4661 132.97 61.7187 132.339 62.3081C131.54 63.0659 131.035 63.1922 129.941 62.9817C129.183 62.8554 127.837 62.8975 126.995 63.108L125.396 63.4869V61.9292C125.396 60.7504 125.691 60.0768 126.658 59.1506L127.879 57.9718L126.658 56.5404C125.817 55.6142 125.396 54.688 125.396 53.7618V52.4146H128.678C131.287 52.4146 132.045 52.5409 132.465 53.1303ZM156.114 52.6672C156.114 52.8356 154.936 53.425 153.505 54.0565C145.089 57.5508 142.817 58.4349 142.522 58.2244C142.312 58.0981 142.943 57.3403 143.869 56.5404C144.837 55.7405 145.594 54.8143 145.594 54.4775C145.594 54.0565 146.099 53.8881 147.193 53.8881C148.245 53.8881 148.918 53.6355 149.213 53.1303C149.592 52.5409 150.307 52.4146 152.916 52.4146C154.683 52.4146 156.114 52.5409 156.114 52.6672ZM10.5619 59.4874C12.7921 61.003 13.0025 61.7187 12.2872 66.3918C11.9926 68.6652 11.6139 70.6018 11.5297 70.686C11.4035 70.8123 10.8144 70.3913 10.2253 69.7598L9.08914 68.6231L7.91092 69.7598C7.27973 70.3913 6.64854 70.7702 6.5223 70.686C6.01735 70.1808 5.13369 62.1397 5.47032 61.424C5.89112 60.7083 8.41587 58.5191 8.87874 58.5191C9.00498 58.5191 9.7624 58.9401 10.5619 59.4874ZM54.5347 59.5716C56.7228 61.2135 56.807 61.6766 56.1758 66.2655C55.8391 68.5389 55.5025 70.5176 55.3342 70.6439C55.2079 70.7702 54.5768 70.3913 53.9456 69.7598L52.7674 68.6231L51.6312 69.7598C51.0421 70.3913 50.4109 70.7702 50.2847 70.686C50.1584 70.5597 49.8218 68.4547 49.5693 65.9708C49.0223 61.0451 49.1065 60.7925 51.5471 59.2769C53.104 58.3507 52.8936 58.3086 54.5347 59.5716ZM98.2971 59.4453C100.485 60.9609 100.696 61.7187 100.191 65.5077C99.8961 67.318 99.6015 69.2546 99.4753 69.8019L99.2649 70.7702L97.9604 69.6756L96.656 68.581L95.5619 69.6335C94.9307 70.265 94.3416 70.7281 94.2154 70.7281C93.7946 70.7281 92.9109 62.4344 93.2055 61.5082C93.4159 60.7504 96.1089 58.5191 96.7401 58.5191C96.8664 58.5191 97.5396 58.9401 98.2971 59.4453ZM140.965 58.8559C140.965 59.2348 139.114 60.2031 138.525 60.2031C138.104 60.161 140.124 58.5191 140.587 58.5191C140.797 58.5191 140.965 58.6875 140.965 58.8559ZM4.03963 63.3185C4.25003 63.4869 4.83914 69.4651 4.67082 69.4651C4.54458 69.4651 3.57676 68.2863 2.56686 66.897C0.799532 64.4552 0.757453 64.371 1.51488 63.529C2.10399 62.8554 3.40844 62.7291 4.03963 63.3185ZM16.5792 63.6132C17.1683 64.4973 17.0842 64.7078 15.2748 67.0233C14.2228 68.4126 13.3391 69.4651 13.255 69.3809C12.9604 69.0441 14.0124 63.3185 14.4332 63.0659C15.2748 62.5186 15.906 62.687 16.5792 63.6132ZM47.5495 63.1501C47.8441 63.1501 48.8961 69.0862 48.6436 69.3809C48.5594 69.4651 47.5916 68.3705 46.4976 66.9391C44.5619 64.4552 44.5198 64.3289 45.2773 63.529C45.698 63.0659 46.2872 62.8133 46.6238 62.9396C46.9183 63.0659 47.3391 63.1501 47.5495 63.1501ZM60.5099 63.6132C60.9728 64.371 60.8466 64.7499 59.2476 66.9391C58.2376 68.3284 57.3119 69.4651 57.1857 69.4651C56.7649 69.4651 57.7748 63.3606 58.2376 63.0659C59.0792 62.4765 59.9629 62.7291 60.5099 63.6132ZM91.6485 63.3606C91.8589 63.5711 92.6164 69.1704 92.448 69.3388C92.1535 69.5914 88.7872 64.9183 88.7872 64.2868C88.7872 63.0659 90.5966 62.4765 91.6485 63.3606ZM104.356 63.6132C104.861 64.4973 104.314 65.5919 101.79 68.6231L100.948 69.6756L101.201 66.7286C101.369 64.7499 101.705 63.6132 102.168 63.2343C103.136 62.4765 103.852 62.6028 104.356 63.6132ZM23.8169 64.8762C24.406 65.3393 24.9109 68.2863 24.5743 69.2125C24.3218 69.844 17.5891 75.3591 17.0842 75.3591C16.9579 75.3591 16.8317 74.6013 16.8317 73.6751V71.9911H15.1485C14.2228 71.9911 13.4654 71.8648 13.4654 71.7385C13.4654 71.2754 18.557 64.8762 19.2723 64.4131C20.0718 63.95 23.0174 64.2026 23.8169 64.8762ZM43.4258 65.1288C44.7723 66.6444 48.3911 71.4438 48.3911 71.7385C48.3911 71.8648 47.6337 71.9911 46.75 71.9911C45.1089 71.9911 45.0669 71.9911 44.9406 73.7172L44.8144 75.4433L41.1956 72.7068C37.4084 69.844 36.9456 69.0862 37.3243 66.6865C37.5768 65.1709 38.0396 64.6236 39.3441 64.2868C41.3218 63.8237 42.3738 64.0342 43.4258 65.1288ZM67.8317 64.792C68 64.9604 68.2946 65.9708 68.4208 67.0654C68.7574 69.423 68.6733 69.5914 64.2971 72.8752L61.057 75.3591L60.9307 73.7593C60.8045 72.2437 60.7203 72.2016 58.9951 71.9911L57.1436 71.7806L59.9208 68.1179C61.4357 66.1392 62.9084 64.371 63.203 64.2447C63.8763 63.9921 67.4109 64.371 67.8317 64.792ZM86.7673 64.4973C87.5248 65.1288 92.1535 71.3175 92.1535 71.6964C92.1535 71.8648 91.3961 71.9911 90.5124 71.9911C88.8713 71.9911 88.8292 71.9911 88.703 73.7172L88.5768 75.4433L84.9159 72.6647L81.2129 69.844V67.8653C81.2129 66.7286 81.4654 65.5498 81.7599 65.1709C82.6015 64.0342 85.6733 63.6553 86.7673 64.4973ZM111.678 64.8341C111.889 65.0446 112.141 66.1392 112.267 67.318C112.436 69.2125 112.352 69.5072 111.257 70.5176C109.911 71.7806 107.176 73.4225 105.745 73.8856C104.903 74.0961 104.777 74.0119 104.777 73.0857C104.777 72.0753 104.609 71.9911 103.094 71.9911C102.168 71.9911 101.411 71.8227 101.411 71.6543C101.411 71.1491 105.913 65.1709 106.797 64.4973C107.554 63.9079 110.963 64.1605 111.678 64.8341ZM128.72 64.1605C128.636 64.2447 127.837 64.6236 126.953 65.0025C125.775 65.4656 125.396 65.5077 125.522 65.1288C125.606 64.8762 126.238 64.4973 126.911 64.371C128.552 63.9921 128.931 63.95 128.72 64.1605ZM29.8763 65.4656C30.4233 66.055 31.0966 66.5181 31.349 66.5181C31.6015 66.5181 32.2748 66.055 32.8218 65.4656C33.453 64.792 34.2525 64.4131 35.0941 64.4131H36.3985L36.3144 67.6127C36.2723 70.1808 36.0619 71.0228 35.4307 71.7385C34.8416 72.3279 34.6312 73.0015 34.7995 73.7593C34.9678 74.6013 34.7995 74.896 34.1263 75.1486C33.6634 75.2749 32.7376 76.0748 32.0644 76.8747L30.8862 78.3061L29.9183 77.001C29.4134 76.3274 28.4876 75.5275 27.8985 75.2328C27.057 74.8539 26.8886 74.5592 27.099 73.5909C27.2674 72.6647 27.099 72.2016 26.3416 71.528C25.5 70.7702 25.3738 70.4334 25.7104 69.3388C26.0471 68.16 25.9629 67.2759 25.3738 65.1288C25.2055 64.5394 25.5 64.4131 27.057 64.4131C28.4876 64.4131 29.1188 64.6657 29.8763 65.4656ZM73.6386 65.4656C74.1857 66.055 74.8589 66.5181 75.1114 66.5181C75.3639 66.5181 76.0372 66.055 76.5842 65.4656C77.2154 64.792 78.0149 64.4131 78.8565 64.4131H80.1609L80.1188 67.5706C80.0768 69.844 79.8664 70.9807 79.3614 71.528C78.9827 71.949 78.6881 72.8752 78.6881 73.5909C78.6881 74.5171 78.4357 74.9381 77.8466 75.1486C77.3837 75.2749 76.5 76.0327 75.9109 76.8326L74.8589 78.264L73.3441 76.58C72.5446 75.6959 71.5768 74.9381 71.2401 74.9381C70.8193 74.9381 70.7352 74.6013 70.9035 73.5488C71.156 72.3279 71.0297 72.0332 70.104 71.4438C69.1782 70.8123 69.0941 70.6018 69.4728 69.4651C69.7673 68.6652 69.8094 67.6127 69.5149 66.3076L69.0941 64.4131H70.8614C72.2079 64.4131 72.8812 64.6657 73.6386 65.4656ZM117.401 65.4656C117.948 66.055 118.621 66.5181 118.874 66.5181C119.126 66.5181 119.8 66.055 120.347 65.4656C121.651 64.0763 124.26 63.95 124.05 65.2972C123.965 65.9708 122.829 66.6444 119.295 68.16C112.52 71.0649 113.151 70.9807 113.446 69.1283C113.572 68.2442 113.488 66.8128 113.277 65.9708L112.856 64.4131H114.624C115.97 64.4131 116.644 64.6657 117.401 65.4656ZM57.8589 73.2541H59.7525V75.2749C59.7525 77.001 59.9629 77.5062 61.0149 78.5166L62.2773 79.7375L61.057 81.0005C60.0471 82.0109 59.7946 82.7687 59.6683 84.4106L59.5421 86.5156L57.4381 86.6419C55.7971 86.7682 55.0396 87.0208 54.0297 88.0312L52.7674 89.2521L51.5471 87.9891C50.5372 86.9366 50.0322 86.7261 48.307 86.7261H46.2872V84.7474C46.2872 83.0634 46.0768 82.5582 44.8144 81.2531L43.3416 79.7375L44.8144 78.3061C46.0347 77.1273 46.2872 76.58 46.2872 75.0644V73.2541H47.9703C49.3169 73.2541 49.9901 72.9594 51.2104 71.8227L52.8094 70.3913L54.3664 71.8227C55.6708 73.0015 56.302 73.2541 57.8589 73.2541ZM98.4654 71.7806C99.6436 73.0015 100.191 73.2541 101.705 73.2541C103.178 73.2541 103.515 73.3804 103.515 74.054C103.515 74.6434 101.916 75.5275 96.3614 78.0535C92.406 79.8217 89.0396 81.2531 88.8292 81.2531C88.6609 81.2531 88.198 80.9163 87.8193 80.4953C87.1461 79.7796 87.1881 79.6533 88.5768 78.3061C89.7971 77.1273 90.0495 76.58 90.0495 75.0644V73.2541H91.8589C93.3738 73.2541 93.9208 73.0015 95.099 71.7806C95.8985 70.9807 96.656 70.3071 96.7822 70.3071C96.9084 70.3071 97.6659 70.9807 98.4654 71.7806ZM25.7946 73.0015C25.7104 73.1278 25.6683 73.5909 25.6683 74.0119C25.6683 74.6855 25.1213 74.896 22.4282 75.2749C20.6188 75.5275 19.104 75.6959 19.0619 75.6117C18.9777 75.5696 20.1139 74.6434 21.5867 73.5909C23.901 71.8227 24.2797 71.6964 25.0372 72.1595C25.5 72.4963 25.8367 72.8331 25.7946 73.0015ZM42.0792 74.9802L43.1312 75.8643L42.0792 75.6538C41.4901 75.5275 39.9753 75.2749 38.6287 75.1486C36.6931 74.896 36.2302 74.6855 36.0198 73.9277C35.8515 73.3383 36.0619 72.791 36.651 72.3279C37.4926 71.6122 37.6188 71.6122 39.2599 72.8331C40.2277 73.5488 41.4901 74.5171 42.0792 74.9802ZM69.1782 72.2016C69.7253 72.6226 69.8936 73.0857 69.6832 73.8014C69.4728 74.6855 69.0941 74.8539 66.401 75.2328C64.7178 75.4854 63.2872 75.6117 63.203 75.5696C63.0347 75.4433 67.8317 71.6122 68.1683 71.6122C68.2946 71.6122 68.7154 71.8648 69.1782 72.2016ZM84.4951 73.8014C85.7154 74.7276 86.6411 75.5275 86.557 75.6117C86.4728 75.6959 85 75.5275 83.2748 75.2328C80.4555 74.7697 80.1609 74.6434 80.0347 73.7172C79.8664 72.5805 81.0025 71.4017 81.802 71.8648C82.0545 72.0332 83.2748 72.9173 84.4951 73.8014ZM27.9406 76.6642C28.5297 77.1273 29.3292 78.0535 29.6659 78.685C30.1708 79.7375 30.1708 79.9901 29.4555 81.1689C27.9406 83.6107 27.2253 83.8212 22.7228 83.1476C20.5347 82.8108 18.4307 82.5161 18.0941 82.5161C17.7154 82.5161 17.9678 82.053 18.8515 81.1689L20.198 79.8217L18.8936 78.4745L17.6312 77.1694L21.9654 76.5379C24.3639 76.159 26.4258 75.8643 26.552 75.8222C26.7203 75.8222 27.3094 76.159 27.9406 76.6642ZM43.5099 77.001C44.2674 77.0431 44.2253 77.1694 43.2154 78.2219C41.8268 79.6954 41.8268 79.8638 43.1733 81.2952L44.2253 82.4319L40.7327 82.895C38.7971 83.1476 36.7352 83.4844 36.1461 83.6107C34.8837 83.8633 33.4109 82.8108 32.3169 80.9584C31.6015 79.7375 31.6436 79.6533 32.6535 78.1377C33.2426 77.2957 34.1263 76.4116 34.5471 76.2432C35.0099 76.0748 37.0297 76.2011 39.0495 76.4537C41.0693 76.7484 43.0891 77.001 43.5099 77.001ZM71.8292 76.7905C72.5025 77.3378 73.302 78.3061 73.5966 78.8955C74.1436 79.8638 74.1015 80.0743 73.0495 81.4215C71.3243 83.6949 70.9035 83.8212 66.2748 83.1055C63.9604 82.7687 62.0248 82.3898 61.8985 82.3056C61.8144 82.1793 62.1931 81.5478 62.8243 80.9163L63.9604 79.7375L62.8243 78.6008C62.1931 78.0114 61.7723 77.422 61.8985 77.2957C61.9827 77.2115 63.8763 76.8326 66.0644 76.4958C68.2525 76.159 70.1881 75.8643 70.3565 75.8222C70.4827 75.8222 71.156 76.2432 71.8292 76.7905ZM84.2847 76.6221L88.0297 77.1273L86.9357 78.264C85.6312 79.6533 85.5891 80.0322 86.6832 81.0426C87.1881 81.5057 87.3985 81.9688 87.1881 82.1793C86.9777 82.3898 85.0421 82.8108 82.854 83.1476C78.3936 83.8212 77.8045 83.6528 76.1634 81.0005L75.3639 79.7375L76.4159 78.1377C77.5099 76.5379 78.8144 75.738 79.9505 75.9906C80.2872 76.0748 82.2649 76.3695 84.2847 76.6221ZM34.0842 84.4106C34.7575 84.6211 34.9258 85 34.8416 86.1367C34.7995 87.105 35.0099 87.7365 35.557 88.1575C36.1881 88.6206 36.3144 89.1679 36.2302 91.1887C36.104 94.9356 36.5669 95.7776 39.0916 96.4091C40.6065 96.7459 41.5743 96.788 42.4579 96.4933C43.8466 95.9881 44.8985 96.7038 44.4357 97.8826C44.2674 98.3457 43.8045 98.4299 42.4159 98.2615C41.406 98.1352 39.807 98.2194 38.8391 98.472C37.156 98.9351 37.0718 99.0614 36.5669 101.209C36.2302 102.766 36.1881 103.861 36.4827 104.703C36.8614 105.755 36.7773 106.008 35.8936 106.682C35.052 107.313 34.8837 107.692 35.0941 108.66C35.2624 109.629 35.1362 109.965 34.3787 110.344C33.8738 110.597 32.9901 111.355 32.401 112.07L31.349 113.291L29.3292 111.397C27.8985 110.007 27.3515 109.165 27.3515 108.323C27.3515 107.608 27.0149 106.934 26.552 106.639C25.8787 106.218 25.7525 105.797 25.9629 104.661C26.0891 103.861 26.0471 102.303 25.8787 101.251C25.6263 99.4824 25.4579 99.2298 24.0693 98.6404C23.0174 98.2194 21.7971 98.051 20.3243 98.2194C17.8837 98.472 16.7055 97.7984 17.6733 96.6617C18.052 96.1986 18.4307 96.1144 19.2723 96.4512C20.4084 96.8722 23.2277 96.6196 24.4901 95.946C25.4159 95.4408 26.1733 91.8202 25.7104 90.1783C25.3738 89.1258 25.5 88.7469 26.2995 87.9891C27.057 87.2734 27.2674 86.7682 27.057 85.842C26.8886 84.9158 26.9728 84.6211 27.4777 84.6211C27.8565 84.6211 28.7822 83.8633 29.5396 82.9792L30.9282 81.2952L32.1065 82.7266C32.7376 83.5265 33.6213 84.2843 34.0842 84.4106ZM78.1832 84.6211C78.4777 84.6211 78.6881 85.0421 78.6881 85.5473C78.6881 86.3472 77.8466 86.9787 74.354 88.8732L70.0619 91.2308L69.557 90.1362C69.0941 89.1679 69.1782 88.9574 70.104 88.1575C70.8193 87.5681 71.156 86.9366 71.0718 86.263C70.9876 85.5473 71.4926 84.7053 72.8391 83.3581L74.6906 81.4636L76.2055 83.0213C77.0471 83.9054 77.9307 84.6211 78.1832 84.6211ZM23.2277 84.4106C25.1634 84.6632 25.6263 84.8737 25.8367 85.6315C26.005 86.2209 25.7946 86.7682 25.2055 87.2313C24.3639 87.947 24.2376 87.947 22.5966 86.7261C21.6287 86.0104 20.3664 85.0421 19.7773 84.579L18.7253 83.6949L19.7773 83.9054C20.3664 84.0317 21.8812 84.2843 23.2277 84.4106ZM42.0792 84.6211C38.1238 87.6944 37.6188 87.9891 36.7352 87.3576C36.1461 86.9366 35.9357 86.4314 36.0619 85.7157C36.2723 84.7053 37.0297 84.4948 42.7104 83.8633C42.9629 83.8212 42.6683 84.158 42.0792 84.6211ZM66.906 84.4106C68.1683 84.579 69.3466 84.9579 69.5149 85.2105C70.0619 86.0525 69.8515 86.9366 68.9678 87.4839C68.2104 87.9891 67.8738 87.8628 65.8119 86.263C63.2451 84.2843 62.6139 83.5686 63.7921 83.9054C64.255 84.0317 65.6436 84.2843 66.906 84.4106ZM21.1238 87.2313C22.8911 88.5785 24.448 90.0099 24.6164 90.473C24.8268 91.1887 24.7005 92.2412 24.1535 94.3883C23.901 95.3145 20.0297 95.8618 19.0619 95.104C18.3045 94.4725 13.4654 88.1575 13.4654 87.8207C13.4654 87.6944 14.2228 87.5681 15.1485 87.5681H16.8317V85.842C16.8317 83.8633 16.6213 83.8212 21.1238 87.2313ZM46.75 87.5681C47.6337 87.5681 48.3911 87.6944 48.3911 87.8628C48.3911 88.1996 43.3416 94.8093 42.7104 95.2724C42.1634 95.6934 38.755 95.2724 38.0817 94.7251C37.4505 94.1778 36.9876 91.736 37.3243 90.5151C37.4505 90.0099 39.1758 88.368 41.1956 86.8524L44.8144 84.1159L44.9406 85.842C45.0669 87.5681 45.1089 87.5681 46.75 87.5681ZM67.453 89.1679C69.3045 90.894 68.9678 91.8202 65.854 93.5884C64.3812 94.4304 63.0768 95.1461 62.9505 95.1461C62.8243 95.1461 61.4777 93.5042 59.9208 91.4413L57.1436 87.7786L58.9951 87.5681C60.7624 87.3576 60.8045 87.3155 60.9307 85.7578L61.057 84.2001L63.6659 86.1367C65.0966 87.2313 66.7797 88.6206 67.453 89.1679ZM81.2129 85.2526C80.0768 85.842 79.698 85.7999 80.1609 85.0842C80.2872 84.8316 80.8342 84.6211 81.3391 84.6211C82.2228 84.6632 82.2228 84.6632 81.2129 85.2526ZM7.99508 89.8836L9.00498 90.9361L10.1832 89.7994C10.8144 89.21 11.4456 88.789 11.5718 88.8732C11.656 88.9995 11.8664 90.1783 12.0347 91.5255L12.3292 93.9673L11.0248 93.2937C9.25745 92.4096 8.79458 92.4517 6.98518 93.6726L5.38617 94.7672L5.63864 93.5884C5.76488 92.9569 5.97527 91.6097 6.10151 90.5993C6.26983 89.631 6.5223 88.8311 6.69062 88.8311C6.85894 88.8311 7.44805 89.2942 7.99508 89.8836ZM51.7575 89.8836L52.7674 90.9361L53.9456 89.7994C54.5768 89.21 55.2079 88.789 55.2921 88.8732C55.6287 89.21 56.302 93.8831 56.0075 93.8831C55.8812 93.8831 55.2079 93.5042 54.4926 93.0411L53.2723 92.2412L51.4629 93.2937C49.7797 94.262 49.6535 94.3041 49.6535 93.5463C49.6535 91.9465 50.2005 88.8311 50.4951 88.8311C50.6213 88.8311 51.2104 89.2942 51.7575 89.8836ZM4.88122 90.8098C4.75498 91.2308 4.54458 92.6201 4.41834 93.9673C4.16587 95.9039 3.95547 96.367 3.19805 96.5775C2.65102 96.7038 2.01983 96.5354 1.51488 96.0302C0.715373 95.2303 0.757453 95.1461 2.56686 92.6622C4.41834 90.1362 5.30201 89.4205 4.88122 90.8098ZM15.3589 92.6201C17.0421 94.8514 17.2104 95.2303 16.7476 95.9881C16.2005 96.8301 15.3169 97.0406 14.4753 96.4933C14.2228 96.3249 13.8441 95.3566 13.7178 94.3041C13.5495 93.2516 13.3391 91.9044 13.2129 91.2308C13.0867 90.5993 13.0867 90.0941 13.2129 90.0941C13.2971 90.0941 14.2649 91.2308 15.3589 92.6201ZM48.307 93.3358C47.9703 95.8618 47.7178 96.367 46.9604 96.5775C46.3713 96.7459 45.8243 96.5354 45.3614 95.946C44.6461 95.104 44.6881 94.9777 46.5396 92.5359C47.5916 91.1887 48.5594 90.0941 48.6436 90.1783C48.6857 90.2625 48.5594 91.6939 48.307 93.3358ZM59.2476 92.6201C60.7624 94.7251 60.9728 95.2303 60.5941 95.9881C60.0891 96.9564 59.3738 97.0406 58.406 96.2828C57.7748 95.8197 56.6386 90.0941 57.1857 90.0941C57.3119 90.0941 58.2376 91.2308 59.2476 92.6201ZM11.5297 95.2724C12.6238 96.3249 12.9604 96.9143 12.75 97.63C12.4976 98.5562 9.84656 101.04 9.04706 101.04C8.16339 101.04 5.47032 98.4299 5.47032 97.5879C5.47032 96.5354 8.16339 93.8831 9.25745 93.8831C9.67824 93.8831 10.6881 94.5146 11.5297 95.2724ZM55.3342 95.1882C56.1337 95.9039 56.807 96.8301 56.807 97.2511C56.807 98.051 53.651 101.04 52.8094 101.04C52.557 101.04 51.5891 100.409 50.7055 99.6508C49.3589 98.472 49.1485 98.0931 49.401 97.1248C49.6535 96.0302 52.2624 93.8831 53.3144 93.8831C53.6089 93.8831 54.4926 94.4725 55.3342 95.1882ZM4.33419 98.6404C4.46042 98.9772 4.67082 100.535 4.83914 102.135L5.13369 105.04L3.19805 102.514C2.14607 101.124 1.2624 99.7771 1.2624 99.5245C1.2624 98.2615 3.91339 97.5037 4.33419 98.6404ZM16.9579 99.0193C17.4208 99.6929 16.6634 101.082 14.2649 103.987L13.4233 105.04L13.6758 102.935C14.2649 98.2194 14.307 98.051 15.4852 98.1773C16.0743 98.2615 16.7476 98.6404 16.9579 99.0193ZM48.5174 100.619C49.0644 104.619 48.8119 104.871 46.7921 102.177C45.2773 100.114 45.0669 99.6508 45.4456 98.893C45.7822 98.3036 46.2451 98.0931 47.0446 98.1773C48.0545 98.3036 48.2228 98.5141 48.5174 100.619ZM24.2797 99.9034C24.7005 100.367 24.9109 104.577 24.5322 105.082C24.1114 105.629 17.8837 110.302 17.5471 110.302C17.4208 110.302 17.2525 109.586 17.1683 108.702C17.0421 107.229 16.9579 107.145 15.4852 107.018C14.6015 106.934 13.8862 106.766 13.8862 106.639C13.8862 106.513 15.1485 104.829 16.6634 102.85L19.4827 99.2719L21.7129 99.4403C22.9753 99.5666 24.1114 99.7771 24.2797 99.9034ZM43.1312 99.6929C44.1832 100.409 47.6337 105.334 47.2971 105.629C47.0867 105.797 46.0347 106.639 44.9406 107.524L43.005 109.081L40.4381 107.103C39.0495 106.008 37.7872 104.787 37.6188 104.324C37.156 102.85 37.8713 100.156 38.8391 99.7771C39.9753 99.314 42.5421 99.2719 43.1312 99.6929ZM12.4134 103.019C12.2451 104.619 12.0347 105.966 11.9505 106.05C11.8664 106.176 11.1931 105.713 10.5198 105.04L9.25745 103.819L8.03716 104.998C6.64854 106.345 6.60646 106.303 6.10151 102.598L5.84904 100.619L7.36389 101.503C8.66834 102.261 9.00498 102.345 10.099 101.882C10.7723 101.587 11.5718 101.124 11.8243 100.788C12.6238 99.8192 12.7079 100.072 12.4134 103.019ZM51.2946 102.85C50.2426 103.692 50.2847 103.735 49.948 102.008L49.6956 100.661L50.9579 101.377L52.1782 102.093L51.2946 102.85ZM25.5842 107.439C26.3416 108.197 26.2154 109.797 25.3738 110.05C24.953 110.176 23.4802 110.386 22.0916 110.555C19.3144 110.849 19.3144 110.807 22.302 108.45C24.3639 106.808 24.8268 106.682 25.5842 107.439ZM39.8911 108.239C42.4159 110.092 42.2896 110.471 39.1337 110.302C37.198 110.176 36.1881 109.629 36.1881 108.618C36.1881 107.945 37.156 106.976 37.9134 106.934C38.0396 106.934 38.9233 107.524 39.8911 108.239ZM28.9926 112.702C30.6337 114.723 30.6337 115.438 28.8664 117.333L27.4777 118.891L23.1015 118.343C20.703 118.006 18.557 117.67 18.3886 117.585C18.1782 117.459 18.557 116.828 19.1881 116.154L20.3664 114.933L19.1461 113.67C18.4728 112.954 18.0099 112.407 18.1362 112.365C27.2253 110.807 27.4357 110.807 28.9926 112.702ZM38.4183 111.523C39.5966 111.776 39.5545 111.776 36.6089 114.386C34.9678 115.859 33.453 117.038 33.2847 117.038C33.1164 117.038 32.7376 116.533 32.4431 115.944C32.0223 115.017 32.1065 114.638 32.8639 113.418C34.2104 111.186 35.3466 110.807 38.4183 111.523ZM31.9381 117.375C32.2748 118.049 31.8119 118.722 28.9926 121.501C27.1832 123.311 25.6683 124.574 25.6683 124.321C25.6683 124.027 26.0471 123.606 26.5099 123.353C27.057 123.058 27.3515 122.469 27.3515 121.627C27.3515 120.701 27.8565 119.901 29.1609 118.554C31.2228 116.449 31.3911 116.365 31.9381 117.375ZM24.7426 119.859C25.9208 120.069 26.1312 120.238 26.005 121.164C25.7525 123.269 24.7005 123.269 21.8391 121.08L19.1461 119.059L21.25 119.312C22.4282 119.48 23.9852 119.733 24.7426 119.859ZM21.0817 122.132C22.9332 123.564 24.5743 124.953 24.7005 125.29C25.0372 126.216 21.1238 130.594 20.0718 130.426C19.2723 130.3 13.9703 124.111 13.8862 123.227C13.8862 123.058 14.6436 122.932 15.5693 122.932H17.2525V121.248C17.2525 120.322 17.3787 119.564 17.505 119.564C17.6312 119.564 19.2302 120.701 21.0817 122.132ZM10.4777 124.869C11.151 124.237 11.7822 123.858 11.9084 124.069C11.9926 124.237 12.3292 126.384 12.6659 128.784L13.2129 133.162L11.4035 134.762C9.67824 136.278 9.55201 136.362 8.50003 135.815C7.86884 135.478 6.90102 134.762 6.35399 134.173C5.38617 133.12 5.38617 133.036 5.84904 129.373C6.14359 127.353 6.43815 125.206 6.56438 124.658L6.77478 123.648L8.03716 124.869L9.25745 126.048L10.4777 124.869ZM17.0842 131.015C16.8317 131.436 16.1164 131.773 15.5273 131.773C14.307 131.773 14.307 131.689 13.6337 126.932L13.3812 124.827L15.4431 127.563C17.1683 129.794 17.4629 130.426 17.0842 131.015ZM4.88122 127.858C4.41834 131.521 4.29211 131.857 3.07181 131.689C1.00993 131.436 0.967849 130.426 2.94557 127.858C3.91339 126.511 4.83914 125.458 4.92329 125.458C5.04953 125.458 5.00745 126.553 4.88122 127.858ZM19.2302 131.689C19.6089 131.942 19.0198 133.036 17.2104 135.562C15.8218 137.541 14.5174 139.393 14.349 139.688C14.0966 140.109 13.5916 139.814 12.3713 138.635L10.7302 137.036L12.75 135.057C14.2228 133.541 15.0644 133.036 15.9901 133.036C16.7896 133.036 17.4208 132.741 17.7575 132.194C18.3466 131.268 18.4728 131.226 19.2302 131.689ZM11.0669 138.972C13.0446 140.572 13.0446 141.709 11.2352 144.866C9.9728 147.013 6.9431 150.213 6.5223 149.792C6.01735 149.329 5.13369 141.246 5.47032 140.572C5.97527 139.688 8.45795 137.667 9.04706 137.667C9.29953 137.667 10.1832 138.257 11.0669 138.972ZM3.19805 142.13C3.95547 142.34 4.16587 142.803 4.41834 144.74C4.54458 146.087 4.75498 147.476 4.88122 147.855C5.30201 149.287 4.41834 148.571 2.60894 146.087C1.00993 143.898 0.88369 143.519 1.34656 142.761C1.93567 141.793 1.93567 141.793 3.19805 142.13Z" fill="#8F2C5A"/>
</svg>
