<svg width="24" height="30" viewBox="0 0 24 30" fill="none" xmlns="http://www.w3.org/2000/svg">
<g id="Icon">
<path id="Vector" d="M21.6897 20.9929C22.0022 21.3054 22.1584 21.6848 22.1584 22.1312C22.1584 22.5776 22.0022 22.957 21.6897 23.2695L19.4131 25.5462C19.1006 25.8587 18.7211 26.0149 18.2747 26.0149C17.8283 26.0149 17.4489 25.8587 17.1364 25.5462L12.2148 20.6246L7.29326 25.5462C6.98078 25.8587 6.60134 26.0149 6.15493 26.0149C5.70853 26.0149 5.32909 25.8587 5.01661 25.5462L2.73996 23.2695C2.42748 22.957 2.27124 22.5776 2.27124 22.1312C2.27124 21.6848 2.42748 21.3054 2.73996 20.9929L7.66154 16.0713L2.73996 11.1497C2.42748 10.8372 2.27124 10.4578 2.27124 10.0114C2.27124 9.565 2.42748 9.18555 2.73996 8.87307L5.01661 6.59643C5.32909 6.28395 5.70853 6.1277 6.15493 6.1277C6.60134 6.1277 6.98078 6.28395 7.29326 6.59643L12.2148 11.518L17.1364 6.59643C17.4489 6.28395 17.8283 6.1277 18.2747 6.1277C18.7211 6.1277 19.1006 6.28395 19.4131 6.59643L21.6897 8.87307C22.0022 9.18555 22.1584 9.565 22.1584 10.0114C22.1584 10.4578 22.0022 10.8372 21.6897 11.1497L16.7681 16.0713L21.6897 20.9929Z" fill="#CB2B5E"/>
</g>
</svg>
