<svg width="18" height="19" viewBox="0 0 18 19" fill="none" xmlns="http://www.w3.org/2000/svg">
<g clip-path="url(#clip0_76_30)">
<path d="M16.7143 15.6922V7.97789C16.5 8.21896 16.269 8.43994 16.0212 8.64083C14.2266 10.0203 12.8002 11.152 11.7422 12.0359C11.4007 12.3239 11.1228 12.5482 10.9085 12.7089C10.6942 12.8696 10.4046 13.032 10.0396 13.1961C9.67467 13.3601 9.33147 13.4422 9.01004 13.4422H9H8.98995C8.66853 13.4422 8.32533 13.3601 7.96038 13.1961C7.59542 13.032 7.3058 12.8696 7.09152 12.7089C6.87723 12.5482 6.59933 12.3239 6.25781 12.0359C5.19978 11.152 3.77344 10.0203 1.97879 8.64083C1.73103 8.43994 1.5 8.21896 1.28571 7.97789V15.6922C1.28571 15.7792 1.31752 15.8546 1.38114 15.9182C1.44475 15.9818 1.52009 16.0136 1.60714 16.0136H16.3929C16.4799 16.0136 16.5552 15.9818 16.6189 15.9182C16.6825 15.8546 16.7143 15.7792 16.7143 15.6922ZM16.7143 5.13525C16.7143 5.12186 16.7143 5.08503 16.7143 5.02476C16.7143 4.96449 16.7143 4.91929 16.7143 4.88916C16.7143 4.85903 16.7126 4.8155 16.7093 4.75858C16.7059 4.70166 16.6959 4.65981 16.6791 4.63302C16.6624 4.60624 16.644 4.5761 16.6239 4.54262C16.6038 4.50914 16.5737 4.48403 16.5335 4.46729C16.4933 4.45054 16.4464 4.44217 16.3929 4.44217H1.60714C1.52009 4.44217 1.44475 4.47398 1.38114 4.5376C1.31752 4.60121 1.28571 4.67655 1.28571 4.7636C1.28571 5.8886 1.7779 6.83949 2.76228 7.61628C4.05469 8.63414 5.39732 9.69552 6.79018 10.8004C6.83036 10.8339 6.94754 10.9327 7.14174 11.0967C7.33594 11.2608 7.48996 11.3864 7.60379 11.4734C7.71763 11.5605 7.86663 11.6659 8.05078 11.7898C8.23493 11.9137 8.40402 12.0058 8.55804 12.0661C8.71205 12.1263 8.85603 12.1565 8.98995 12.1565H9H9.01004C9.14397 12.1565 9.28795 12.1263 9.44196 12.0661C9.59598 12.0058 9.76507 11.9137 9.94922 11.7898C10.1334 11.6659 10.2824 11.5605 10.3962 11.4734C10.51 11.3864 10.6641 11.2608 10.8583 11.0967C11.0525 10.9327 11.1696 10.8339 11.2098 10.8004C12.6027 9.69552 13.9453 8.63414 15.2377 7.61628C15.5993 7.32833 15.9358 6.94162 16.2472 6.45612C16.5586 5.97063 16.7143 5.53034 16.7143 5.13525ZM18 4.7636V15.6922C18 16.1341 17.8426 16.5125 17.5279 16.8272C17.2132 17.142 16.8348 17.2993 16.3929 17.2993H1.60714C1.16518 17.2993 0.78683 17.142 0.472098 16.8272C0.157366 16.5125 0 16.1341 0 15.6922V4.7636C0 4.32164 0.157366 3.94329 0.472098 3.62856C0.78683 3.31383 1.16518 3.15646 1.60714 3.15646H16.3929C16.8348 3.15646 17.2132 3.31383 17.5279 3.62856C17.8426 3.94329 18 4.32164 18 4.7636Z" fill="white"/>
</g>
<defs>
<clipPath id="clip0_76_30">
<rect width="18" height="18" fill="white" transform="matrix(1 0 0 -1 0 18.585)"/>
</clipPath>
</defs>
</svg>
