<svg width="15" height="15" viewBox="0 0 15 15" fill="none" xmlns="http://www.w3.org/2000/svg">
<g id="Icon" clip-path="url(#clip0_178_244)">
<path id="Vector" d="M4.125 14.5898C4.07943 14.5898 4.03613 14.5807 3.99512 14.5625C3.9541 14.5443 3.91536 14.5215 3.87891 14.4941C3.80599 14.4212 3.76953 14.3369 3.76953 14.2412C3.76953 14.1455 3.80599 14.0612 3.87891 13.9883L9.93555 7.94531L3.87891 1.88867C3.80599 1.81575 3.76953 1.73145 3.76953 1.63574C3.76953 1.54004 3.80599 1.46029 3.87891 1.39648C3.94271 1.32357 4.02474 1.28711 4.125 1.28711C4.22526 1.28711 4.30729 1.32357 4.37109 1.39648L10.6738 7.68555C10.7376 7.75846 10.7695 7.84277 10.7695 7.93848C10.7695 8.03418 10.7376 8.11849 10.6738 8.19141L4.37109 14.4941C4.33464 14.5215 4.2959 14.5443 4.25488 14.5625C4.21387 14.5807 4.17057 14.5898 4.125 14.5898Z" fill="white"/>
</g>
<defs>
<clipPath id="clip0_178_244">
<rect width="14" height="14" fill="white" transform="matrix(1 0 0 -1 0.625 14.5898)"/>
</clipPath>
</defs>
</svg>
