<svg width="557" height="477" viewBox="0 0 557 477" fill="none" xmlns="http://www.w3.org/2000/svg">
<path d="M143.293 0C152.632 0.5647 161.898 1.13548 171.13 2.77114C172.037 2.92598 172.944 3.08082 173.878 3.24035C176.801 3.74542 179.721 4.26698 182.641 4.79332C183.661 4.97554 184.681 5.15775 185.732 5.34549C232.151 13.6967 277.322 26.4859 321.189 44.3382C322.298 44.7815 323.407 45.2249 324.55 45.6816C356.776 58.634 388.101 75.1241 417.069 94.6681C417.999 95.2883 418.929 95.9085 419.887 96.5475C457.589 121.743 494.386 152.407 523.345 188.138C524.331 189.293 525.316 190.449 526.332 191.639C535.433 202.35 543.715 213.617 551.701 225.244C552.752 226.772 553.821 228.288 554.914 229.784C558 234.159 558 234.159 558 237.377C556.457 240.435 554.516 242.628 552.224 245.133C548.52 249.278 544.958 253.465 541.539 257.866C537.313 263.284 532.959 268.567 528.543 273.818C524.229 278.95 519.966 284.104 515.836 289.397C511.089 295.48 506.153 301.378 501.195 307.276C495.735 313.787 490.439 320.42 485.224 327.144C479.41 325.238 473.784 323.155 468.226 320.555C423.782 299.892 423.782 299.893 376.638 291.194C377.854 291.92 379.071 292.646 380.324 293.394C391.709 300.235 402.778 307.406 413.603 315.161C414.271 315.636 414.939 316.111 415.627 316.601C426.237 324.179 436.241 332.424 446.164 340.939C448.015 342.515 449.888 344.063 451.765 345.606C457.674 350.474 463.311 355.588 468.763 360.997C469.696 361.888 469.696 361.888 470.648 362.797C472.355 364.536 472.355 364.536 474.827 367.887C474.438 372.039 473.218 375.193 471.258 378.799C470.744 379.758 470.23 380.718 469.7 381.707C469.128 382.757 468.557 383.807 467.969 384.889C461.69 396.622 455.592 408.444 449.558 420.314C440.742 437.64 431.833 454.911 422.845 472.142C415.925 471.608 409.034 470.994 402.155 470.04C383.941 467.532 366.121 466.91 347.758 467.349C348.485 468.292 349.212 469.236 349.96 470.209C383.569 514.361 383.569 514.361 383.569 535.653C357.133 544.857 330.65 553.909 304.151 562.915C303.344 563.19 302.536 563.464 301.705 563.747C291.643 567.166 281.58 570.584 271.517 574C268.914 570.48 266.887 567.022 264.947 563.065C255.258 544.515 240.821 531.971 223 522.472C221.969 521.906 220.939 521.341 219.877 520.759C215.005 518.263 210.297 516.424 205.004 515.165C204.068 514.933 203.132 514.702 202.167 514.464C200.304 514.019 198.432 513.616 196.551 513.261C193.877 512.627 191.873 511.915 189.499 510.488C188.062 506.871 187.025 503.468 186.034 499.704C185.838 498.972 185.642 498.241 185.44 497.487C183.694 490.968 182.017 484.431 180.348 477.89C180.082 476.85 179.817 475.81 179.543 474.738C178.139 469.246 176.74 463.754 175.345 458.26C173.904 452.594 172.448 446.931 170.99 441.269C169.867 436.902 168.756 432.532 167.648 428.161C167.116 426.071 166.58 423.983 166.04 421.895C165.287 418.982 164.55 416.065 163.816 413.146C163.59 412.288 163.365 411.431 163.133 410.547C161.995 405.944 161.346 402.376 162.93 397.845C165.42 395.655 167.695 393.928 170.439 392.153C171.22 391.636 172 391.118 172.805 390.585C175.271 388.976 177.757 387.411 180.258 385.862C180.997 385.404 181.737 384.947 182.498 384.475C196.936 375.72 212.476 369.528 228.01 363.207C230.649 362.082 233.178 360.867 235.706 359.499C210.898 350.203 186.158 341.264 160.62 334.334C159.313 333.973 158.005 333.613 156.658 333.241C116.878 322.368 75.1636 315 33.9785 314.52C32.9068 314.497 31.835 314.473 30.7307 314.449C29.3245 314.436 29.3245 314.436 27.8899 314.423C24.8184 313.84 23.9847 312.826 21.9992 310.367C21.0443 306.87 20.2706 303.489 19.591 299.934C19.3764 298.868 19.1619 297.802 18.9408 296.703C18.2342 293.175 17.5466 289.643 16.8596 286.111C16.3735 283.658 15.8863 281.206 15.3982 278.754C14.3775 273.612 13.3656 268.468 12.3605 263.323C11.0721 256.729 9.76727 250.139 8.45649 243.55C7.44986 238.485 6.44935 233.419 5.45096 228.352C4.97185 225.921 4.49145 223.492 4.00974 221.062C3.33757 217.664 2.67303 214.265 2.01072 210.865C1.81094 209.861 1.61115 208.857 1.40531 207.823C0.510302 203.187 -0.199752 198.887 0.0509336 194.129C58.5929 168.472 120.553 155.978 183.724 150.99C184.982 150.881 186.239 150.772 187.535 150.66C199.491 149.678 211.448 149.397 223.433 149.117C225.529 149.065 227.626 149.013 229.723 148.96C234.798 148.834 239.873 148.712 244.948 148.593C207.579 136.663 169.472 127.889 130.586 123.428C131.255 108.372 132.662 93.4866 134.381 78.5234C134.638 76.242 134.896 73.9606 135.153 71.6791C135.822 65.7469 136.498 59.8157 137.175 53.8845C137.868 47.8031 138.555 41.7208 139.243 35.6386C140.586 23.7583 141.937 11.8789 143.293 0Z" fill="#A6214E"/>
</svg>
