<svg width="10" height="40" viewBox="0 0 10 40" fill="none" xmlns="http://www.w3.org/2000/svg">
<g id="Icon" clip-path="url(#clip0_62_2004)">
<path id="Vector" d="M9.31578 14.7261C9.41266 14.8229 9.46109 14.9342 9.46109 15.06C9.46109 15.1858 9.41266 15.2971 9.31578 15.3939L3.605 21.0985L9.31578 26.8031C9.41266 26.8999 9.46109 27.0112 9.46109 27.137C9.46109 27.2628 9.41266 27.3741 9.31578 27.4709L8.58922 28.1966C8.49234 28.2934 8.38094 28.3418 8.255 28.3418C8.12906 28.3418 8.01766 28.2934 7.92078 28.1966L1.14922 21.4324C1.05234 21.3356 1.00391 21.2243 1.00391 21.0985C1.00391 20.9727 1.05234 20.8614 1.14922 20.7646L7.92078 14.0004C8.01766 13.9036 8.12906 13.8552 8.255 13.8552C8.38094 13.8552 8.49234 13.9036 8.58922 14.0004L9.31578 14.7261Z" fill="white"/>
</g>
<defs>
<clipPath id="clip0_62_2004">
<rect width="9.3" height="39" fill="white" transform="matrix(1 0 0 -1 0.349976 39.6699)"/>
</clipPath>
</defs>
</svg>
