<svg width="100" height="100" viewBox="0 0 100 100" fill="none" xmlns="http://www.w3.org/2000/svg">
<g clip-path="url(#clip0_176_766)">
<path d="M6.83726 63.9609C8.30465 61.1186 7.63361 58.0516 7.04169 55.0417C6.9245 54.4245 6.80732 53.8073 6.69013 53.1901C6.51026 52.251 6.32919 51.3122 6.14399 50.3742C5.37027 46.3417 5.20798 42.5841 7.08336 38.8333C7.35458 37.9293 7.28839 37.4819 7.14586 36.5625C6.86461 34.5772 7.45927 33.1345 8.56252 31.5C8.7069 31.335 8.85127 31.17 9.00002 31C8.7869 30.7387 8.57377 30.4775 8.35419 30.2083C7.66669 29.3333 7.66669 29.3333 7.33336 28.6667C7.11336 28.9967 6.89336 29.3267 6.66669 29.6667C6.33669 29.5567 6.00669 29.4467 5.66669 29.3333C5.73014 26.2992 6.2799 23.8604 8.362 21.5677C10.8026 19.2854 12.7826 18.5483 16.1094 18.599C17 18.6667 17 18.6667 18 19C17.89 18.67 17.78 18.34 17.6667 18C17.3204 14.7496 17.9148 12.4847 19.9206 9.91406C21.6753 7.98501 23.6568 6.80409 26.2865 6.58854C27.0855 6.58402 27.8703 6.60566 28.6667 6.66666C28.5567 6.99667 28.4467 7.32666 28.3334 7.66666C28.0034 7.66666 27.6734 7.66666 27.3334 7.66666C27.3334 7.88667 27.3334 8.10667 27.3334 8.33333C27.5877 8.42958 27.8421 8.52583 28.1042 8.625C29 9 29 9 30 9.66666C30.2058 9.54635 30.4117 9.42604 30.6237 9.30208C32.5768 8.23188 34.101 7.68044 36.3334 8C36.6634 8.11 36.9934 8.21999 37.3334 8.33333C37.6152 8.13396 37.8971 7.93458 38.1875 7.72916C40.9182 5.81106 44.5286 6.20139 47.6667 6.66666C49.115 6.93275 50.557 7.22793 52 7.52083C57.7081 8.64118 61.107 8.81263 66.2292 5.79427C69.1131 4.13066 72.3732 3.80794 75.6159 4.55078C77.6539 5.28471 79.142 6.4838 80.6667 8C80.4467 8.11 80.2267 8.21999 80 8.33333C79.2529 7.97811 78.5369 7.60527 77.8125 7.20833C74.7893 5.64178 72.7449 5.35449 69.4479 6.2552C67.6516 6.91833 66.0129 7.84062 64.3516 8.78516C63.3334 9.33333 63.3334 9.33333 62.6667 9.33333C62.6667 9.55333 62.6667 9.77333 62.6667 10C64.3456 9.50085 65.8915 8.78606 67.4714 8.04036C70.3414 6.79612 72.8812 7.26582 75.7643 8.28125C76.6667 8.66666 76.6667 8.66666 77.6667 9.41666C79.2462 10.338 80.8804 10.1041 82.6667 10C82.6667 10.22 82.6667 10.44 82.6667 10.6667C81.8967 10.8867 81.1267 11.1067 80.3334 11.3333C82.7848 13.7708 85.3308 15.3801 88.8542 15.5625C91.0834 15.4645 92.6469 14.7824 94.3334 13.3333C95.2662 12.3053 96.0456 11.2421 96.6667 10C96.8867 10 97.1067 10 97.3334 10C97.2332 12.0037 96.3491 13.2588 95 14.6667C92.3233 16.8108 90.085 17.3491 86.6667 17C83.5276 16.1539 81.0912 14.3607 78.7757 12.1293C77.701 11.4883 76.7446 11.5755 75.5365 11.6419C75.3016 11.6507 75.0667 11.6596 74.8247 11.6686C74.0773 11.6978 73.3305 11.7342 72.5834 11.7708C72.0756 11.7919 71.5677 11.8125 71.0599 11.8327C69.8175 11.883 68.5754 11.9398 67.3334 12C67.7981 12.3977 67.7981 12.3977 68.2722 12.8034C68.4464 12.9525 68.6207 13.1016 68.8002 13.2553C69.6213 13.8888 70.3155 14.1464 71.3334 14.3333C72.591 14.0863 73.5501 13.7322 74.6667 13.1042C75.9169 12.5572 76.6877 12.7113 78 13C78.25 13.75 78.25 13.75 78.3334 14.6667C77.5999 15.6097 77.1396 15.9535 76 16.3333C72.8189 16.5861 70.0009 16.6623 67.3334 14.6667C66.7433 14.0953 66.1988 13.5246 65.6862 12.8828C63.2203 10.9082 59.0543 10.7149 56.0209 10.1458C55.4846 10.0438 54.9483 9.9416 54.4121 9.83919C53.6353 9.69086 52.8585 9.54288 52.0813 9.39643C50.4985 9.098 48.9205 8.78293 47.3469 8.43888C46.557 8.31631 45.7981 8.31583 45 8.33333C45.27 8.49209 45.27 8.49209 45.5455 8.65405C46.3586 9.13439 47.1689 9.6192 47.9792 10.1042C48.2626 10.2707 48.5459 10.4372 48.8379 10.6087C49.2424 10.852 49.2424 10.852 49.655 11.1003C50.0294 11.3228 50.0294 11.3228 50.4114 11.5499C51 12 51 12 51.3334 13C50.6734 13.11 50.0134 13.22 49.3334 13.3333C49.4434 14.1033 49.5534 14.8733 49.6667 15.6667C49.2267 15.7767 48.7867 15.8867 48.3334 16C48.2227 15.8454 48.112 15.6908 47.9979 15.5316C47.4882 14.824 46.9734 14.1204 46.4584 13.4167C46.2843 13.1735 46.1103 12.9303 45.931 12.6797C44.8822 11.2554 43.9457 10.148 42.3334 9.33333C41.3444 9.17419 41.3444 9.17419 40.375 9.25C40.0528 9.26203 39.7305 9.27406 39.3985 9.28645C39.157 9.30193 38.9155 9.31739 38.6667 9.33333C38.6667 9.77333 38.6667 10.2133 38.6667 10.6667C39.1067 10.7767 39.5467 10.8867 40 11C40 10.78 40 10.56 40 10.3333C40.44 10.4433 40.88 10.5533 41.3334 10.6667C41.3334 11.1067 41.3334 11.5467 41.3334 12C41 12.3333 41 12.3333 40.3841 12.3659C39.7005 12.355 39.0169 12.3442 38.3334 12.3333C38.2234 12.8833 38.1134 13.4333 38 14C37.45 13.89 36.9 13.78 36.3334 13.6667C36.3334 13.2267 36.3334 12.7867 36.3334 12.3333C35.2334 12.1133 34.1334 11.8933 33 11.6667C33 11.4467 33 11.2267 33 11C33.99 10.89 34.98 10.78 36 10.6667C36.11 10.3367 36.22 10.0067 36.3334 9.66666C34.3583 9.13627 33.1081 9.77802 31.3334 10.6667C30.3785 11.2443 29.4459 11.8487 28.513 12.4609C26.8107 13.5452 25.4008 14.1513 23.3334 14C23.7739 13.1189 24.1833 13.0586 25.0834 12.6875C26.2273 12.2004 27.2856 11.6759 28.3334 11C27.9408 10.5332 27.9408 10.5332 26.8334 10.6042C24.2975 10.645 22.0707 11.1758 20 12.6667C19.0009 14.117 18.7936 15.2599 19 17C19.6184 19.3846 21.1583 21.0926 22.7635 22.8862C24 24.2723 24 24.2723 24 25C22.5209 24.3752 21.4106 23.2962 20.2285 22.2402C18.7276 20.9441 17.038 19.839 14.9792 19.8958C13.722 19.9956 12.7942 20.1029 11.6667 20.6667C11.2267 21.3897 11.2267 21.3897 11 22.3333C10.8213 22.7115 10.6425 23.0896 10.4584 23.4792C9.70046 25.4558 9.92112 27.586 10 29.6667C10.3207 29.0909 10.6398 28.5144 10.9584 27.9375C11.1362 27.6165 11.3141 27.2955 11.4974 26.9648C11.9475 26.1009 12.3237 25.2441 12.6667 24.3333C12.7767 24.3333 12.8867 24.3333 13 24.3333C13.1214 26.2014 12.8074 27.3303 11.9375 28.9792C11.7792 29.2851 11.7792 29.2851 11.6177 29.5972C11.0391 30.6997 10.4112 31.7443 9.70836 32.7708C8.70543 34.2933 8.66669 35.888 8.66669 37.6667C8.99669 37.5567 9.32669 37.4467 9.66669 37.3333C9.77669 36.2333 9.88669 35.1333 10 34C10.33 34.11 10.66 34.22 11 34.3333C11.11 35.3233 11.22 36.3133 11.3334 37.3333C11.8834 37.4433 12.4334 37.5533 13 37.6667C13 38.2167 13 38.7667 13 39.3333C12.56 39.4433 12.12 39.5533 11.6667 39.6667C11.6873 40.2235 11.6873 40.2235 11.7084 40.7917C11.6667 42 11.6667 42 11 42.6667C10.3125 42.6042 10.3125 42.6042 9.66669 42.3333C9.55669 42.0033 9.44669 41.6733 9.33336 41.3333C9.55336 41.2233 9.77336 41.1133 10 41C9.83502 40.34 9.83502 40.34 9.66669 39.6667C9.33669 39.6667 9.00669 39.6667 8.66669 39.6667C8.12861 40.7428 8.18513 41.8332 8.33336 43C9.29238 45.2249 10.789 46.4692 12.7318 47.8555C12.9716 48.0269 13.2113 48.1984 13.4584 48.375C13.7922 48.6032 13.7922 48.6032 14.1328 48.8359C14.7634 49.4234 14.8738 49.8267 15 50.6667C13.4167 51.0417 13.4167 51.0417 12.6667 50.6667C12.4467 51.3267 12.2267 51.9867 12 52.6667C11.78 52.6667 11.56 52.6667 11.3334 52.6667C10.9264 52.0959 10.9264 52.0959 10.4779 51.3047C10.3161 51.022 10.1543 50.7392 9.98765 50.4479C9.73596 49.9993 9.73596 49.9993 9.47919 49.5417C9.31011 49.2452 9.14103 48.9487 8.96682 48.6432C7.76867 46.5373 7.76867 46.5373 7.33336 45.6667C7.70909 49.4175 8.46307 53.077 9.25434 56.7598C10.0195 60.3305 10.0195 60.3305 10.2474 62.026C10.6199 64.7707 11.2601 66.3017 13.28 68.2526C15.1849 70.2299 15.7764 72.946 15.7409 75.625C15.5631 77.322 14.9994 78.8928 13.6667 80C12.9792 79.9792 12.9792 79.9792 12.3334 79.6667C11.7169 78.874 11.6627 78.4206 11.7084 77.4167C11.9617 76.4759 12.2383 75.874 12.7084 75.0417C13.3208 73.8596 13.5159 73.0054 13.2489 71.6922C12.9551 70.8751 12.5558 70.3946 11.9766 69.7513C11.7943 69.5466 11.6121 69.3419 11.4243 69.1309C11.2843 68.9777 11.1443 68.8245 11 68.6667C10.0166 75.3336 10.0166 75.3336 11.7516 81.4648C12.4656 82.2363 13.2325 82.9489 14 83.6667C15.8069 86.6256 16.3154 89.2044 16 92.6667C15.2756 95.2568 13.5673 97.2091 11.3334 98.6667C10.4861 98.9501 9.90344 99 9.00002 99C9.91341 98.0589 10.8233 97.2067 11.8542 96.3958C13.5026 94.9881 14.2897 93.3341 14.6459 91.2083C14.8653 87.9219 13.2152 85.2371 11.3334 82.6667C11.0094 82.3243 10.6796 81.9865 10.3334 81.6667C10.1134 82.5467 9.89336 83.4267 9.66669 84.3333C9.55669 84.3333 9.44669 84.3333 9.33336 84.3333C9.3325 84.0669 9.33164 83.8005 9.33075 83.526C9.23951 80.9347 8.73293 79.1109 7.45836 76.8529C6.32529 74.7445 6.39702 72.3347 6.66669 70C7.10483 68.8848 7.61403 67.9004 8.22919 66.8737C8.69931 65.9349 8.75645 65.3675 8.66669 64.3333C8.17683 65.2203 7.69148 66.1093 7.20836 67C7.07086 67.2479 6.93336 67.4959 6.79169 67.7513C5.11839 70.855 4.45533 73.8812 5.39586 77.3333C5.94267 79.0106 6.74925 80.4987 7.66669 82C5.78132 81.1815 4.77287 79.6848 3.97138 77.8281C2.31293 72.6246 4.31556 68.4428 6.83726 63.9609ZM9.33336 77.6667C9.44336 77.6667 9.55336 77.6667 9.66669 77.6667C9.67648 76.5556 9.68233 75.4445 9.68752 74.3333C9.69032 74.0218 9.69311 73.7103 9.69599 73.3893C9.70239 71.5591 9.6045 69.8104 9.33336 68C7.07414 70.8486 7.59145 74.6572 9.33336 77.6667ZM36.6667 12C38 11.6667 38 11.6667 38 11.6667L36.6667 12ZM66.3334 10.3333C69.5234 10.3333 72.7134 10.3333 76 10.3333C73.8725 8.73766 72.0404 8.51018 69.4701 8.83594C68.3239 9.07001 67.3781 9.47764 66.3334 10C66.3334 10.11 66.3334 10.22 66.3334 10.3333Z" fill="#FFC764"/>
<path d="M12.3335 22.3333C12.6668 21.3333 12.6668 21.3333 13.3335 21C15.7675 20.7145 17.872 21.1092 20.0002 22.3333C21.0173 23.1676 21.6213 23.9239 21.771 25.2708C21.7366 25.5115 21.7022 25.7521 21.6668 26C21.6668 26.11 21.6668 26.22 21.6668 26.3333C22.7668 26.2233 23.8668 26.1133 25.0002 26C25.1102 24.79 25.2202 23.58 25.3335 22.3333C24.5085 22.4983 24.5085 22.4983 23.6668 22.6667C21.7699 21.7763 21.0794 20.5296 20.3335 18.6667C20.0101 17.6964 19.9453 17.0326 19.9377 16.0208C19.9329 15.736 19.9282 15.4511 19.9233 15.1576C20.0045 14.287 20.2276 13.7483 20.6668 13C20.8868 13 21.1068 13 21.3335 13C21.3623 13.1972 21.3911 13.3945 21.4207 13.5977C21.7542 15.4729 22.1637 16.4082 23.6668 17.6667C25.2965 19.2593 25.2965 19.2593 25.6668 20C25.5161 18.3798 25.1564 17.4895 24.0002 16.3333C23.1274 15.889 23.1274 15.889 22.3335 15.6667C22.3335 15.4467 22.3335 15.2267 22.3335 15C24.0814 15.0592 24.0814 15.0592 25.0002 15.3333C25.2752 15.6702 25.5502 16.0071 25.8335 16.3542C26.5326 17.3831 26.5326 17.3831 27.3608 17.4648C28.187 17.4691 28.187 17.4691 29.3335 17.3333C29.5535 17.7733 29.7735 18.2133 30.0002 18.6667C29.7802 18.6667 29.5602 18.6667 29.3335 18.6667C29.4985 19.0379 29.4985 19.0379 29.6668 19.4167C30.0002 20.3333 30.0002 20.3333 30.0002 21.6667C29.622 21.7079 29.2439 21.7492 28.8543 21.7917C28.4625 21.8604 28.0706 21.9292 27.6668 22C27.1152 23.1033 27.2999 24.3304 27.3127 25.5417C27.3142 25.8089 27.3157 26.0762 27.3172 26.3516C27.3212 27.0122 27.3271 27.6728 27.3335 28.3333C26.9322 28.3295 26.5308 28.3256 26.1173 28.3216C25.5922 28.3185 25.067 28.3155 24.5418 28.3125C24.2771 28.3097 24.0125 28.3069 23.7397 28.304C22.3255 28.2565 22.3255 28.2565 21.0002 28.6667C20.8644 29.4405 20.752 30.219 20.6668 31C20.2268 31 19.7868 31 19.3335 31C19.3335 30.34 19.3335 29.68 19.3335 29C18.8935 28.89 18.4535 28.78 18.0002 28.6667C17.7503 29.8238 17.7503 29.8238 17.6668 31C17.3368 30.89 17.0068 30.78 16.6668 30.6667C16.6187 30.3023 16.5706 29.9379 16.521 29.5625C16.2679 27.8429 16.2679 27.8429 15.1668 26.5625C14.2319 25.5574 14.094 25.011 14.0002 23.6667C14.3302 23.6667 14.6602 23.6667 15.0002 23.6667C15.1961 24.1307 15.1961 24.1307 15.396 24.6042C16.053 25.7595 16.465 26.139 17.6668 26.6667C18.1068 26.6667 18.5468 26.6667 19.0002 26.6667C18.8472 26.5416 18.6942 26.4166 18.5366 26.2878C17.5709 25.4823 16.7552 24.7963 16.0418 23.75C14.9946 22.6412 13.8043 22.5439 12.3335 22.3333ZM27.6668 19C28.2168 18.89 28.7668 18.78 29.3335 18.6667C29.3335 18.5567 29.3335 18.4467 29.3335 18.3333C28.7835 18.3333 28.2335 18.3333 27.6668 18.3333C27.6668 18.5533 27.6668 18.7733 27.6668 19ZM28.0002 20.6667C29.0002 20.3333 29.0002 20.3333 29.0002 20.3333L28.0002 20.6667Z" fill="#FFC764"/>
<path d="M9.33333 19.667C9.32408 18.924 9.31776 18.1809 9.3125 17.4378C9.30863 17.024 9.30477 16.6102 9.30078 16.1839C9.3427 14.2305 9.51681 12.2818 9.66667 10.3337C12.6367 10.2237 15.6067 10.1137 18.6667 10.0003C18 11.3337 18 11.3337 17.6432 11.9652C16.5072 14.0311 16.4423 15.7 17 18.0003C16.8084 17.9483 16.6167 17.8963 16.4193 17.8428C14.2449 17.3349 12.7468 17.5009 10.8125 18.667C10.3152 18.994 9.82057 19.3252 9.33333 19.667Z" fill="#FFC764"/>
<path d="M86.9998 11.9995C87.6664 11.3329 87.6664 11.3329 88.9789 11.2079C89.9499 11.2361 90.2379 11.2579 91.0206 11.8745C91.4427 12.9438 91.3316 13.5759 90.9998 14.6662C89.7681 15.4873 89.1221 15.4628 87.6664 15.3329C86.2276 14.5685 86.6684 13.4015 86.9998 11.9995Z" fill="#FFC764"/>
<path d="M10.6665 88.9998C11.8173 88.2325 12.3156 88.2181 13.6665 88.3331C14.4676 89.1342 14.4401 89.3794 14.4581 90.4789C14.4242 91.8851 14.4242 91.8851 13.7706 92.7081C12.7808 93.0826 12.3193 93.0457 11.3331 92.6664C10.0564 91.5599 10.264 90.552 10.6665 88.9998Z" fill="#FFC764"/>
<path d="M17.6665 30.3337C17.6665 29.8937 17.6665 29.4537 17.6665 29.0003C18.1065 28.8903 18.5465 28.7803 18.9998 28.667C19.1098 29.217 19.2198 29.767 19.3332 30.3337C18.6873 30.5212 18.6873 30.5212 17.9998 30.667C17.8898 30.557 17.7798 30.447 17.6665 30.3337Z" fill="#FFC764"/>
</g>
<defs>
<clipPath id="clip0_176_766">
<rect width="100" height="100" fill="white" transform="matrix(0 -1 1 0 0 100)"/>
</clipPath>
</defs>
</svg>
