<svg width="100" height="99" viewBox="0 0 100 99" fill="none" xmlns="http://www.w3.org/2000/svg">
<path d="M63.9609 93.1632C61.1186 91.6958 58.0516 92.3669 55.0417 92.9588C54.4245 93.076 53.8073 93.1932 53.1901 93.3104C52.251 93.4902 51.3122 93.6713 50.3742 93.8565C46.3417 94.6302 42.5841 94.7925 38.8333 92.9171C37.9293 92.6459 37.4819 92.7121 36.5625 92.8546C34.5772 93.1359 33.1345 92.5412 31.5 91.438C31.335 91.2936 31.17 91.1492 31 91.0005C30.7387 91.2136 30.4775 91.4267 30.2083 91.6463C29.3333 92.3338 29.3333 92.3338 28.6667 92.6671C28.9967 92.8871 29.3267 93.1071 29.6667 93.3338C29.5567 93.6638 29.4467 93.9938 29.3333 94.3338C26.2992 94.2703 23.8604 93.7206 21.5677 91.6385C19.2854 89.1979 18.5483 87.2179 18.599 83.8911C18.6667 83.0005 18.6667 83.0005 19 82.0005C18.67 82.1105 18.34 82.2205 18 82.3338C14.7496 82.6801 12.4847 82.0857 9.91406 80.0799C7.98501 78.3252 6.80409 76.3437 6.58854 73.714C6.58402 72.915 6.60566 72.1302 6.66666 71.3338C6.99667 71.4438 7.32666 71.5538 7.66666 71.6671C7.66666 71.9971 7.66666 72.3271 7.66666 72.6671C7.88667 72.6671 8.10667 72.6671 8.33333 72.6671C8.42958 72.4128 8.52583 72.1584 8.625 71.8963C9 71.0005 9 71.0005 9.66666 70.0005C9.54635 69.7946 9.42604 69.5888 9.30208 69.3768C8.23188 67.4237 7.68044 65.8995 8 63.6671C8.11 63.3371 8.21999 63.0071 8.33333 62.6671C8.13396 62.3853 7.93458 62.1034 7.72916 61.813C5.81106 59.0823 6.20139 55.4719 6.66666 52.3338C6.93275 50.8855 7.22793 49.4435 7.52083 48.0005C8.64118 42.2923 8.81263 38.8935 5.79427 33.7713C4.13066 30.8874 3.80794 27.6273 4.55078 24.3846C5.28471 22.3466 6.4838 20.8585 8 19.3338C8.11 19.5538 8.21999 19.7738 8.33333 20.0005C7.97811 20.7476 7.60527 21.4636 7.20833 22.188C5.64178 25.2112 5.35449 27.2556 6.2552 30.5526C6.91833 32.3489 7.84062 33.9876 8.78516 35.6489C9.33333 36.6671 9.33333 36.6671 9.33333 37.3338C9.55333 37.3338 9.77333 37.3338 10 37.3338C9.50085 35.6549 8.78606 34.109 8.04036 32.5291C6.79612 29.6591 7.26582 27.1193 8.28125 24.2361C8.66666 23.3338 8.66666 23.3338 9.41666 22.3338C10.338 20.7543 10.1041 19.1201 10 17.3338C10.22 17.3338 10.44 17.3338 10.6667 17.3338C10.8867 18.1038 11.1067 18.8738 11.3333 19.6671C13.7708 17.2157 15.3801 14.6697 15.5625 11.1463C15.4645 8.91713 14.7824 7.35361 13.3333 5.66714C12.3053 4.73428 11.2421 3.95488 10 3.33381C10 3.11381 10 2.89381 10 2.66714C12.0037 2.76733 13.2588 3.65136 14.6667 5.00047C16.8108 7.67717 17.3491 9.91547 17 13.3338C16.1539 16.4729 14.3607 18.9092 12.1293 21.2248C11.4883 22.2995 11.5755 23.2559 11.6419 24.464C11.6507 24.6989 11.6596 24.9338 11.6686 25.1757C11.6978 25.9232 11.7342 26.67 11.7708 27.4171C11.7919 27.9249 11.8125 28.4327 11.8327 28.9406C11.883 30.183 11.9398 31.4251 12 32.6671C12.3977 32.2024 12.3977 32.2024 12.8034 31.7283C12.9525 31.5541 13.1016 31.3798 13.2553 31.2003C13.8888 30.3792 14.1464 29.685 14.3333 28.6671C14.0863 27.4095 13.7322 26.4504 13.1042 25.3338C12.5572 24.0836 12.7113 23.3128 13 22.0005C13.75 21.7505 13.75 21.7505 14.6667 21.6671C15.6097 22.4006 15.9535 22.8609 16.3333 24.0005C16.5861 27.1816 16.6623 29.9996 14.6667 32.6671C14.0953 33.2572 13.5246 33.8017 12.8828 34.3143C10.9082 36.7801 10.7149 40.9462 10.1458 43.9796C10.0438 44.5159 9.9416 45.0522 9.83919 45.5884C9.69086 46.3652 9.54288 47.142 9.39643 47.9192C9.098 49.502 8.78293 51.08 8.43888 52.6535C8.31631 53.4435 8.31583 54.2024 8.33333 55.0005C8.49209 54.7304 8.49209 54.7304 8.65405 54.455C9.13439 53.6419 9.6192 52.8316 10.1042 52.0213C10.2707 51.7379 10.4372 51.4545 10.6087 51.1626C10.852 50.7581 10.852 50.7581 11.1003 50.3455C11.3228 49.9711 11.3228 49.9711 11.5499 49.5891C12 49.0005 12 49.0005 13 48.6671C13.11 49.3271 13.22 49.9871 13.3333 50.6671C14.1033 50.5571 14.8733 50.4471 15.6667 50.3338C15.7767 50.7738 15.8867 51.2138 16 51.6671C15.8454 51.7778 15.6908 51.8885 15.5316 52.0026C14.824 52.5123 14.1204 53.0271 13.4167 53.5421C13.1735 53.7162 12.9303 53.8902 12.6797 54.0695C11.2554 55.1183 10.148 56.0548 9.33333 57.6671C9.17419 58.6561 9.17419 58.6561 9.25 59.6255C9.26203 59.9477 9.27406 60.27 9.28645 60.602C9.30193 60.8435 9.31739 61.085 9.33333 61.3338C9.77333 61.3338 10.2133 61.3338 10.6667 61.3338C10.7767 60.8938 10.8867 60.4538 11 60.0005C10.78 60.0005 10.56 60.0005 10.3333 60.0005C10.4433 59.5605 10.5533 59.1205 10.6667 58.6671C11.1067 58.6671 11.5467 58.6671 12 58.6671C12.3333 59.0005 12.3333 59.0005 12.3659 59.6164C12.355 60.2999 12.3442 60.9835 12.3333 61.6671C12.8833 61.7771 13.4333 61.8871 14 62.0005C13.89 62.5505 13.78 63.1005 13.6667 63.6671C13.2267 63.6671 12.7867 63.6671 12.3333 63.6671C12.1133 64.7671 11.8933 65.8671 11.6667 67.0005C11.4467 67.0005 11.2267 67.0005 11 67.0005C10.89 66.0105 10.78 65.0205 10.6667 64.0005C10.3367 63.8905 10.0067 63.7805 9.66666 63.6671C9.13627 65.6422 9.77802 66.8924 10.6667 68.6671C11.2443 69.6219 11.8487 70.5546 12.4609 71.4874C13.5452 73.1898 14.1513 74.5996 14 76.6671C13.1189 76.2266 13.0586 75.8172 12.6875 74.9171C12.2004 73.7732 11.6759 72.7148 11 71.6671C10.5332 72.0597 10.5332 72.0597 10.6042 73.1671C10.645 75.703 11.1758 77.9298 12.6667 80.0005C14.117 80.9996 15.2599 81.2069 17 81.0005C19.3846 80.3821 21.0926 78.8422 22.8862 77.237C24.2723 76.0005 24.2723 76.0005 25 76.0005C24.3752 77.4796 23.2962 78.5899 22.2402 79.7719C20.9441 81.2728 19.839 82.9625 19.8958 85.0213C19.9956 86.2785 20.1029 87.2063 20.6667 88.3338C21.3897 88.7738 21.3897 88.7738 22.3333 89.0005C22.7115 89.1792 23.0896 89.358 23.4792 89.5421C25.4558 90.3 27.586 90.0794 29.6667 90.0005C29.0909 89.6798 28.5144 89.3607 27.9375 89.0421C27.6165 88.8642 27.2955 88.6864 26.9648 88.5031C26.1009 88.053 25.2441 87.6768 24.3333 87.3338C24.3333 87.2238 24.3333 87.1138 24.3333 87.0005C26.2014 86.8791 27.3303 87.1931 28.9792 88.063C29.2851 88.2213 29.2851 88.2213 29.5972 88.3828C30.6997 88.9614 31.7443 89.5892 32.7708 90.2921C34.2933 91.2951 35.888 91.3338 37.6667 91.3338C37.5567 91.0038 37.4467 90.6738 37.3333 90.3338C36.2333 90.2238 35.1333 90.1138 34 90.0005C34.11 89.6705 34.22 89.3405 34.3333 89.0005C35.3233 88.8905 36.3133 88.7805 37.3333 88.6671C37.4433 88.1171 37.5533 87.5671 37.6667 87.0005C38.2167 87.0005 38.7667 87.0005 39.3333 87.0005C39.4433 87.4405 39.5533 87.8805 39.6667 88.3338C40.2235 88.3132 40.2235 88.3132 40.7917 88.2921C42 88.3338 42 88.3338 42.6667 89.0005C42.6042 89.688 42.6042 89.688 42.3333 90.3338C42.0033 90.4438 41.6733 90.5538 41.3333 90.6671C41.2233 90.4471 41.1133 90.2271 41 90.0005C40.34 90.1655 40.34 90.1655 39.6667 90.3338C39.6667 90.6638 39.6667 90.9938 39.6667 91.3338C40.7428 91.8719 41.8332 91.8154 43 91.6671C45.2249 90.7081 46.4692 89.2115 47.8555 87.2687C48.0269 87.0289 48.1984 86.7892 48.375 86.5421C48.6032 86.2083 48.6032 86.2083 48.8359 85.8677C49.4234 85.2371 49.8267 85.1266 50.6667 85.0005C51.0417 86.5838 51.0417 86.5838 50.6667 87.3338C51.3267 87.5538 51.9867 87.7738 52.6667 88.0005C52.6667 88.2205 52.6667 88.4405 52.6667 88.6671C52.0959 89.0741 52.0959 89.0741 51.3047 89.5226C51.022 89.6844 50.7392 89.8462 50.4479 90.0128C49.9993 90.2645 49.9993 90.2645 49.5417 90.5213C49.2452 90.6904 48.9487 90.8595 48.6432 91.0337C46.5373 92.2318 46.5373 92.2318 45.6667 92.6671C49.4175 92.2914 53.077 91.5374 56.7598 90.7462C60.3305 89.981 60.3305 89.981 62.026 89.7531C64.7707 89.3806 66.3017 88.7404 68.2526 86.7205C70.2299 84.8156 72.946 84.2241 75.625 84.2596C77.322 84.4374 78.8928 85.0011 80 86.3338C79.9792 87.0213 79.9792 87.0213 79.6667 87.6671C78.874 88.2836 78.4206 88.3378 77.4167 88.2921C76.4759 88.0388 75.874 87.7621 75.0417 87.2921C73.8596 86.6797 73.0054 86.4846 71.6922 86.7516C70.8751 87.0454 70.3946 87.4447 69.7513 88.0239C69.5466 88.2061 69.3419 88.3884 69.1309 88.5761C68.9777 88.7162 68.8245 88.8562 68.6667 89.0005C75.3336 89.9839 75.3336 89.9839 81.4648 88.2489C82.2363 87.5348 82.9489 86.768 83.6667 86.0005C86.6256 84.1936 89.2044 83.685 92.6667 84.0005C95.2568 84.7249 97.2091 86.4332 98.6667 88.6671C98.9501 89.5144 99 90.0971 99 91.0005C98.0589 90.0871 97.2067 89.1772 96.3958 88.1463C94.9881 86.4979 93.3341 85.7108 91.2083 85.3546C87.9219 85.1352 85.2371 86.7853 82.6667 88.6671C82.3243 88.9911 81.9865 89.3209 81.6667 89.6671C82.5467 89.8871 83.4267 90.1071 84.3333 90.3338C84.3333 90.4438 84.3333 90.5538 84.3333 90.6671C84.0669 90.668 83.8005 90.6689 83.526 90.6697C80.9347 90.761 79.1109 91.2676 76.8529 92.5421C74.7445 93.6752 72.3347 93.6035 70 93.3338C68.8848 92.8957 67.9004 92.3865 66.8737 91.7713C65.9349 91.3012 65.3675 91.244 64.3333 91.3338C65.2203 91.8237 66.1093 92.309 67 92.7921C67.2479 92.9296 67.4959 93.0671 67.7513 93.2088C70.855 94.8821 73.8812 95.5452 77.3333 94.6046C79.0106 94.0578 80.4987 93.2512 82 92.3338C81.1815 94.2192 79.6848 95.2276 77.8281 96.0291C72.6246 97.6876 68.4428 95.6849 63.9609 93.1632ZM77.6667 90.6671C77.6667 90.5571 77.6667 90.4471 77.6667 90.3338C76.5556 90.324 75.4445 90.3182 74.3333 90.313C74.0218 90.3102 73.7103 90.3074 73.3893 90.3045C71.5591 90.2981 69.8104 90.396 68 90.6671C70.8486 92.9263 74.6572 92.409 77.6667 90.6671ZM12 63.3338C11.6667 62.0005 11.6667 62.0005 11.6667 62.0005L12 63.3338ZM10.3333 33.6671C10.3333 30.4771 10.3333 27.2871 10.3333 24.0005C8.73766 26.128 8.51018 27.9601 8.83594 30.5304C9.07001 31.6766 9.47764 32.6224 10 33.6671C10.11 33.6671 10.22 33.6671 10.3333 33.6671Z" fill="#FFC764"/>
<path d="M22.3333 87.667C21.3333 87.3337 21.3333 87.3337 21 86.667C20.7145 84.233 21.1092 82.1285 22.3333 80.0003C23.1676 78.9832 23.9239 78.3792 25.2708 78.2295C25.5115 78.2639 25.7521 78.2982 26 78.3337C26.11 78.3337 26.22 78.3337 26.3333 78.3337C26.2233 77.2337 26.1133 76.1337 26 75.0003C24.79 74.8903 23.58 74.7803 22.3333 74.667C22.4983 75.492 22.4983 75.492 22.6667 76.3337C21.7763 78.2306 20.5296 78.9211 18.6667 79.667C17.6964 79.9904 17.0326 80.0552 16.0208 80.0628C15.736 80.0676 15.4511 80.0723 15.1576 80.0771C14.287 79.996 13.7483 79.7729 13 79.3337C13 79.1137 13 78.8937 13 78.667C13.1972 78.6382 13.3945 78.6094 13.5977 78.5798C15.4729 78.2463 16.4082 77.8368 17.6667 76.3337C19.2593 74.704 19.2593 74.704 20 74.3337C18.3798 74.4844 17.4895 74.8441 16.3333 76.0003C15.889 76.8731 15.889 76.8731 15.6667 77.667C15.4467 77.667 15.2267 77.667 15 77.667C15.0592 75.9191 15.0592 75.9191 15.3333 75.0003C15.6702 74.7253 16.0071 74.4503 16.3542 74.167C17.3831 73.4679 17.3831 73.4679 17.4648 72.6396C17.4691 71.8135 17.4691 71.8135 17.3333 70.667C17.7733 70.447 18.2133 70.227 18.6667 70.0003C18.6667 70.2203 18.6667 70.4403 18.6667 70.667C19.0379 70.502 19.0379 70.502 19.4167 70.3337C20.3333 70.0003 20.3333 70.0003 21.6667 70.0003C21.7079 70.3785 21.7492 70.7566 21.7917 71.1462C21.8604 71.538 21.9292 71.9299 22 72.3337C23.1033 72.8853 24.3304 72.7006 25.5417 72.6878C25.8089 72.6863 26.0762 72.6848 26.3516 72.6833C27.0122 72.6793 27.6728 72.6734 28.3333 72.667C28.3295 73.0683 28.3256 73.4696 28.3216 73.8831C28.3185 74.4083 28.3155 74.9335 28.3125 75.4587C28.3097 75.7233 28.3069 75.988 28.304 76.2607C28.2565 77.675 28.2565 77.675 28.6667 79.0003C29.4405 79.1361 30.219 79.2485 31 79.3337C31 79.7737 31 80.2137 31 80.667C30.34 80.667 29.68 80.667 29 80.667C28.89 81.107 28.78 81.547 28.6667 82.0003C29.8238 82.2502 29.8238 82.2502 31 82.3337C30.89 82.6637 30.78 82.9937 30.6667 83.3337C30.3023 83.3818 29.9379 83.4299 29.5625 83.4795C27.8429 83.7326 27.8429 83.7326 26.5625 84.8337C25.5574 85.7686 25.011 85.9065 23.6667 86.0003C23.6667 85.6703 23.6667 85.3403 23.6667 85.0003C24.1307 84.8044 24.1307 84.8044 24.6042 84.6045C25.7595 83.9475 26.139 83.5355 26.6667 82.3337C26.6667 81.8937 26.6667 81.4537 26.6667 81.0003C26.5416 81.1533 26.4166 81.3063 26.2878 81.4639C25.4823 82.4296 24.7963 83.2453 23.75 83.9587C22.6412 85.0059 22.5439 86.1962 22.3333 87.667ZM19 72.3337C18.89 71.7837 18.78 71.2337 18.6667 70.667C18.5567 70.667 18.4467 70.667 18.3333 70.667C18.3333 71.217 18.3333 71.767 18.3333 72.3337C18.5533 72.3337 18.7733 72.3337 19 72.3337ZM20.6667 72.0003C20.3333 71.0003 20.3333 71.0003 20.3333 71.0003L20.6667 72.0003Z" fill="#FFC764"/>
<path d="M19.6665 90.6667C18.9235 90.6759 18.1804 90.6822 17.4373 90.6875C17.0235 90.6914 16.6098 90.6952 16.1834 90.6992C14.23 90.6573 12.2813 90.4832 10.3332 90.3333C10.2232 87.3633 10.1132 84.3933 9.99984 81.3333C11.3332 82 11.3332 82 11.9647 82.3568C14.0307 83.4928 15.6995 83.5577 17.9998 83C17.9478 83.1916 17.8959 83.3833 17.8423 83.5807C17.3344 85.7551 17.5004 87.2532 18.6665 89.1875C18.9935 89.6848 19.3247 90.1794 19.6665 90.6667Z" fill="#FFC764"/>
<path d="M12 12.9997C11.3334 12.3331 11.3334 12.3331 11.2084 11.0206C11.2366 10.0496 11.2584 9.76157 11.875 8.97891C12.9442 8.55685 13.5764 8.66792 14.6667 8.99975C15.4878 10.2314 15.4633 10.8774 15.3334 12.3331C14.569 13.7719 13.402 13.3311 12 12.9997Z" fill="#FFC764"/>
<path d="M89.0002 89.333C88.233 88.1822 88.2186 87.6839 88.3336 86.333C89.1347 85.5319 89.3799 85.5594 90.4794 85.5414C91.8856 85.5753 91.8856 85.5753 92.7086 86.2289C93.0831 87.2187 93.0462 87.6802 92.6669 88.6664C91.5604 89.9431 90.5525 89.7355 89.0002 89.333Z" fill="#FFC764"/>
<path d="M30.3332 82.333C29.8932 82.333 29.4532 82.333 28.9998 82.333C28.8898 81.893 28.7798 81.453 28.6665 80.9997C29.2165 80.8897 29.7665 80.7797 30.3332 80.6663C30.5207 81.3122 30.5207 81.3122 30.6665 81.9997C30.5565 82.1097 30.4465 82.2197 30.3332 82.333Z" fill="#FFC764"/>
</svg>
