<svg width="21" height="21" viewBox="0 0 21 21" fill="none" xmlns="http://www.w3.org/2000/svg">
<g id="Icon" clip-path="url(#clip0_120_2720)">
<path id="Vector" d="M10.76 4.87793C10.1741 4.87793 9.6272 4.98861 9.11938 5.20996C8.61157 5.43132 8.16886 5.73079 7.79126 6.1084C7.41366 6.486 7.11418 6.92871 6.89282 7.43652C6.67147 7.94434 6.56079 8.4847 6.56079 9.05762C6.56079 9.63053 6.67147 10.1709 6.89282 10.6787C7.11418 11.1865 7.41366 11.6325 7.79126 12.0166C8.16886 12.4007 8.61157 12.6969 9.11938 12.9053C9.6272 13.1266 10.1741 13.2373 10.76 13.2373C11.3329 13.2373 11.8733 13.1331 12.3811 12.9248C12.8889 12.7035 13.3316 12.4007 13.7092 12.0166C14.0868 11.6325 14.3863 11.1865 14.6077 10.6787C14.829 10.1709 14.9397 9.63053 14.9397 9.05762C14.9397 8.4847 14.829 7.94434 14.6077 7.43652C14.3863 6.92871 14.0868 6.486 13.7092 6.1084C13.3316 5.73079 12.8889 5.43132 12.3811 5.20996C11.8733 4.98861 11.3329 4.87793 10.76 4.87793ZM10.76 12.2412C9.87459 12.2412 9.12264 11.9287 8.50415 11.3037C7.88566 10.6787 7.57642 9.93001 7.57642 9.05762C7.57642 8.18522 7.88566 7.43652 8.50415 6.81152C9.12264 6.18652 9.87459 5.87402 10.76 5.87402C11.6324 5.87402 12.3778 6.18652 12.9963 6.81152C13.6148 7.43652 13.9241 8.18522 13.9241 9.05762C13.9241 9.93001 13.6148 10.6787 12.9963 11.3037C12.3778 11.9287 11.6324 12.2412 10.76 12.2412ZM10.76 0.893555C10.7079 0.893555 10.6591 0.893555 10.6135 0.893555C10.568 0.893555 10.5191 0.893555 10.467 0.893555C9.46444 0.932617 8.51392 1.14095 7.61548 1.51855C6.71704 1.90918 5.91951 2.43001 5.2229 3.08105C4.52629 3.7321 3.95662 4.49381 3.51392 5.36621C3.07121 6.23861 2.80428 7.17611 2.71313 8.17871C2.67407 8.56934 2.66431 8.95996 2.68384 9.35059C2.70337 9.74121 2.74569 10.1188 2.81079 10.4834C2.81079 10.4834 2.8173 10.5062 2.83032 10.5518C2.84334 10.5973 2.85636 10.6657 2.86938 10.7568C2.93449 11.0303 3.01261 11.3005 3.10376 11.5674C3.19491 11.8343 3.29907 12.0915 3.41626 12.3389C3.62459 12.8337 3.89803 13.387 4.23657 13.999C4.58813 14.624 5.02759 15.2881 5.55493 15.9912C6.08228 16.6943 6.71053 17.4365 7.4397 18.2178C8.16886 18.999 9.02824 19.7998 10.0178 20.6201C10.122 20.7113 10.2392 20.7796 10.3694 20.8252C10.4996 20.8708 10.6298 20.8936 10.76 20.8936C10.9032 20.8936 11.0367 20.8708 11.1604 20.8252C11.2841 20.7796 11.398 20.7113 11.5022 20.6201C12.4918 19.7998 13.3512 18.999 14.0803 18.2178C14.8225 17.4365 15.454 16.6943 15.9749 15.9912C16.4957 15.2881 16.9319 14.6305 17.2834 14.0186C17.622 13.4066 17.8954 12.8532 18.1038 12.3584C18.2209 12.098 18.3251 11.8343 18.4163 11.5674C18.5074 11.3005 18.5855 11.0303 18.6506 10.7568C18.6637 10.7048 18.6734 10.6592 18.6799 10.6201C18.6864 10.5811 18.6962 10.542 18.7092 10.5029C18.7483 10.2425 18.7808 9.98535 18.8069 9.73145C18.8329 9.47754 18.8459 9.22038 18.8459 8.95996C18.8459 7.85319 18.6311 6.81152 18.2014 5.83496C17.7717 4.84538 17.1923 3.986 16.4631 3.25684C15.734 2.52767 14.8811 1.94824 13.9045 1.51855C12.915 1.10189 11.8668 0.893555 10.76 0.893555ZM17.6936 10.3271C17.6936 10.3271 17.6903 10.3467 17.6838 10.3857C17.6773 10.4248 17.6676 10.4704 17.6545 10.5225C17.6025 10.7699 17.5374 11.0107 17.4592 11.2451C17.3811 11.4795 17.29 11.7139 17.1858 11.9482C16.9775 12.417 16.7105 12.9443 16.385 13.5303C16.0595 14.1162 15.6461 14.7445 15.1448 15.415C14.6435 16.0856 14.0413 16.7985 13.3381 17.5537C12.635 18.2959 11.8082 19.0576 10.8577 19.8389C10.8446 19.8519 10.8284 19.8617 10.8088 19.8682C10.7893 19.8747 10.773 19.8779 10.76 19.8779C10.747 19.8779 10.7307 19.8747 10.7112 19.8682C10.6917 19.8617 10.6754 19.8519 10.6624 19.8389C9.71183 19.0576 8.88501 18.2959 8.18188 17.5537C7.47876 16.7985 6.87329 16.0856 6.36548 15.415C5.85767 14.7445 5.441 14.1162 5.11548 13.5303C4.78996 12.9313 4.52954 12.3975 4.33423 11.9287C4.23006 11.7074 4.13892 11.4795 4.06079 11.2451C3.98267 11.0107 3.91105 10.7699 3.84595 10.5225C3.83293 10.4704 3.82316 10.4281 3.81665 10.3955C3.81014 10.363 3.80688 10.3467 3.80688 10.3467C3.80688 10.3337 3.80688 10.3271 3.80688 10.3271C3.80688 10.3271 3.80688 10.3206 3.80688 10.3076C3.74178 9.9821 3.70272 9.64681 3.6897 9.30176C3.67668 8.95671 3.68319 8.61491 3.70923 8.27637C3.80037 7.40397 4.03475 6.58366 4.41235 5.81543C4.80298 5.0472 5.30103 4.37988 5.90649 3.81348C6.51196 3.24707 7.21183 2.7946 8.0061 2.45605C8.78735 2.11751 9.62069 1.92871 10.5061 1.88965C11.5087 1.86361 12.4527 2.02637 13.3381 2.37793C14.2366 2.74251 15.0178 3.24707 15.6819 3.8916C16.3459 4.53613 16.8668 5.2946 17.2444 6.16699C17.635 7.03939 17.8303 7.97689 17.8303 8.97949C17.8303 9.20085 17.8206 9.4222 17.801 9.64355C17.7815 9.86491 17.7457 10.0928 17.6936 10.3271Z" fill="white"/>
</g>
<defs>
<clipPath id="clip0_120_2720">
<rect width="20" height="20" fill="white" transform="matrix(1 0 0 -1 0.76001 20.6396)"/>
</clipPath>
</defs>
</svg>
