<svg width="12" height="18" viewBox="0 0 12 18" fill="none" xmlns="http://www.w3.org/2000/svg">
<g clip-path="url(#clip0_76_37)">
<path d="M7.81487 8.24672C7.81487 8.24672 7.94055 8.12116 8.19191 7.87005C8.44327 7.61893 8.56895 7.13846 8.56895 6.42864C8.56895 5.71882 8.31759 5.11279 7.81487 4.61056C7.31215 4.10833 6.70553 3.85721 5.99502 3.85721C5.28451 3.85721 4.6779 4.10833 4.17518 4.61056C3.67246 5.11279 3.4211 5.71882 3.4211 6.42864C3.4211 7.13846 3.67246 7.74449 4.17518 8.24672C4.6779 8.74895 5.28451 9.00007 5.99502 9.00007C6.70553 9.00007 7.31215 8.74895 7.81487 8.24672ZM11.1429 6.42864C11.1429 7.15855 11.0323 7.75788 10.8111 8.22663L7.15128 16.0012C7.04403 16.2222 6.88484 16.3963 6.6737 16.5235C6.46255 16.6507 6.23633 16.7144 5.99502 16.7144C5.75372 16.7144 5.52749 16.6507 5.31635 16.5235C5.10521 16.3963 4.94937 16.2222 4.84882 16.0012L1.17896 8.22663C0.957766 7.75788 0.847168 7.15855 0.847168 6.42864C0.847168 5.009 1.34989 3.79694 2.35533 2.79248C3.36077 1.78802 4.574 1.28578 5.99502 1.28578C7.41605 1.28578 8.62928 1.78802 9.63472 2.79248C10.6402 3.79694 11.1429 5.009 11.1429 6.42864Z" fill="white"/>
</g>
<defs>
<clipPath id="clip0_76_37">
<rect width="10.3" height="18" fill="white" transform="matrix(1 0 0 -1 0.844971 18)"/>
</clipPath>
</defs>
</svg>
