<svg width="21" height="21" viewBox="0 0 21 21" fill="none" xmlns="http://www.w3.org/2000/svg">
<g id="Icon" clip-path="url(#clip0_120_2700)">
<path id="Vector" d="M20.7405 8.90137C20.7405 8.78418 20.7177 8.67025 20.6721 8.55957C20.6265 8.44889 20.5647 8.34798 20.4866 8.25684C20.3954 8.17871 20.2945 8.11686 20.1838 8.07129C20.0732 8.02572 19.9592 8.00293 19.842 8.00293L1.65845 8.02246C1.54126 8.02246 1.42733 8.04525 1.31665 8.09082C1.20597 8.13639 1.10506 8.20475 1.01392 8.2959C0.935791 8.37402 0.873942 8.46842 0.828369 8.5791C0.782796 8.68978 0.76001 8.80371 0.76001 8.9209L0.779541 19.2139C0.779541 19.4613 0.867432 19.6729 1.04321 19.8486C1.21899 20.0244 1.43058 20.1123 1.67798 20.1123L19.8616 20.0732C19.9788 20.0732 20.0927 20.0505 20.2034 20.0049C20.314 19.9593 20.415 19.8975 20.5061 19.8193C20.5842 19.7282 20.6461 19.6273 20.6917 19.5166C20.7372 19.4059 20.76 19.292 20.76 19.1748L20.7405 8.90137ZM18.8655 8.90137L10.76 14.5264L2.65454 8.9209L18.8655 8.90137ZM14.1389 15.4248L18.9631 19.1748L2.53735 19.1943L7.40063 15.4248C7.49178 15.3597 7.54712 15.2653 7.56665 15.1416C7.58618 15.0179 7.55688 14.904 7.47876 14.7998C7.40063 14.7087 7.29972 14.6533 7.17603 14.6338C7.05233 14.6143 6.94491 14.6436 6.85376 14.7217L1.67798 18.7451L1.65845 9.33105L10.5061 15.4443C10.5452 15.4704 10.5875 15.4899 10.6331 15.5029C10.6786 15.516 10.7209 15.5225 10.76 15.5225C10.8121 15.5225 10.8577 15.516 10.8967 15.5029C10.9358 15.4899 10.9749 15.4704 11.0139 15.4443L19.842 9.31152L19.8616 18.7451L14.6858 14.7217C14.5946 14.6436 14.4872 14.6143 14.3635 14.6338C14.2398 14.6533 14.1389 14.7087 14.0608 14.7998C13.9827 14.904 13.9501 15.0179 13.9631 15.1416C13.9762 15.2653 14.0347 15.3597 14.1389 15.4248ZM12.8889 3.33496L11.2483 1.87012C11.1051 1.73991 10.9423 1.6748 10.76 1.6748C10.5777 1.6748 10.415 1.73991 10.2717 1.87012L8.6311 3.33496C8.53996 3.41309 8.49113 3.514 8.48462 3.6377C8.47811 3.76139 8.51392 3.86881 8.59204 3.95996C8.68319 4.05111 8.79061 4.09994 8.91431 4.10645C9.038 4.11296 9.14543 4.07715 9.23657 3.99902L10.3108 3.02246V6.49902C10.3108 6.61621 10.3531 6.72038 10.4377 6.81152C10.5224 6.90267 10.6298 6.94824 10.76 6.94824C10.8902 6.94824 10.9976 6.90267 11.0823 6.81152C11.1669 6.72038 11.2092 6.61621 11.2092 6.49902V3.02246L12.2834 3.99902C12.3355 4.03809 12.3876 4.06738 12.4397 4.08691C12.4918 4.10645 12.5439 4.11621 12.5959 4.11621C12.648 4.11621 12.7034 4.10319 12.762 4.07715C12.8206 4.05111 12.8759 4.01204 12.928 3.95996C13.0061 3.86881 13.0419 3.76139 13.0354 3.6377C13.0289 3.514 12.9801 3.41309 12.8889 3.33496Z" fill="white"/>
</g>
<defs>
<clipPath id="clip0_120_2700">
<rect width="20" height="20" fill="white" transform="matrix(1 0 0 -1 0.76001 20.6396)"/>
</clipPath>
</defs>
</svg>
