<svg width="176" height="41" viewBox="0 0 176 41" fill="none" xmlns="http://www.w3.org/2000/svg">
<path d="M0 0C58.08 0 116.16 0 176 0C176 30.1786 176 30.1786 175 41C166.869 39.7391 158.879 38.1493 150.874 36.2537C149.725 35.985 148.577 35.7163 147.393 35.4395C143.619 34.5557 139.847 33.6665 136.074 32.7773C133.405 32.1508 130.735 31.5254 128.066 30.9C121.748 29.4193 115.43 27.9348 109.113 26.4487C101.383 24.6303 93.6515 22.8159 85.9199 21.002C85.2355 20.8414 84.5512 20.6808 83.846 20.5154C81.1013 19.8714 78.3566 19.2275 75.6118 18.5836C71.5627 17.6337 67.5137 16.6833 63.4648 15.7326C42.322 10.7687 21.1684 5.85358 0 1C0 0.67 0 0.34 0 0Z" fill="#EA2F6F"/>
</svg>
