<svg width="506" height="134" viewBox="0 0 506 134" fill="none" xmlns="http://www.w3.org/2000/svg">
<path d="M31.9137 0C188.131 0 344.349 0 505.3 0C506.649 1.89629 505.741 3.26528 505.127 5.32267C505.002 5.74612 504.878 6.16958 504.749 6.60587C504.328 8.03254 503.897 9.45784 503.467 10.8832C503.164 11.9027 502.861 12.9223 502.559 13.9419C501.735 16.7179 500.903 19.4927 500.069 22.2673C499.199 25.1688 498.335 28.0713 497.47 30.9736C496.016 35.8512 494.557 40.7281 493.094 45.6045C491.405 51.2405 489.721 56.8775 488.041 62.5151C486.426 67.9358 484.807 73.356 483.186 78.7759C482.497 81.0828 481.808 83.3899 481.12 85.6971C480.309 88.417 479.494 91.1364 478.677 93.8554C478.378 94.8527 478.08 95.8501 477.783 96.8477C477.377 98.2114 476.967 99.5745 476.556 100.938C476.214 102.081 476.214 102.081 475.865 103.248C475.197 105.219 474.297 107.148 473.386 109.07C368.656 109.07 263.926 109.07 156.022 109.07C156.022 114.212 156.022 119.353 156.022 124.651C155.524 131.005 155.524 131.005 155.136 134C147.928 133.214 140.845 132.223 133.748 131.042C132.73 130.874 131.712 130.707 130.663 130.534C127.317 129.984 123.973 129.429 120.629 128.875C118.262 128.485 115.896 128.095 113.529 127.705C107.928 126.782 102.328 125.857 96.7281 124.931C89.8751 123.797 83.0212 122.667 76.1673 121.536C75.5606 121.436 74.9539 121.336 74.3288 121.233C71.8956 120.831 69.4624 120.43 67.0292 120.029C63.4397 119.437 59.8503 118.844 56.261 118.252C37.5181 115.158 18.7656 112.095 0 109.07C0.509 104.024 1.85248 99.173 3.3581 94.2329C3.61346 93.3834 3.8684 92.5338 4.12296 91.6841C4.81128 89.3908 5.50541 87.0984 6.20066 84.8061C6.93311 82.3878 7.66022 79.9687 8.38796 77.5497C9.61301 73.48 10.8415 69.4109 12.0724 65.3422C13.7932 59.654 15.5082 53.965 17.2218 48.2758C19.5332 40.603 21.8465 32.9305 24.1664 25.259C24.5285 24.0613 24.8902 22.8635 25.2519 21.6657C27.4389 14.4385 29.681 7.2206 31.9137 0Z" fill="#832034"/>
</svg>
