<svg width="21" height="21" viewBox="0 0 21 21" fill="none" xmlns="http://www.w3.org/2000/svg">
<g id="Icon" clip-path="url(#clip0_120_2710)">
<path id="Vector" d="M16.8342 20.3936C16.4176 20.3936 15.9618 20.3415 15.467 20.2373C14.9722 20.1331 14.4449 19.9769 13.885 19.7686C13.2861 19.5342 12.6741 19.2477 12.0491 18.9092C11.4111 18.5837 10.7795 18.2028 10.1545 17.7666C9.52954 17.3304 8.90454 16.8584 8.27954 16.3506C7.66756 15.8298 7.06209 15.2764 6.46313 14.6904C5.8772 14.0915 5.32381 13.4795 4.80298 12.8545C4.28215 12.2425 3.80688 11.6208 3.3772 10.9893C2.94751 10.3577 2.5634 9.72949 2.22485 9.10449C1.89933 8.47949 1.61938 7.861 1.38501 7.24902C0.968343 6.15527 0.76001 5.17871 0.76001 4.31934C0.76001 3.45996 0.968343 2.82845 1.38501 2.4248C1.43709 2.3597 1.49569 2.2946 1.56079 2.22949C1.6259 2.16439 1.68449 2.09928 1.73657 2.03418C2.11418 1.64355 2.52433 1.26595 2.96704 0.901367C3.40975 0.536783 3.91756 0.367514 4.49048 0.393555C4.8811 0.406576 5.26522 0.536783 5.64282 0.78418C6.02043 1.03158 6.40454 1.39616 6.79517 1.87793C7.941 3.2972 8.38696 4.34212 8.13306 5.0127C7.87915 5.68327 7.45272 6.31152 6.85376 6.89746L6.63892 7.1123C6.54777 7.20345 6.57381 7.55176 6.71704 8.15723C6.86027 8.7627 7.79126 9.9248 9.51001 11.6436C10.0699 12.2035 10.5875 12.6852 11.0627 13.0889C11.538 13.4925 11.9644 13.818 12.342 14.0654C12.5894 14.2217 12.8889 14.3779 13.2405 14.5342C13.592 14.6904 13.859 14.6774 14.0413 14.4951L14.2561 14.2803C14.842 13.6943 15.4703 13.2744 16.1409 13.0205C16.8114 12.7666 17.8564 13.2126 19.2756 14.3584C19.7574 14.749 20.122 15.1331 20.3694 15.5107C20.6168 15.8883 20.747 16.2725 20.76 16.6631C20.7861 17.236 20.6168 17.7406 20.2522 18.1768C19.8876 18.613 19.5035 19.0199 19.0999 19.3975C19.0347 19.4626 18.9729 19.5277 18.9143 19.5928C18.8557 19.6579 18.7939 19.7165 18.7288 19.7686C18.5204 19.9769 18.2568 20.1331 17.9377 20.2373C17.6187 20.3415 17.2509 20.3936 16.8342 20.3936ZM4.41235 1.05762C4.00871 1.05762 3.62459 1.21387 3.26001 1.52637C2.89543 1.83887 2.55037 2.16439 2.22485 2.50293C2.15975 2.56803 2.0979 2.63314 2.03931 2.69824C1.98071 2.76335 1.91886 2.82845 1.85376 2.89355C1.54126 3.20605 1.40129 3.73665 1.43384 4.48535C1.46639 5.23405 1.65845 6.07715 2.01001 7.01465C2.23136 7.60059 2.5048 8.19954 2.83032 8.81152C3.15584 9.41048 3.52694 10.016 3.9436 10.6279C4.36027 11.2399 4.82251 11.8454 5.33032 12.4443C5.83813 13.0433 6.3785 13.6292 6.95142 14.2021C7.52433 14.7751 8.11027 15.3154 8.70923 15.8232C9.30819 16.3311 9.91366 16.7933 10.5256 17.21C11.1376 17.6266 11.7431 17.9977 12.342 18.3232C12.954 18.6488 13.553 18.9222 14.1389 19.1436C15.0764 19.4951 15.9195 19.6839 16.6682 19.71C17.4169 19.736 17.9475 19.5993 18.26 19.2998C18.3121 19.2347 18.3739 19.1696 18.4456 19.1045C18.5172 19.0394 18.5855 18.9743 18.6506 18.9092C18.9892 18.5837 19.318 18.2354 19.637 17.8643C19.956 17.4932 20.109 17.0993 20.0959 16.6826C20.0829 16.4092 19.9722 16.1195 19.7639 15.8135C19.5556 15.5075 19.2561 15.1982 18.8655 14.8857C17.6806 13.9352 16.8342 13.5381 16.3264 13.6943C15.8186 13.8506 15.2847 14.2087 14.7249 14.7686L14.51 14.9834C14.2496 15.2438 13.9078 15.3447 13.4846 15.2861C13.0614 15.2275 12.5634 15.0094 11.9905 14.6318C11.5868 14.3714 11.1376 14.0296 10.6428 13.6064C10.148 13.1833 9.61418 12.6852 9.04126 12.1123C7.60897 10.693 6.6617 9.53743 6.19946 8.64551C5.73722 7.75358 5.72746 7.07975 6.17017 6.62402L6.38501 6.42871C6.94491 5.86882 7.30298 5.33496 7.45923 4.82715C7.61548 4.31934 7.21834 3.47298 6.26782 2.28809C5.95532 1.89746 5.64608 1.59798 5.34009 1.38965C5.0341 1.18131 4.73787 1.07064 4.45142 1.05762C4.45142 1.05762 4.44491 1.05762 4.43188 1.05762C4.41886 1.05762 4.41235 1.05762 4.41235 1.05762Z" fill="white"/>
</g>
<defs>
<clipPath id="clip0_120_2710">
<rect width="20" height="20" fill="white" transform="matrix(1 0 0 -1 0.76001 20.1396)"/>
</clipPath>
</defs>
</svg>
