<svg width="16" height="19" viewBox="0 0 16 19" fill="none" xmlns="http://www.w3.org/2000/svg">
<g clip-path="url(#clip0_76_16)">
<path d="M15.0716 13.0402C15.0716 13.221 15.0381 13.4571 14.9712 13.7484C14.9043 14.0397 14.834 14.269 14.7604 14.4364C14.6199 14.7712 14.2117 15.1262 13.5358 15.5012C12.9068 15.8427 12.2845 16.0134 11.6689 16.0134C11.4882 16.0134 11.3109 16.0017 11.1369 15.9783C10.9629 15.9548 10.7705 15.913 10.5597 15.8527C10.3489 15.7924 10.1917 15.7439 10.0879 15.7071C9.98422 15.6702 9.79853 15.6016 9.53086 15.5012C9.26319 15.4007 9.09924 15.3404 9.03902 15.3203C8.38323 15.086 7.79771 14.8081 7.28245 14.4866C6.4326 13.9576 5.5493 13.2344 4.63254 12.317C3.71577 11.3996 2.99307 10.5157 2.46443 9.66521C2.14323 9.14959 1.86552 8.56365 1.63131 7.9074C1.61124 7.84713 1.55101 7.68307 1.45064 7.41521C1.35026 7.14736 1.28167 6.96153 1.24487 6.85774C1.20806 6.75394 1.15955 6.59657 1.09932 6.38564C1.0391 6.1747 0.997273 5.98218 0.973852 5.80807C0.950431 5.63396 0.938721 5.45651 0.938721 5.2757C0.938721 4.65963 1.10936 4.03687 1.45064 3.4074C1.82537 2.73106 2.18003 2.32258 2.51462 2.18195C2.68191 2.10829 2.9111 2.03798 3.20219 1.97102C3.49328 1.90405 3.72916 1.87057 3.90983 1.87057C4.00352 1.87057 4.07378 1.88062 4.12062 1.9007C4.24107 1.94088 4.4184 2.19535 4.65261 2.6641C4.72622 2.79133 4.8266 2.97213 4.95374 3.20651C5.08088 3.44088 5.19799 3.65349 5.30505 3.84434C5.41212 4.03519 5.51584 4.21432 5.61622 4.38173C5.63629 4.40852 5.69484 4.49222 5.79187 4.63285C5.8889 4.77347 5.96084 4.89233 6.00768 4.98943C6.05452 5.08653 6.07794 5.18195 6.07794 5.2757C6.07794 5.40963 5.98259 5.57704 5.79187 5.77794C5.60116 5.97883 5.39372 6.16298 5.16955 6.33039C4.94537 6.4978 4.73793 6.67526 4.54722 6.86276C4.3565 7.05026 4.26115 7.20428 4.26115 7.32481C4.26115 7.38508 4.27788 7.46041 4.31134 7.55082C4.34479 7.64122 4.37323 7.70986 4.39665 7.75673C4.42008 7.80361 4.46692 7.88396 4.53718 7.9978C4.60744 8.11164 4.64592 8.17526 4.65261 8.18865C5.16118 9.10606 5.74336 9.89289 6.39914 10.5491C7.05493 11.2054 7.84121 11.788 8.75797 12.2969C8.77135 12.3036 8.83492 12.3421 8.94868 12.4124C9.06244 12.4827 9.14274 12.5296 9.18958 12.553C9.23642 12.5765 9.30501 12.6049 9.39535 12.6384C9.48569 12.6719 9.56097 12.6887 9.6212 12.6887C9.74165 12.6887 9.89556 12.5932 10.0829 12.4024C10.2703 12.2115 10.4476 12.0039 10.6149 11.7796C10.7822 11.5553 10.9662 11.3477 11.167 11.1568C11.3677 10.966 11.535 10.8706 11.6689 10.8706C11.7625 10.8706 11.8579 10.894 11.9549 10.9409C12.052 10.9878 12.1707 11.0597 12.3113 11.1568C12.4518 11.2539 12.5354 11.3125 12.5622 11.3326C12.7295 11.4331 12.9085 11.5369 13.0992 11.644C13.2899 11.7512 13.5024 11.8683 13.7366 11.9956C13.9708 12.1228 14.1515 12.2232 14.2786 12.2969C14.747 12.5313 15.0013 12.7087 15.0415 12.8293C15.0615 12.8762 15.0716 12.9465 15.0716 13.0402Z" fill="white"/>
</g>
<defs>
<clipPath id="clip0_76_16">
<rect width="14.14" height="18" fill="white" transform="matrix(1 0 0 -1 0.935059 18.585)"/>
</clipPath>
</defs>
</svg>
