<svg width="16" height="17" viewBox="0 0 16 17" fill="none" xmlns="http://www.w3.org/2000/svg">
<g id="Icon" clip-path="url(#clip0_117_2334)">
<path id="Vector" d="M14.407 5.77246L10.1726 1.53809C10.0893 1.46517 10.0007 1.40788 9.90697 1.36621C9.81322 1.32454 9.70906 1.30371 9.59447 1.30371C9.49031 1.30371 9.38874 1.32454 9.28979 1.36621C9.19083 1.40788 9.10489 1.46517 9.03197 1.53809L8.7976 1.77246C8.68301 1.88704 8.58926 2.03548 8.51635 2.21777C8.44343 2.40007 8.40697 2.57454 8.40697 2.74121V3.53809C8.40697 3.59017 8.38874 3.66048 8.35229 3.74902C8.31583 3.83757 8.27676 3.89746 8.2351 3.92871L6.00072 6.16309C5.95906 6.20475 5.89656 6.24382 5.81322 6.28027C5.72989 6.31673 5.65697 6.33496 5.59447 6.33496H4.7976C4.63093 6.33496 4.45906 6.37142 4.28197 6.44434C4.10489 6.51725 3.95385 6.61621 3.82885 6.74121L3.59447 6.97559C3.43822 7.13184 3.3601 7.31934 3.3601 7.53809C3.3601 7.75684 3.43822 7.94434 3.59447 8.10059L4.84447 9.35059L0.891348 14.4912C0.828848 14.5745 0.800202 14.6657 0.805411 14.7646C0.810619 14.8636 0.849681 14.9495 0.922598 15.0225C0.953848 15.0537 0.995515 15.0798 1.0476 15.1006C1.09968 15.1214 1.15176 15.1318 1.20385 15.1318C1.24551 15.1318 1.28718 15.1266 1.32885 15.1162C1.37051 15.1058 1.40697 15.085 1.43822 15.0537L6.59447 11.085L7.82885 12.335C7.91218 12.4079 8.00072 12.4652 8.09447 12.5068C8.18822 12.5485 8.29239 12.5693 8.40697 12.5693C8.51114 12.5693 8.6127 12.5485 8.71166 12.5068C8.81062 12.4652 8.89656 12.4079 8.96947 12.335L9.20385 12.1006C9.31843 11.986 9.41218 11.8376 9.4851 11.6553C9.55801 11.473 9.59447 11.2985 9.59447 11.1318V10.335C9.59447 10.2829 9.6127 10.2126 9.64916 10.124C9.68562 10.0355 9.72468 9.97038 9.76635 9.92871L12.0007 7.69434C12.0424 7.66309 12.1049 7.62923 12.1882 7.59277C12.2716 7.55631 12.3445 7.53809 12.407 7.53809H13.2038C13.3705 7.53809 13.5424 7.49902 13.7195 7.4209C13.8966 7.34277 14.0476 7.24642 14.1726 7.13184L14.407 6.89746C14.4799 6.82454 14.5372 6.73861 14.5788 6.63965C14.6205 6.54069 14.6413 6.43913 14.6413 6.33496C14.6413 6.23079 14.6205 6.12923 14.5788 6.03027C14.5372 5.93132 14.4799 5.84538 14.407 5.77246ZM3.39135 12.5537L5.40697 9.91309L6.01635 10.5225L3.39135 12.5537ZM13.5945 6.56934C13.5632 6.611 13.5033 6.65007 13.4148 6.68652C13.3262 6.72298 13.2559 6.74121 13.2038 6.74121H12.407C12.2403 6.74121 12.0658 6.77767 11.8835 6.85059C11.7012 6.9235 11.5528 7.01725 11.4382 7.13184L9.20385 9.36621C9.08926 9.48079 8.99291 9.62923 8.91479 9.81152C8.83666 9.99381 8.7976 10.1683 8.7976 10.335V11.1318C8.7976 11.1943 8.77937 11.2673 8.74291 11.3506C8.70645 11.4339 8.6726 11.4964 8.64135 11.5381L8.40697 11.7725L4.1726 7.53809L4.40697 7.30371C4.43822 7.26204 4.49812 7.22298 4.58666 7.18652C4.6752 7.15006 4.74551 7.13184 4.7976 7.13184H5.59447C5.76114 7.13184 5.93562 7.09538 6.11791 7.02246C6.3002 6.94954 6.44864 6.85579 6.56322 6.74121L8.7976 4.50684C8.91218 4.38184 9.00854 4.23079 9.08666 4.05371C9.16479 3.87663 9.20385 3.70475 9.20385 3.53809V2.74121C9.20385 2.67871 9.22208 2.60579 9.25854 2.52246C9.29499 2.43913 9.32885 2.37663 9.3601 2.33496L9.59447 2.10059L13.8288 6.33496L13.5945 6.56934Z" fill="black"/>
</g>
<defs>
<clipPath id="clip0_117_2334">
<rect width="16" height="16.67" fill="white" transform="matrix(1 0 0 -1 0.000732422 16.6699)"/>
</clipPath>
</defs>
</svg>
