<svg width="10" height="40" viewBox="0 0 10 40" fill="none" xmlns="http://www.w3.org/2000/svg">
<g id="Icon" clip-path="url(#clip0_62_2009)">
<path id="Vector" d="M8.85069 20.7646C8.94757 20.8614 8.99601 20.9727 8.99601 21.0985C8.99601 21.2243 8.94757 21.3356 8.85069 21.4324L2.07913 28.1966C1.98226 28.2934 1.87085 28.3418 1.74491 28.3418C1.61897 28.3418 1.50757 28.2934 1.41069 28.1966L0.684131 27.4709C0.587256 27.3741 0.538818 27.2628 0.538818 27.137C0.538818 27.0112 0.587256 26.8999 0.684131 26.8031L6.39491 21.0985L0.684131 15.3939C0.587256 15.2971 0.538818 15.1858 0.538818 15.06C0.538818 14.9342 0.587256 14.8229 0.684131 14.7261L1.41069 14.0004C1.50757 13.9036 1.61897 13.8552 1.74491 13.8552C1.87085 13.8552 1.98226 13.9036 2.07913 14.0004L8.85069 20.7646Z" fill="white"/>
</g>
<defs>
<clipPath id="clip0_62_2009">
<rect width="9.3" height="39" fill="white" transform="matrix(1 0 0 -1 0.350098 39.6699)"/>
</clipPath>
</defs>
</svg>
