<svg width="100" height="100" viewBox="0 0 100 100" fill="none" xmlns="http://www.w3.org/2000/svg">
<path d="M93.1627 36.0391C91.6954 38.8814 92.3664 41.9484 92.9583 44.9583C93.0755 45.5755 93.1927 46.1927 93.3099 46.8099C93.4897 47.749 93.6708 48.6878 93.856 49.6258C94.6297 53.6583 94.792 57.4159 92.9166 61.1667C92.6454 62.0707 92.7116 62.5181 92.8541 63.4375C93.1354 65.4228 92.5407 66.8655 91.4375 68.5C91.2931 68.665 91.1487 68.83 91 69C91.2131 69.2613 91.4262 69.5225 91.6458 69.7917C92.3333 70.6667 92.3333 70.6667 92.6666 71.3333C92.8866 71.0033 93.1066 70.6733 93.3333 70.3333C93.6633 70.4433 93.9933 70.5533 94.3333 70.6667C94.2699 73.7008 93.7201 76.1396 91.638 78.4323C89.1974 80.7146 87.2174 81.4517 83.8906 81.401C83 81.3333 83 81.3333 82 81C82.11 81.33 82.22 81.66 82.3333 82C82.6796 85.2504 82.0852 87.5153 80.0794 90.0859C78.3247 92.015 76.3432 93.1959 73.7135 93.4115C72.9145 93.416 72.1297 93.3943 71.3333 93.3333C71.4433 93.0033 71.5533 92.6733 71.6666 92.3333C71.9966 92.3333 72.3266 92.3333 72.6666 92.3333C72.6666 92.1133 72.6666 91.8933 72.6666 91.6667C72.4123 91.5704 72.1579 91.4742 71.8958 91.375C71 91 71 91 70 90.3333C69.7942 90.4537 69.5883 90.574 69.3763 90.6979C67.4232 91.7681 65.899 92.3196 63.6666 92C63.3366 91.89 63.0066 91.78 62.6666 91.6667C62.3848 91.866 62.1029 92.0654 61.8125 92.2708C59.0818 94.1889 55.4714 93.7986 52.3333 93.3333C50.885 93.0673 49.443 92.7721 48 92.4792C42.2919 91.3588 38.893 91.1874 33.7708 94.2057C30.8869 95.8693 27.6268 96.1921 24.3841 95.4492C22.3461 94.7153 20.858 93.5162 19.3333 92C19.5533 91.89 19.7733 91.78 20 91.6667C20.7471 92.0219 21.4631 92.3947 22.1875 92.7917C25.2107 94.3582 27.2551 94.6455 30.5521 93.7448C32.3484 93.0817 33.9871 92.1594 35.6484 91.2148C36.6666 90.6667 36.6666 90.6667 37.3333 90.6667C37.3333 90.4467 37.3333 90.2267 37.3333 90C35.6544 90.4991 34.1085 91.2139 32.5286 91.9596C29.6586 93.2039 27.1188 92.7342 24.2357 91.7188C23.3333 91.3333 23.3333 91.3333 22.3333 90.5833C20.7538 89.662 19.1196 89.8959 17.3333 90C17.3333 89.78 17.3333 89.56 17.3333 89.3333C18.1033 89.1133 18.8733 88.8933 19.6666 88.6667C17.2152 86.2292 14.6692 84.6199 11.1458 84.4375C8.91664 84.5355 7.35312 85.2176 5.66665 86.6667C4.73379 87.6947 3.95439 88.7579 3.33332 90C3.11332 90 2.89332 90 2.66665 90C2.76684 87.9963 3.65087 86.7412 4.99998 85.3333C7.67668 83.1892 9.91499 82.6509 13.3333 83C16.4724 83.8461 18.9088 85.6393 21.2243 87.8707C22.299 88.5117 23.2554 88.4245 24.4635 88.3581C24.6984 88.3493 24.9333 88.3404 25.1753 88.3314C25.9227 88.3022 26.6695 88.2658 27.4166 88.2292C27.9244 88.2081 28.4323 88.1875 28.9401 88.1673C30.1825 88.117 31.4246 88.0602 32.6666 88C32.2019 87.6023 32.2019 87.6023 31.7278 87.1966C31.5536 87.0475 31.3793 86.8984 31.1998 86.7447C30.3787 86.1112 29.6845 85.8536 28.6666 85.6667C27.409 85.9137 26.4499 86.2678 25.3333 86.8958C24.0831 87.4428 23.3123 87.2887 22 87C21.75 86.25 21.75 86.25 21.6666 85.3333C22.4001 84.3903 22.8604 84.0465 24 83.6667C27.1811 83.4139 29.9991 83.3377 32.6666 85.3333C33.2567 85.9047 33.8012 86.4754 34.3138 87.1172C36.7797 89.0918 40.9457 89.2851 43.9791 89.8542C44.5154 89.9562 45.0517 90.0584 45.5879 90.1608C46.3647 90.3091 47.1415 90.4571 47.9187 90.6036C49.5015 90.902 51.0795 91.2171 52.6531 91.5611C53.443 91.6837 54.2019 91.6842 55 91.6667C54.73 91.5079 54.73 91.5079 54.4545 91.3459C53.6414 90.8656 52.8311 90.3808 52.0208 89.8958C51.7374 89.7293 51.4541 89.5628 51.1621 89.3913C50.7576 89.148 50.7576 89.148 50.345 88.8997C49.9706 88.6772 49.9706 88.6772 49.5886 88.4501C49 88 49 88 48.6666 87C49.3266 86.89 49.9866 86.78 50.6666 86.6667C50.5566 85.8967 50.4466 85.1267 50.3333 84.3333C50.7733 84.2233 51.2133 84.1133 51.6666 84C51.7773 84.1546 51.888 84.3092 52.0021 84.4684C52.5118 85.176 53.0266 85.8796 53.5416 86.5833C53.7157 86.8265 53.8897 87.0697 54.069 87.3203C55.1178 88.7446 56.0543 89.852 57.6666 90.6667C58.6556 90.8258 58.6556 90.8258 59.625 90.75C59.9472 90.738 60.2695 90.7259 60.6015 90.7135C60.843 90.6981 61.0845 90.6826 61.3333 90.6667C61.3333 90.2267 61.3333 89.7867 61.3333 89.3333C60.8933 89.2233 60.4533 89.1133 60 89C60 89.22 60 89.44 60 89.6667C59.56 89.5567 59.12 89.4467 58.6666 89.3333C58.6666 88.8933 58.6666 88.4533 58.6666 88C59 87.6667 59 87.6667 59.6159 87.6341C60.2995 87.645 60.9831 87.6558 61.6666 87.6667C61.7766 87.1167 61.8866 86.5667 62 86C62.55 86.11 63.1 86.22 63.6666 86.3333C63.6666 86.7733 63.6666 87.2133 63.6666 87.6667C64.7666 87.8867 65.8666 88.1067 67 88.3333C67 88.5533 67 88.7733 67 89C66.01 89.11 65.02 89.22 64 89.3333C63.89 89.6633 63.78 89.9933 63.6666 90.3333C65.6417 90.8637 66.8919 90.222 68.6666 89.3333C69.6215 88.7557 70.5541 88.1513 71.487 87.5391C73.1893 86.4548 74.5992 85.8487 76.6666 86C76.2261 86.8811 75.8167 86.9414 74.9166 87.3125C73.7727 87.7996 72.7144 88.3241 71.6666 89C72.0592 89.4668 72.0592 89.4668 73.1666 89.3958C75.7025 89.355 77.9293 88.8242 80 87.3333C80.9991 85.883 81.2064 84.7401 81 83C80.3816 80.6154 78.8417 78.9074 77.2365 77.1138C76 75.7277 76 75.7277 76 75C77.4791 75.6248 78.5894 76.7038 79.7715 77.7598C81.2724 79.0559 82.962 80.161 85.0208 80.1042C86.278 80.0044 87.2058 79.8971 88.3333 79.3333C88.7733 78.6103 88.7733 78.6103 89 77.6667C89.1787 77.2885 89.3575 76.9104 89.5416 76.5208C90.2995 74.5442 90.0789 72.414 90 70.3333C89.6793 70.9091 89.3602 71.4856 89.0416 72.0625C88.8638 72.3835 88.6859 72.7045 88.5026 73.0352C88.0525 73.8991 87.6763 74.7559 87.3333 75.6667C87.2233 75.6667 87.1133 75.6667 87 75.6667C86.8786 73.7986 87.1926 72.6697 88.0625 71.0208C88.2208 70.7149 88.2208 70.7149 88.3823 70.4028C88.9609 69.3003 89.5888 68.2557 90.2916 67.2292C91.2946 65.7067 91.3333 64.112 91.3333 62.3333C91.0033 62.4433 90.6733 62.5533 90.3333 62.6667C90.2233 63.7667 90.1133 64.8667 90 66C89.67 65.89 89.34 65.78 89 65.6667C88.89 64.6767 88.78 63.6867 88.6666 62.6667C88.1166 62.5567 87.5666 62.4467 87 62.3333C87 61.7833 87 61.2333 87 60.6667C87.44 60.5567 87.88 60.4467 88.3333 60.3333C88.3127 59.7765 88.3127 59.7765 88.2916 59.2083C88.3333 58 88.3333 58 89 57.3333C89.6875 57.3958 89.6875 57.3958 90.3333 57.6667C90.4433 57.9967 90.5533 58.3267 90.6666 58.6667C90.4466 58.7767 90.2266 58.8867 90 59C90.165 59.66 90.165 59.66 90.3333 60.3333C90.6633 60.3333 90.9933 60.3333 91.3333 60.3333C91.8714 59.2572 91.8149 58.1668 91.6666 57C90.7076 54.7751 89.211 53.5308 87.2682 52.1445C87.0284 51.9731 86.7887 51.8016 86.5416 51.625C86.2078 51.3968 86.2078 51.3968 85.8672 51.1641C85.2366 50.5766 85.1262 50.1733 85 49.3333C86.5833 48.9583 86.5833 48.9583 87.3333 49.3333C87.5533 48.6733 87.7733 48.0133 88 47.3333C88.22 47.3333 88.44 47.3333 88.6666 47.3333C89.0736 47.9041 89.0736 47.9041 89.5221 48.6953C89.6839 48.978 89.8457 49.2608 90.0123 49.5521C90.264 50.0007 90.264 50.0007 90.5208 50.4583C90.6899 50.7548 90.859 51.0513 91.0332 51.3568C92.2313 53.4627 92.2313 53.4627 92.6666 54.3333C92.2909 50.5825 91.5369 46.923 90.7457 43.2402C89.9805 39.6695 89.9805 39.6695 89.7526 37.974C89.3801 35.2293 88.7399 33.6983 86.72 31.7474C84.8151 29.7701 84.2236 27.054 84.2591 24.375C84.4369 22.678 85.0006 21.1072 86.3333 20C87.0208 20.0208 87.0208 20.0208 87.6666 20.3333C88.2831 21.126 88.3373 21.5794 88.2916 22.5833C88.0383 23.5241 87.7617 24.126 87.2916 24.9583C86.6792 26.1404 86.4841 26.9946 86.7511 28.3078C87.0449 29.1249 87.4442 29.6054 88.0234 30.2487C88.2057 30.4534 88.3879 30.6581 88.5757 30.8691C88.7157 31.0223 88.8557 31.1755 89 31.3333C89.9834 24.6664 89.9834 24.6664 88.2484 18.5352C87.5344 17.7637 86.7675 17.0511 86 16.3333C84.1931 13.3744 83.6846 10.7956 84 7.33333C84.7244 4.74321 86.4327 2.79091 88.6666 1.33333C89.5139 1.04989 90.0966 1 91 1C90.0866 1.94106 89.1767 2.79326 88.1458 3.60417C86.4974 5.01195 85.7103 6.6659 85.3541 8.79167C85.1347 12.0781 86.7848 14.7629 88.6666 17.3333C88.9906 17.6757 89.3204 18.0135 89.6666 18.3333C89.8866 17.4533 90.1066 16.5733 90.3333 15.6667C90.4433 15.6667 90.5533 15.6667 90.6666 15.6667C90.6675 15.9331 90.6684 16.1995 90.6692 16.474C90.7605 19.0653 91.2671 20.8891 92.5416 23.1471C93.6747 25.2555 93.603 27.6653 93.3333 30C92.8952 31.1152 92.386 32.0996 91.7708 33.1263C91.3007 34.0651 91.2435 34.6325 91.3333 35.6667C91.8232 34.7797 92.3085 33.8907 92.7916 33C92.9291 32.7521 93.0666 32.5041 93.2083 32.2487C94.8816 29.145 95.5447 26.1188 94.6041 22.6667C94.0573 20.9894 93.2508 19.5013 92.3333 18C94.2187 18.8185 95.2271 20.3152 96.0286 22.1719C97.6871 27.3754 95.6844 31.5572 93.1627 36.0391ZM90.6666 22.3333C90.5566 22.3333 90.4466 22.3333 90.3333 22.3333C90.3235 23.4444 90.3177 24.5555 90.3125 25.6667C90.3097 25.9782 90.3069 26.2897 90.304 26.6107C90.2976 28.4409 90.3955 30.1896 90.6666 32C92.9259 29.1514 92.4085 25.3428 90.6666 22.3333ZM63.3333 88C62 88.3333 62 88.3333 62 88.3333L63.3333 88ZM33.6666 89.6667C30.4766 89.6667 27.2866 89.6667 24 89.6667C26.1275 91.2623 27.9596 91.4898 30.5299 91.1641C31.6761 90.93 32.6219 90.5224 33.6666 90C33.6666 89.89 33.6666 89.78 33.6666 89.6667Z" fill="#FFC764"/>
<path d="M87.6665 77.6667C87.3332 78.6667 87.3332 78.6667 86.6665 79C84.2325 79.2855 82.128 78.8908 79.9998 77.6667C78.9827 76.8324 78.3787 76.0761 78.229 74.7292C78.2634 74.4885 78.2978 74.2479 78.3332 74C78.3332 73.89 78.3332 73.78 78.3332 73.6667C77.2332 73.7767 76.1332 73.8867 74.9998 74C74.8898 75.21 74.7798 76.42 74.6665 77.6667C75.4915 77.5017 75.4915 77.5017 76.3332 77.3333C78.2301 78.2237 78.9206 79.4704 79.6665 81.3333C79.9899 82.3036 80.0547 82.9674 80.0623 83.9792C80.0671 84.264 80.0718 84.5489 80.0767 84.8424C79.9955 85.713 79.7724 86.2517 79.3332 87C79.1132 87 78.8932 87 78.6665 87C78.6377 86.8028 78.6089 86.6055 78.5793 86.4023C78.2458 84.5271 77.8363 83.5918 76.3332 82.3333C74.7035 80.7407 74.7035 80.7407 74.3332 80C74.4839 81.6202 74.8436 82.5105 75.9998 83.6667C76.8726 84.111 76.8726 84.111 77.6665 84.3333C77.6665 84.5533 77.6665 84.7733 77.6665 85C75.9186 84.9408 75.9186 84.9408 74.9998 84.6667C74.7248 84.3298 74.4498 83.9929 74.1665 83.6458C73.4674 82.6169 73.4674 82.6169 72.6392 82.5352C71.813 82.5309 71.813 82.5309 70.6665 82.6667C70.4465 82.2267 70.2265 81.7867 69.9998 81.3333C70.2198 81.3333 70.4398 81.3333 70.6665 81.3333C70.5015 80.9621 70.5015 80.9621 70.3332 80.5833C69.9998 79.6667 69.9998 79.6667 69.9998 78.3333C70.378 78.2921 70.7561 78.2508 71.1457 78.2083C71.5375 78.1396 71.9294 78.0708 72.3332 78C72.8848 76.8967 72.7001 75.6696 72.6873 74.4583C72.6858 74.1911 72.6843 73.9238 72.6828 73.6484C72.6788 72.9878 72.6729 72.3272 72.6665 71.6667C73.0678 71.6705 73.4692 71.6744 73.8827 71.6784C74.4078 71.6815 74.933 71.6845 75.4582 71.6875C75.7229 71.6903 75.9875 71.6931 76.2603 71.696C77.6745 71.7435 77.6745 71.7435 78.9998 71.3333C79.1356 70.5595 79.248 69.781 79.3332 69C79.7732 69 80.2132 69 80.6665 69C80.6665 69.66 80.6665 70.32 80.6665 71C81.1065 71.11 81.5465 71.22 81.9998 71.3333C82.2497 70.1762 82.2497 70.1762 82.3332 69C82.6632 69.11 82.9932 69.22 83.3332 69.3333C83.3813 69.6977 83.4294 70.0621 83.479 70.4375C83.7321 72.1571 83.7321 72.1571 84.8332 73.4375C85.7681 74.4426 85.906 74.989 85.9998 76.3333C85.6698 76.3333 85.3398 76.3333 84.9998 76.3333C84.8039 75.8693 84.8039 75.8693 84.604 75.3958C83.947 74.2405 83.535 73.861 82.3332 73.3333C81.8932 73.3333 81.4532 73.3333 80.9998 73.3333C81.1528 73.4584 81.3058 73.5834 81.4634 73.7122C82.4291 74.5177 83.2448 75.2037 83.9582 76.25C85.0054 77.3588 86.1957 77.4561 87.6665 77.6667ZM72.3332 81C71.7832 81.11 71.2332 81.22 70.6665 81.3333C70.6665 81.4433 70.6665 81.5533 70.6665 81.6667C71.2165 81.6667 71.7665 81.6667 72.3332 81.6667C72.3332 81.4467 72.3332 81.2267 72.3332 81ZM71.9998 79.3333C70.9998 79.6667 70.9998 79.6667 70.9998 79.6667L71.9998 79.3333Z" fill="#FFC764"/>
<path d="M90.6667 80.333C90.6759 81.076 90.6822 81.8191 90.6875 82.5622C90.6914 82.976 90.6952 83.3898 90.6992 83.8161C90.6573 85.7695 90.4832 87.7182 90.3333 89.6663C87.3633 89.7763 84.3933 89.8863 81.3333 89.9997C82 88.6663 82 88.6663 82.3568 88.0348C83.4928 85.9689 83.5577 84.3 83 81.9997C83.1916 82.0517 83.3833 82.1037 83.5807 82.1572C85.7551 82.6651 87.2532 82.4991 89.1875 81.333C89.6848 81.006 90.1794 80.6748 90.6667 80.333Z" fill="#FFC764"/>
<path d="M13.0002 88.0005C12.3336 88.6671 12.3336 88.6671 11.0211 88.7921C10.0501 88.7639 9.76206 88.7421 8.9794 88.1255C8.55734 87.0562 8.66841 86.4241 9.00024 85.3338C10.2319 84.5127 10.8779 84.5372 12.3336 84.6671C13.7724 85.4315 13.3316 86.5985 13.0002 88.0005Z" fill="#FFC764"/>
<path d="M89.3335 11.0002C88.1827 11.7675 87.6844 11.7819 86.3335 11.6669C85.5324 10.8658 85.5599 10.6206 85.5419 9.52108C85.5758 8.11488 85.5758 8.11488 86.2294 7.29191C87.2192 6.9174 87.6807 6.95427 88.6669 7.33358C89.9436 8.44007 89.736 9.44801 89.3335 11.0002Z" fill="#FFC764"/>
<path d="M82.3335 69.6663C82.3335 70.1063 82.3335 70.5463 82.3335 70.9997C81.8935 71.1097 81.4535 71.2197 81.0002 71.333C80.8902 70.783 80.7802 70.233 80.6668 69.6663C81.3127 69.4788 81.3127 69.4788 82.0002 69.333C82.1102 69.443 82.2202 69.553 82.3335 69.6663Z" fill="#FFC764"/>
</svg>
