<svg width="100" height="100" viewBox="0 0 100 100" fill="none" xmlns="http://www.w3.org/2000/svg">
<path d="M36.0391 6.83677C38.8814 8.30416 41.9484 7.63312 44.9583 7.0412C45.5755 6.92401 46.1927 6.80683 46.8099 6.68964C47.749 6.50977 48.6878 6.32871 49.6258 6.1435C53.6583 5.36979 57.4159 5.20749 61.1667 7.08287C62.0707 7.35409 62.5181 7.28791 63.4375 7.14537C65.4228 6.86413 66.8655 7.45878 68.5 8.56204C68.665 8.70641 68.83 8.85078 69 8.99954C69.2613 8.78641 69.5225 8.57329 69.7917 8.3537C70.6667 7.6662 70.6667 7.6662 71.3333 7.33287C71.0033 7.11287 70.6733 6.89287 70.3333 6.6662C70.4433 6.3362 70.5533 6.0062 70.6667 5.6662C73.7008 5.72965 76.1396 6.27941 78.4323 8.36151C80.7146 10.8021 81.4517 12.7821 81.401 16.1089C81.3333 16.9995 81.3333 16.9995 81 17.9995C81.33 17.8895 81.66 17.7795 82 17.6662C85.2504 17.3199 87.5153 17.9143 90.0859 19.9201C92.015 21.6748 93.1959 23.6563 93.4115 26.286C93.416 27.085 93.3943 27.8698 93.3333 28.6662C93.0033 28.5562 92.6733 28.4462 92.3333 28.3329C92.3333 28.0029 92.3333 27.6729 92.3333 27.3329C92.1133 27.3329 91.8933 27.3329 91.6667 27.3329C91.5704 27.5872 91.4742 27.8416 91.375 28.1037C91 28.9995 91 28.9995 90.3333 29.9995C90.4537 30.2054 90.574 30.4112 90.6979 30.6232C91.7681 32.5763 92.3196 34.1005 92 36.3329C91.89 36.6629 91.78 36.9929 91.6667 37.3329C91.866 37.6147 92.0654 37.8966 92.2708 38.187C94.1889 40.9177 93.7986 44.5281 93.3333 47.6662C93.0673 49.1145 92.7721 50.5565 92.4792 51.9995C91.3588 57.7077 91.1874 61.1065 94.2057 66.2287C95.8693 69.1126 96.1921 72.3727 95.4492 75.6154C94.7153 77.6534 93.5162 79.1415 92 80.6662C91.89 80.4462 91.78 80.2262 91.6667 79.9995C92.0219 79.2524 92.3947 78.5364 92.7917 77.812C94.3582 74.7888 94.6455 72.7444 93.7448 69.4474C93.0817 67.6511 92.1594 66.0124 91.2148 64.3511C90.6667 63.3329 90.6667 63.3329 90.6667 62.6662C90.4467 62.6662 90.2267 62.6662 90 62.6662C90.4991 64.3451 91.2139 65.891 91.9596 67.4709C93.2039 70.3409 92.7342 72.8807 91.7188 75.7639C91.3333 76.6662 91.3333 76.6662 90.5833 77.6662C89.662 79.2457 89.8959 80.8799 90 82.6662C89.78 82.6662 89.56 82.6662 89.3333 82.6662C89.1133 81.8962 88.8933 81.1262 88.6667 80.3329C86.2292 82.7843 84.6199 85.3303 84.4375 88.8537C84.5355 91.0829 85.2176 92.6464 86.6667 94.3329C87.6947 95.2657 88.7579 96.0451 90 96.6662C90 96.8862 90 97.1062 90 97.3329C87.9963 97.2327 86.7412 96.3486 85.3333 94.9995C83.1892 92.3228 82.6509 90.0845 83 86.6662C83.8461 83.5271 85.6393 81.0908 87.8707 78.7752C88.5117 77.7005 88.4245 76.7441 88.3581 75.536C88.3493 75.3011 88.3404 75.0662 88.3314 74.8243C88.3022 74.0768 88.2658 73.33 88.2292 72.5829C88.2081 72.0751 88.1875 71.5673 88.1673 71.0594C88.117 69.817 88.0602 68.5749 88 67.3329C87.6023 67.7976 87.6023 67.7976 87.1966 68.2717C87.0475 68.4459 86.8984 68.6202 86.7447 68.7997C86.1112 69.6208 85.8536 70.315 85.6667 71.3329C85.9137 72.5905 86.2678 73.5496 86.8958 74.6662C87.4428 75.9164 87.2887 76.6872 87 77.9995C86.25 78.2495 86.25 78.2495 85.3333 78.3329C84.3903 77.5994 84.0465 77.1391 83.6667 75.9995C83.4139 72.8184 83.3377 70.0004 85.3333 67.3329C85.9047 66.7428 86.4754 66.1983 87.1172 65.6857C89.0918 63.2199 89.2851 59.0538 89.8542 56.0204C89.9562 55.4841 90.0584 54.9478 90.1608 54.4116C90.3091 53.6348 90.4571 52.858 90.6036 52.0808C90.902 50.498 91.2171 48.92 91.5611 47.3465C91.6837 46.5565 91.6842 45.7976 91.6667 44.9995C91.5079 45.2696 91.5079 45.2696 91.3459 45.545C90.8656 46.3581 90.3808 47.1684 89.8958 47.9787C89.7293 48.2621 89.5628 48.5455 89.3913 48.8374C89.148 49.2419 89.148 49.2419 88.8997 49.6545C88.6772 50.0289 88.6772 50.0289 88.4501 50.4109C88 50.9995 88 50.9995 87 51.3329C86.89 50.6729 86.78 50.0129 86.6667 49.3329C85.8967 49.4429 85.1267 49.5529 84.3333 49.6662C84.2233 49.2262 84.1133 48.7862 84 48.3329C84.1546 48.2222 84.3092 48.1115 84.4684 47.9974C85.176 47.4877 85.8796 46.9729 86.5833 46.4579C86.8265 46.2838 87.0697 46.1098 87.3203 45.9305C88.7446 44.8817 89.852 43.9452 90.6667 42.3329C90.8258 41.3439 90.8258 41.3439 90.75 40.3745C90.738 40.0523 90.7259 39.73 90.7135 39.398C90.6981 39.1565 90.6826 38.915 90.6667 38.6662C90.2267 38.6662 89.7867 38.6662 89.3333 38.6662C89.2233 39.1062 89.1133 39.5462 89 39.9995C89.22 39.9995 89.44 39.9995 89.6667 39.9995C89.5567 40.4395 89.4467 40.8795 89.3333 41.3329C88.8933 41.3329 88.4533 41.3329 88 41.3329C87.6667 40.9995 87.6667 40.9995 87.6341 40.3836C87.645 39.7001 87.6558 39.0165 87.6667 38.3329C87.1167 38.2229 86.5667 38.1129 86 37.9995C86.11 37.4495 86.22 36.8995 86.3333 36.3329C86.7733 36.3329 87.2133 36.3329 87.6667 36.3329C87.8867 35.2329 88.1067 34.1329 88.3333 32.9995C88.5533 32.9995 88.7733 32.9995 89 32.9995C89.11 33.9895 89.22 34.9795 89.3333 35.9995C89.6633 36.1095 89.9933 36.2195 90.3333 36.3329C90.8637 34.3578 90.222 33.1076 89.3333 31.3329C88.7557 30.3781 88.1513 29.4454 87.5391 28.5126C86.4548 26.8102 85.8487 25.4004 86 23.3329C86.8811 23.7734 86.9414 24.1828 87.3125 25.0829C87.7996 26.2268 88.3241 27.2852 89 28.3329C89.4668 27.9403 89.4668 27.9403 89.3958 26.8329C89.355 24.297 88.8242 22.0702 87.3333 19.9995C85.883 19.0004 84.7401 18.7931 83 18.9995C80.6154 19.6179 78.9074 21.1578 77.1138 22.763C75.7277 23.9995 75.7277 23.9995 75 23.9995C75.6248 22.5204 76.7038 21.4101 77.7598 20.2281C79.0559 18.7272 80.161 17.0375 80.1042 14.9787C80.0044 13.7215 79.8971 12.7937 79.3333 11.6662C78.6103 11.2262 78.6103 11.2262 77.6667 10.9995C77.2885 10.8208 76.9104 10.642 76.5208 10.4579C74.5442 9.69998 72.414 9.92063 70.3333 9.99954C70.9091 10.3202 71.4856 10.6393 72.0625 10.9579C72.3835 11.1358 72.7045 11.3136 73.0352 11.4969C73.8991 11.947 74.7559 12.3232 75.6667 12.6662C75.6667 12.7762 75.6667 12.8862 75.6667 12.9995C73.7986 13.1209 72.6697 12.8069 71.0208 11.937C70.7149 11.7787 70.7149 11.7787 70.4028 11.6172C69.3003 11.0386 68.2557 10.4108 67.2292 9.70787C65.7067 8.70494 64.112 8.6662 62.3333 8.6662C62.4433 8.9962 62.5533 9.3262 62.6667 9.6662C63.7667 9.7762 64.8667 9.8862 66 9.99954C65.89 10.3295 65.78 10.6595 65.6667 10.9995C64.6767 11.1095 63.6867 11.2195 62.6667 11.3329C62.5567 11.8829 62.4467 12.4329 62.3333 12.9995C61.7833 12.9995 61.2333 12.9995 60.6667 12.9995C60.5567 12.5595 60.4467 12.1195 60.3333 11.6662C59.7765 11.6868 59.7765 11.6868 59.2083 11.7079C58 11.6662 58 11.6662 57.3333 10.9995C57.3958 10.312 57.3958 10.312 57.6667 9.6662C57.9967 9.5562 58.3267 9.4462 58.6667 9.33287C58.7767 9.55287 58.8867 9.77287 59 9.99954C59.66 9.83453 59.66 9.83453 60.3333 9.6662C60.3333 9.3362 60.3333 9.0062 60.3333 8.6662C59.2572 8.12812 58.1668 8.18464 57 8.33287C54.7751 9.2919 53.5308 10.7885 52.1445 12.7313C51.9731 12.9711 51.8016 13.2108 51.625 13.4579C51.3968 13.7917 51.3968 13.7917 51.1641 14.1323C50.5766 14.7629 50.1733 14.8734 49.3333 14.9995C48.9583 13.4162 48.9583 13.4162 49.3333 12.6662C48.6733 12.4462 48.0133 12.2262 47.3333 11.9995C47.3333 11.7795 47.3333 11.5595 47.3333 11.3329C47.9041 10.9259 47.9041 10.9259 48.6953 10.4774C48.978 10.3156 49.2608 10.1538 49.5521 9.98716C50.0007 9.73548 50.0007 9.73548 50.4583 9.4787C50.7548 9.30962 51.0513 9.14054 51.3568 8.96633C53.4627 7.76818 53.4627 7.76818 54.3333 7.33287C50.5825 7.7086 46.923 8.46258 43.2402 9.25385C39.6695 10.019 39.6695 10.019 37.974 10.2469C35.2293 10.6194 33.6983 11.2596 31.7474 13.2795C29.7701 15.1844 27.054 15.7759 24.375 15.7404C22.678 15.5626 21.1072 14.9989 20 13.6662C20.0208 12.9787 20.0208 12.9787 20.3333 12.3329C21.126 11.7164 21.5794 11.6622 22.5833 11.7079C23.5241 11.9612 24.126 12.2379 24.9583 12.7079C26.1404 13.3203 26.9946 13.5154 28.3078 13.2484C29.1249 12.9546 29.6054 12.5553 30.2487 11.9761C30.4534 11.7939 30.6581 11.6116 30.8691 11.4239C31.0223 11.2838 31.1755 11.1438 31.3333 10.9995C24.6664 10.0161 24.6664 10.0161 18.5352 11.7511C17.7637 12.4652 17.0511 13.232 16.3333 13.9995C13.3744 15.8064 10.7956 16.315 7.33333 15.9995C4.74321 15.2751 2.79091 13.5668 1.33333 11.3329C1.04989 10.4856 1 9.90295 1 8.99954C1.94106 9.91292 2.79326 10.8228 3.60417 11.8537C5.01195 13.5021 6.6659 14.2892 8.79167 14.6454C12.0781 14.8648 14.7629 13.2147 17.3333 11.3329C17.6757 11.0089 18.0135 10.6791 18.3333 10.3329C17.4533 10.1129 16.5733 9.89287 15.6667 9.6662C15.6667 9.5562 15.6667 9.4462 15.6667 9.33287C15.9331 9.33201 16.1995 9.33115 16.474 9.33026C19.0653 9.23902 20.8891 8.73244 23.1471 7.45787C25.2555 6.3248 27.6653 6.39653 30 6.6662C31.1152 7.10434 32.0996 7.61354 33.1263 8.2287C34.0651 8.69882 34.6325 8.75597 35.6667 8.6662C34.7797 8.17634 33.8907 7.69099 33 7.20787C32.7521 7.07037 32.5041 6.93287 32.2487 6.7912C29.145 5.1179 26.1188 4.45484 22.6667 5.39537C20.9894 5.94218 19.5013 6.74876 18 7.6662C18.8185 5.78083 20.3152 4.77238 22.1719 3.97089C27.3754 2.31244 31.5572 4.31507 36.0391 6.83677ZM22.3333 9.33287C22.3333 9.44287 22.3333 9.55287 22.3333 9.6662C23.4444 9.67599 24.5555 9.68184 25.6667 9.68704C25.9782 9.68983 26.2897 9.69262 26.6107 9.6955C28.4409 9.7019 30.1896 9.60401 32 9.33287C29.1514 7.07365 25.3428 7.59096 22.3333 9.33287ZM88 36.6662C88.3333 37.9995 88.3333 37.9995 88.3333 37.9995L88 36.6662ZM89.6667 66.3329C89.6667 69.5229 89.6667 72.7129 89.6667 75.9995C91.2623 73.872 91.4898 72.0399 91.1641 69.4696C90.93 68.3234 90.5224 67.3776 90 66.3329C89.89 66.3329 89.78 66.3329 89.6667 66.3329Z" fill="#FFC764"/>
<path d="M77.6667 12.333C78.6667 12.6663 78.6667 12.6663 79 13.333C79.2855 15.767 78.8908 17.8715 77.6667 19.9997C76.8324 21.0168 76.0761 21.6208 74.7292 21.7705C74.4885 21.7361 74.2479 21.7018 74 21.6663C73.89 21.6663 73.78 21.6663 73.6667 21.6663C73.7767 22.7663 73.8867 23.8663 74 24.9997C75.21 25.1097 76.42 25.2197 77.6667 25.333C77.5017 24.508 77.5017 24.508 77.3333 23.6663C78.2237 21.7694 79.4704 21.0789 81.3333 20.333C82.3036 20.0096 82.9674 19.9448 83.9792 19.9372C84.264 19.9324 84.5489 19.9277 84.8424 19.9229C85.713 20.004 86.2517 20.2271 87 20.6663C87 20.8863 87 21.1063 87 21.333C86.8028 21.3618 86.6055 21.3906 86.4023 21.4202C84.5271 21.7537 83.5918 22.1632 82.3333 23.6663C80.7407 25.296 80.7407 25.296 80 25.6663C81.6202 25.5156 82.5105 25.1559 83.6667 23.9997C84.111 23.1269 84.111 23.1269 84.3333 22.333C84.5533 22.333 84.7733 22.333 85 22.333C84.9408 24.0809 84.9408 24.0809 84.6667 24.9997C84.3298 25.2747 83.9929 25.5497 83.6458 25.833C82.6169 26.5321 82.6169 26.5321 82.5352 27.3604C82.5309 28.1865 82.5309 28.1865 82.6667 29.333C82.2267 29.553 81.7867 29.773 81.3333 29.9997C81.3333 29.7797 81.3333 29.5597 81.3333 29.333C80.9621 29.498 80.9621 29.498 80.5833 29.6663C79.6667 29.9997 79.6667 29.9997 78.3333 29.9997C78.2921 29.6215 78.2508 29.2434 78.2083 28.8538C78.1396 28.462 78.0708 28.0701 78 27.6663C76.8967 27.1147 75.6696 27.2994 74.4583 27.3122C74.1911 27.3137 73.9238 27.3152 73.6484 27.3167C72.9878 27.3207 72.3272 27.3266 71.6667 27.333C71.6705 26.9317 71.6744 26.5304 71.6784 26.1169C71.6815 25.5917 71.6845 25.0665 71.6875 24.5413C71.6903 24.2767 71.6931 24.012 71.696 23.7393C71.7435 22.325 71.7435 22.325 71.3333 20.9997C70.5595 20.8639 69.781 20.7515 69 20.6663C69 20.2263 69 19.7863 69 19.333C69.66 19.333 70.32 19.333 71 19.333C71.11 18.893 71.22 18.453 71.3333 17.9997C70.1762 17.7498 70.1762 17.7498 69 17.6663C69.11 17.3363 69.22 17.0063 69.3333 16.6663C69.6977 16.6182 70.0621 16.5701 70.4375 16.5205C72.1571 16.2674 72.1571 16.2674 73.4375 15.1663C74.4426 14.2314 74.989 14.0935 76.3333 13.9997C76.3333 14.3297 76.3333 14.6597 76.3333 14.9997C75.8693 15.1956 75.8693 15.1956 75.3958 15.3955C74.2405 16.0525 73.861 16.4645 73.3333 17.6663C73.3333 18.1063 73.3333 18.5463 73.3333 18.9997C73.4584 18.8467 73.5834 18.6937 73.7122 18.5361C74.5177 17.5704 75.2037 16.7547 76.25 16.0413C77.3588 14.9941 77.4561 13.8038 77.6667 12.333ZM81 27.6663C81.11 28.2163 81.22 28.7663 81.3333 29.333C81.4433 29.333 81.5533 29.333 81.6667 29.333C81.6667 28.783 81.6667 28.233 81.6667 27.6663C81.4467 27.6663 81.2267 27.6663 81 27.6663ZM79.3333 27.9997C79.6667 28.9997 79.6667 28.9997 79.6667 28.9997L79.3333 27.9997Z" fill="#FFC764"/>
<path d="M80.3335 9.33333C81.0765 9.32408 81.8196 9.31776 82.5627 9.3125C82.9765 9.30863 83.3902 9.30477 83.8166 9.30078C85.77 9.3427 87.7187 9.51681 89.6668 9.66667C89.7768 12.6367 89.8868 15.6067 90.0002 18.6667C88.6668 18 88.6668 18 88.0353 17.6432C85.9693 16.5072 84.3005 16.4423 82.0002 17C82.0522 16.8084 82.1041 16.6167 82.1577 16.4193C82.6656 14.2449 82.4996 12.7468 81.3335 10.8125C81.0065 10.3152 80.6753 9.82057 80.3335 9.33333Z" fill="#FFC764"/>
<path d="M88 87.0003C88.6666 87.6669 88.6666 87.6669 88.7916 88.9794C88.7634 89.9504 88.7416 90.2384 88.125 91.0211C87.0558 91.4431 86.4236 91.3321 85.3333 91.0003C84.5122 89.7686 84.5367 89.1226 84.6666 87.6669C85.431 86.2281 86.598 86.6689 88 87.0003Z" fill="#FFC764"/>
<path d="M10.9998 10.667C11.767 11.8178 11.7814 12.3161 11.6664 13.667C10.8653 14.4681 10.6201 14.4406 9.52059 14.4586C8.11439 14.4247 8.11439 14.4247 7.29143 13.7711C6.91691 12.7813 6.95378 12.3198 7.33309 11.3336C8.43958 10.0569 9.44752 10.2645 10.9998 10.667Z" fill="#FFC764"/>
<path d="M69.6668 17.667C70.1068 17.667 70.5468 17.667 71.0002 17.667C71.1102 18.107 71.2202 18.547 71.3335 19.0003C70.7835 19.1103 70.2335 19.2203 69.6668 19.3337C69.4793 18.6878 69.4793 18.6878 69.3335 18.0003C69.4435 17.8903 69.5535 17.7803 69.6668 17.667Z" fill="#FFC764"/>
</svg>
