<svg width="16" height="19" viewBox="0 0 16 19" fill="none" xmlns="http://www.w3.org/2000/svg">
<g clip-path="url(#clip0_76_23)">
<path d="M9.6573 10.8557C9.6573 10.8557 9.72259 10.7745 9.85317 10.6121C9.98375 10.4497 10.0926 10.3685 10.1796 10.3685C10.2667 10.3685 10.5931 10.5159 11.159 10.8105C11.7248 11.1052 12.0245 11.2826 12.058 11.3429C12.0714 11.3764 12.0781 11.4266 12.0781 11.4935C12.0781 11.7145 12.0211 11.969 11.9073 12.2569C11.8002 12.5181 11.5624 12.7374 11.1941 12.9149C10.8258 13.0923 10.4843 13.181 10.1696 13.181C9.78788 13.181 9.15172 12.9735 8.26109 12.5583C7.60484 12.2569 7.03564 11.8619 6.5535 11.373C6.07136 10.8842 5.57582 10.2648 5.06689 9.51475C4.58475 8.79823 4.34703 8.14868 4.35372 7.56609V7.48573C4.37381 6.87636 4.62158 6.34734 5.09703 5.89868C5.25774 5.75136 5.43185 5.6777 5.61935 5.6777C5.65953 5.6777 5.7198 5.68272 5.80015 5.69277C5.88051 5.70281 5.94413 5.70783 5.991 5.70783C6.11823 5.70783 6.20696 5.7296 6.25718 5.77312C6.30741 5.81665 6.35931 5.90873 6.41288 6.04935C6.46645 6.18328 6.57694 6.47792 6.74435 6.93328C6.91176 7.38864 6.99547 7.63975 6.99547 7.68663C6.99547 7.82725 6.87995 8.01978 6.64893 8.2642C6.4179 8.50861 6.30239 8.66431 6.30239 8.73127C6.30239 8.77815 6.31913 8.82837 6.35261 8.88194C6.58029 9.37078 6.92181 9.82949 7.37716 10.2581C7.75216 10.613 8.25774 10.9511 8.8939 11.2726C8.97426 11.3194 9.04792 11.3429 9.11489 11.3429C9.21533 11.3429 9.39614 11.1805 9.6573 10.8557ZM8.14055 15.6922C8.991 15.6922 9.80629 15.5248 10.5864 15.19C11.3666 14.8552 12.0379 14.4065 12.6004 13.844C13.1629 13.2815 13.6115 12.6102 13.9464 11.83C14.2812 11.0499 14.4486 10.2346 14.4486 9.38417C14.4486 8.53373 14.2812 7.71844 13.9464 6.9383C13.6115 6.15817 13.1629 5.48685 12.6004 4.92435C12.0379 4.36185 11.3666 3.91319 10.5864 3.57837C9.80629 3.24355 8.991 3.07614 8.14055 3.07614C7.29011 3.07614 6.47482 3.24355 5.69468 3.57837C4.91455 3.91319 4.24323 4.36185 3.68073 4.92435C3.11823 5.48685 2.66957 6.15817 2.33475 6.9383C1.99993 7.71844 1.83252 8.53373 1.83252 9.38417C1.83252 10.7435 2.23431 11.9757 3.03788 13.0806L2.24435 15.421L4.67515 14.6476C5.73319 15.344 6.88832 15.6922 8.14055 15.6922ZM5.2025 2.41319C5.2025 2.41319 5.43604 2.31274 5.90311 2.11185C6.37019 1.91096 7.116 1.81051 8.14055 1.81051C9.16511 1.81051 10.1445 2.0114 11.0786 2.41319C12.0128 2.81498 12.818 3.35404 13.4943 4.03038C14.1707 4.70672 14.7098 5.51196 15.1115 6.44611C15.5133 7.38027 15.7142 8.35962 15.7142 9.38417C15.7142 10.4087 15.5133 11.3881 15.1115 12.3222C14.7098 13.2564 14.1707 14.0616 13.4943 14.738C12.818 15.4143 12.0128 15.9534 11.0786 16.3552C10.1445 16.7569 9.16511 16.9578 8.14055 16.9578C6.83475 16.9578 5.61265 16.6431 4.47426 16.0136L0.285645 17.3596L1.65172 13.2915C0.928502 12.0996 0.566895 10.7971 0.566895 9.38417C0.566895 8.35962 0.767787 7.38027 1.16957 6.44611C1.57136 5.51196 2.11042 4.70672 2.78676 4.03038C3.4631 3.35404 4.26835 2.81498 5.2025 2.41319Z" fill="white"/>
</g>
<defs>
<clipPath id="clip0_76_23">
<rect width="15.44" height="18" fill="white" transform="matrix(1 0 0 -1 0.280029 18.585)"/>
</clipPath>
</defs>
</svg>
