<svg width="25" height="25" viewBox="0 0 25 25" fill="none" xmlns="http://www.w3.org/2000/svg">
<path d="M18.9499 9.08972L10.3899 4.80972C4.6399 1.92972 2.2799 4.28972 5.1599 10.0397L6.0299 11.7797C6.2799 12.2897 6.2799 12.8797 6.0299 13.3897L5.1599 15.1197C2.2799 20.8697 4.6299 23.2297 10.3899 20.3497L18.9499 16.0697C22.7899 14.1497 22.7899 11.0097 18.9499 9.08972ZM15.7199 13.3297H10.3199C9.9099 13.3297 9.5699 12.9897 9.5699 12.5797C9.5699 12.1697 9.9099 11.8297 10.3199 11.8297H15.7199C16.1299 11.8297 16.4699 12.1697 16.4699 12.5797C16.4699 12.9897 16.1299 13.3297 15.7199 13.3297Z" fill="#FE071C"/>
</svg>
